<svg width="33" height="33" viewBox="0 0 33 33" fill="none" xmlns="http://www.w3.org/2000/svg">
<path d="M27.5 8.43286H22.5V7.43286C22.4967 6.63823 22.1796 5.87707 21.6177 5.31518C21.0558 4.75328 20.2946 4.43615 19.5 4.43286H13.5C12.7054 4.43615 11.9442 4.75328 11.3823 5.31518C10.8204 5.87707 10.5033 6.63823 10.5 7.43286V8.43286H5.5C4.96957 8.43286 4.46086 8.64358 4.08579 9.01865C3.71071 9.39372 3.5 9.90243 3.5 10.4329V26.4329C3.5 26.9633 3.71071 27.472 4.08579 27.8471C4.46086 28.2221 4.96957 28.4329 5.5 28.4329H27.5C28.0304 28.4329 28.5391 28.2221 28.9142 27.8471C29.2893 27.472 29.5 26.9633 29.5 26.4329V10.4329C29.5 9.90243 29.2893 9.39372 28.9142 9.01865C28.5391 8.64358 28.0304 8.43286 27.5 8.43286V8.43286ZM12.5 7.43286C12.5 7.16764 12.6054 6.91329 12.7929 6.72575C12.9804 6.53822 13.2348 6.43286 13.5 6.43286H19.5C19.7652 6.43286 20.0196 6.53822 20.2071 6.72575C20.3946 6.91329 20.5 7.16764 20.5 7.43286V8.43286H12.5V7.43286ZM27.5 10.4329V15.6329C24.1256 17.4725 20.3433 18.4353 16.5 18.4329C12.6567 18.4353 8.87438 17.4725 5.5 15.6329V10.4329H27.5ZM14 15.4329C14 15.1676 14.1054 14.9133 14.2929 14.7258C14.4804 14.5382 14.7348 14.4329 15 14.4329H18C18.2652 14.4329 18.5196 14.5382 18.7071 14.7258C18.8946 14.9133 19 15.1676 19 15.4329C19 15.6981 18.8946 15.9524 18.7071 16.14C18.5196 16.3275 18.2652 16.4329 18 16.4329H15C14.7348 16.4329 14.4804 16.3275 14.2929 16.14C14.1054 15.9524 14 15.6981 14 15.4329Z" fill="#3D8798"/>
</svg>
