<svg width="49" height="48" viewBox="0 0 49 48" fill="none" xmlns="http://www.w3.org/2000/svg">
<rect x="0.5" width="48" height="48" rx="10" fill="#C9D0FF"/>
<path fill-rule="evenodd" clip-rule="evenodd" d="M37.4837 26.6322C37.3537 25.6897 36.2975 25.0722 35.16 24.926C34.9163 24.8935 34.64 24.861 34.3637 24.8447C34.4612 24.8285 34.5425 24.8285 34.6237 24.8122C35.7775 24.6822 36.6225 24.0485 36.4925 23.106C36.3625 22.1635 35.3062 21.546 34.1687 21.3997C33.6162 21.3347 32.9987 21.286 32.3325 21.2535C32.3325 21.2535 32.3325 21.2535 32.3162 21.2535C31.9263 21.2372 31.52 21.221 31.0975 21.221C30.3175 21.1885 29.2937 21.156 28.5138 21.091C27.9287 21.0422 27.8475 20.636 27.9125 20.2297C28.4812 18.7672 28.79 17.126 28.725 15.501C28.66 14.1197 27.75 12.771 26.4337 12.6247C25.345 12.511 24.5487 13.2585 24.825 14.2172C25.735 17.3535 21.4613 21.0747 18 23.171V32.921C20.6975 34.5947 25.0687 35.456 30.155 35.3585C30.4637 35.3585 30.7887 35.3422 31.1625 35.326C31.2113 35.326 31.26 35.326 31.3087 35.326C31.6662 35.3097 32.0562 35.2772 32.495 35.2447C33.6487 35.1472 34.9975 34.416 34.9325 33.4735C34.8837 32.6447 34.2825 32.1897 33.5187 31.9622C33.9575 31.9297 34.3962 31.8972 34.8025 31.8647C35.9562 31.7672 36.8175 31.1335 36.7037 30.1747C36.6062 29.2322 35.5662 28.5985 34.4125 28.436C34.38 28.436 34.3312 28.4197 34.2987 28.4197C34.77 28.3872 35.225 28.371 35.615 28.3385C36.7687 28.2897 37.6137 27.5747 37.4837 26.6322ZM14.75 22.3747H11.5V33.7497H14.75C15.6438 33.7497 16.375 33.0185 16.375 32.1247V23.9997C16.375 23.0897 15.6438 22.3747 14.75 22.3747Z" fill="#3750EB"/>
</svg>
