<svg width="48" height="45" viewBox="0 0 48 45" fill="#F7F7F7" xmlns="http://www.w3.org/2000/svg">
<rect y="0.432861" width="48" height="44" rx="6" />
<path d="M35 15.4329H13C12.4477 15.4329 12 15.8806 12 16.4329V32.4329C12 32.9851 12.4477 33.4329 13 33.4329H35C35.5523 33.4329 36 32.9851 36 32.4329V16.4329C36 15.8806 35.5523 15.4329 35 15.4329Z" stroke="#8F95B2" stroke-width="2" stroke-linecap="round" stroke-linejoin="round"/>
<path d="M29 15.4329V13.4329C29 12.9024 28.7893 12.3937 28.4142 12.0186C28.0391 11.6436 27.5304 11.4329 27 11.4329H21C20.4696 11.4329 19.9609 11.6436 19.5858 12.0186C19.2107 12.3937 19 12.9024 19 13.4329V15.4329" stroke="#8F95B2" stroke-width="2" stroke-linecap="round" stroke-linejoin="round"/>
<path d="M36 22.2205C32.3529 24.3297 28.2132 25.438 24 25.433C19.7861 25.4439 15.6448 24.3353 12 22.2205" stroke="#8F95B2" stroke-width="2" stroke-linecap="round" stroke-linejoin="round"/>
<path d="M22.5 21.4329H25.5" stroke="#8F95B2" stroke-width="2" stroke-linecap="round" stroke-linejoin="round"/>
</svg>
