<svg width="48" height="45" viewBox="0 0 48 45" fill="none" xmlns="http://www.w3.org/2000/svg">
<rect y="0.432861" width="48" height="44" rx="6" fill="#3D8798"/>
<path d="M35 14.4329H30V13.4329C29.9967 12.6382 29.6796 11.8771 29.1177 11.3152C28.5558 10.7533 27.7946 10.4362 27 10.4329H21C20.2054 10.4362 19.4442 10.7533 18.8823 11.3152C18.3204 11.8771 18.0033 12.6382 18 13.4329V14.4329H13C12.4696 14.4329 11.9609 14.6436 11.5858 15.0186C11.2107 15.3937 11 15.9024 11 16.4329V32.4329C11 32.9633 11.2107 33.472 11.5858 33.8471C11.9609 34.2221 12.4696 34.4329 13 34.4329H35C35.5304 34.4329 36.0391 34.2221 36.4142 33.8471C36.7893 33.472 37 32.9633 37 32.4329V16.4329C37 15.9024 36.7893 15.3937 36.4142 15.0186C36.0391 14.6436 35.5304 14.4329 35 14.4329ZM20 13.4329C20 13.1676 20.1054 12.9133 20.2929 12.7258C20.4804 12.5382 20.7348 12.4329 21 12.4329H27C27.2652 12.4329 27.5196 12.5382 27.7071 12.7258C27.8946 12.9133 28 13.1676 28 13.4329V14.4329H20V13.4329ZM35 16.4329V21.6329C31.6256 23.4725 27.8433 24.4353 24 24.4329C20.1567 24.4353 16.3744 23.4725 13 21.6329V16.4329H35ZM21.5 21.4329C21.5 21.1676 21.6054 20.9133 21.7929 20.7258C21.9804 20.5382 22.2348 20.4329 22.5 20.4329H25.5C25.7652 20.4329 26.0196 20.5382 26.2071 20.7258C26.3946 20.9133 26.5 21.1676 26.5 21.4329C26.5 21.6981 26.3946 21.9524 26.2071 22.14C26.0196 22.3275 25.7652 22.4329 25.5 22.4329H22.5C22.2348 22.4329 21.9804 22.3275 21.7929 22.14C21.6054 21.9524 21.5 21.6981 21.5 21.4329Z" fill="white"/>
</svg>
