<svg width="48" height="45" viewBox="0 0 48 45" fill="none" xmlns="http://www.w3.org/2000/svg">
<rect y="0.432861" width="48" height="44" rx="6" fill="#3D8798"/>
<path fill-rule="evenodd" clip-rule="evenodd" d="M29.5438 17.4102C29.5438 20.5431 27.0462 23.0552 23.9314 23.0552C20.8166 23.0552 18.319 20.5431 18.319 17.4102C18.319 14.276 20.8166 11.7664 23.9314 11.7664C27.0462 11.7664 29.5438 14.276 29.5438 17.4102ZM23.9305 33.0996C19.3556 33.0996 15.4492 32.3743 15.4492 29.4732C15.4492 26.5708 19.3305 25.8191 23.9305 25.8191C28.5054 25.8191 32.4117 26.5444 32.4117 29.4467C32.4117 32.3479 28.5305 33.0996 23.9305 33.0996ZM31.9424 17.5119C31.9424 19.109 31.466 20.5968 30.6303 21.8336C30.5444 21.9609 30.6208 22.1326 30.7724 22.159C30.9813 22.195 31.1974 22.2154 31.4171 22.2214C33.6078 22.2791 35.5741 20.8609 36.1173 18.7259C36.922 15.5546 34.5593 12.7074 31.5508 12.7074C31.2237 12.7074 30.9109 12.7423 30.6064 12.8047C30.5647 12.8143 30.5205 12.8335 30.4966 12.8707C30.4679 12.9164 30.4894 12.9776 30.5181 13.0172C31.4219 14.2913 31.9424 15.8452 31.9424 17.5119ZM35.5698 24.4497C37.0419 24.7391 38.0101 25.3299 38.4112 26.1884C38.7503 26.8933 38.7503 27.7111 38.4112 28.4147C37.7976 29.7464 35.8193 30.1739 35.0505 30.2844C34.8917 30.3084 34.764 30.1703 34.7807 30.0106C35.1735 26.3205 32.0491 24.5709 31.2409 24.1687C31.2062 24.1507 31.1991 24.123 31.2027 24.1062C31.205 24.0942 31.2194 24.075 31.2456 24.0714C32.9946 24.039 34.875 24.2791 35.5698 24.4497ZM16.5823 22.2214C16.8019 22.2154 17.0168 22.1962 17.227 22.159C17.3786 22.1326 17.455 21.9609 17.369 21.8336C16.5333 20.5968 16.057 19.109 16.057 17.5119C16.057 15.8452 16.5775 14.2913 17.4813 13.0172C17.5099 12.9776 17.5302 12.9164 17.5027 12.8707C17.4789 12.8347 17.4335 12.8143 17.3929 12.8047C17.0873 12.7423 16.7745 12.7074 16.4474 12.7074C13.4388 12.7074 11.0761 15.5546 11.882 18.7259C12.4252 20.8609 14.3915 22.2791 16.5823 22.2214ZM16.7946 24.1057C16.7982 24.1237 16.791 24.1501 16.7576 24.1693C15.9482 24.5716 12.8238 26.3212 13.2166 30.0101C13.2333 30.171 13.1068 30.3079 12.948 30.285C12.1791 30.1746 10.2009 29.7471 9.58722 28.4154C9.24697 27.7105 9.24697 26.894 9.58722 26.1891C9.98836 25.3305 10.9554 24.7397 12.4274 24.4491C13.1235 24.2798 15.0026 24.0396 16.7528 24.0721C16.7791 24.0757 16.7922 24.0949 16.7946 24.1057Z" fill="white"/>
</svg>
