<svg width="20" height="20" viewBox="0 0 20 20" fill="none" xmlns="http://www.w3.org/2000/svg">
<path d="M1.66675 4.16675L7.50008 1.66675L12.5001 4.16675L17.7526 1.91591C17.816 1.88873 17.8851 1.87772 17.9539 1.88387C18.0226 1.89001 18.0887 1.91312 18.1463 1.95112C18.2038 1.98912 18.2511 2.04082 18.2837 2.10158C18.3164 2.16234 18.3335 2.23026 18.3334 2.29925V15.8334L12.5001 18.3334L7.50008 15.8334L2.24758 18.0842C2.18418 18.1114 2.11501 18.1224 2.0463 18.1163C1.97759 18.1102 1.91148 18.087 1.8539 18.049C1.79633 18.011 1.74909 17.9593 1.71642 17.8986C1.68375 17.8378 1.66669 17.7699 1.66675 17.7009V4.16675ZM13.3334 16.1626L16.6667 14.7342V4.19425L13.3334 5.62258V16.1626ZM11.6667 16.0534V5.61342L8.33342 3.94675V14.3867L11.6667 16.0534ZM6.66675 14.3776V3.83758L3.33342 5.26591V15.8059L6.66675 14.3776Z" fill="white"/>
</svg>
