<svg width="20" height="20" viewBox="0 0 20 20" fill="none" xmlns="http://www.w3.org/2000/svg">
<path d="M1.66669 4.1665L7.50002 1.6665L12.5 4.1665L17.7525 1.91567C17.8159 1.88849 17.8851 1.87748 17.9538 1.88362C18.0225 1.88977 18.0886 1.91288 18.1462 1.95087C18.2038 1.98887 18.251 2.04057 18.2837 2.10134C18.3163 2.1621 18.3334 2.23002 18.3334 2.299V15.8332L12.5 18.3332L7.50002 15.8332L2.24752 18.084C2.18412 18.1112 2.11495 18.1222 2.04624 18.1161C1.97753 18.1099 1.91142 18.0868 1.85384 18.0488C1.79627 18.0108 1.74903 17.9591 1.71636 17.8983C1.68369 17.8376 1.66663 17.7697 1.66669 17.7007V4.1665ZM13.3334 16.1623L16.6667 14.734V4.194L13.3334 5.62234V16.1623ZM11.6667 16.0532V5.61317L8.33335 3.9465V14.3865L11.6667 16.0532ZM6.66669 14.3773V3.83734L3.33335 5.26567V15.8057L6.66669 14.3773Z" fill="#8F95B2"/>
</svg>
