<svg width="17" height="17" viewBox="0 0 17 17" fill="none" xmlns="http://www.w3.org/2000/svg">
<path d="M14.1506 9.40996C13.5075 10.0477 12.6882 10.4784 11.7983 10.6466C10.9083 10.8148 9.98839 10.7128 9.15688 10.3537L5.90688 14.1162C5.90063 14.1287 5.88813 14.135 5.88188 14.1412C5.69665 14.3272 5.47652 14.4747 5.23413 14.5754C4.99173 14.6761 4.73185 14.7279 4.46938 14.7279C4.20691 14.7279 3.94703 14.6761 3.70464 14.5754C3.46225 14.4747 3.24212 14.3272 3.05688 14.1412C2.87093 13.956 2.72339 13.7358 2.62271 13.4935C2.52204 13.2511 2.47021 12.9912 2.47021 12.7287C2.47021 12.4662 2.52204 12.2064 2.62271 11.964C2.72339 11.7216 2.87093 11.5014 3.05688 11.3162L3.08188 11.2912L6.84438 8.04121C6.48197 7.21563 6.37592 6.30022 6.53997 5.41365C6.70402 4.52707 7.13061 3.71022 7.76444 3.06899C8.39827 2.42775 9.2101 1.9917 10.0947 1.81735C10.9793 1.64301 11.8959 1.73842 12.7256 2.09121C12.8007 2.12273 12.8668 2.17233 12.918 2.23557C12.9693 2.29882 13.0041 2.37375 13.0194 2.45371C13.0352 2.53424 13.0309 2.61742 13.0069 2.69589C12.9829 2.77437 12.94 2.84574 12.8819 2.90371L10.4506 5.33496L10.6819 6.51621L11.8631 6.74746L14.2944 4.31621C14.3523 4.25812 14.4237 4.2152 14.5022 4.19122C14.5807 4.16724 14.6638 4.16294 14.7444 4.17871C14.8243 4.194 14.8993 4.22881 14.9625 4.28006C15.0258 4.33131 15.0754 4.39741 15.1069 4.47246C15.4597 5.29668 15.5572 6.20779 15.3867 7.088C15.2162 7.96821 14.7857 8.77705 14.1506 9.40996Z" fill="black"/>
</svg>
