<svg width="49" height="48" viewBox="0 0 49 48" fill="none" xmlns="http://www.w3.org/2000/svg">
<rect x="0.5" width="48" height="48" rx="10" fill="#C9D0FF"/>
<path fill-rule="evenodd" clip-rule="evenodd" d="M35 15.25C35 14.2875 34.2125 13.5 33.25 13.5H15.75C14.7875 13.5 14 14.2875 14 15.25V17H35V15.25ZM31.5 10H17.5C16.5375 10 15.75 10.7875 15.75 11.75H33.25C33.25 10.7875 32.4625 10 31.5 10ZM36.75 18.75H12.25C11.2875 18.75 10.5 19.5375 10.5 20.5V36.25C10.5 37.2125 11.2875 38 12.25 38H36.75C37.7125 38 38.5 37.2125 38.5 36.25V20.5C38.5 19.5375 37.7125 18.75 36.75 18.75ZM31.5 29.25C31.5 30.2125 30.7125 31 29.75 31H19.25C18.2875 31 17.5 30.2125 17.5 29.25V25.75H19.25V29.25H29.75V25.75H31.5V29.25Z" fill="#3750EB"/>
</svg>
