<svg width="27" height="17" viewBox="0 0 27 17" fill="none" xmlns="http://www.w3.org/2000/svg">
<path d="M17.1426 1.78613H9.83594V14.9132H17.1426V1.78613Z" fill="#FF5A00"/>
<path d="M10.3223 8.34968C10.3223 5.68265 11.5761 3.31555 13.5 1.78613C12.0841 0.672838 10.2979 0 8.34968 0C3.73439 0 0 3.73439 0 8.34968C0 12.965 3.73439 16.6994 8.34968 16.6994C10.2979 16.6994 12.0841 16.0265 13.5 14.9132C11.5734 13.4054 10.3223 11.0167 10.3223 8.34968Z" fill="#EB001B"/>
<path d="M27 8.34968C27 12.965 23.2656 16.6994 18.6503 16.6994C16.7021 16.6994 14.9159 16.0265 13.5 14.9132C15.4483 13.3811 16.6777 11.0167 16.6777 8.34968C16.6777 5.68265 15.4239 3.31555 13.5 1.78613C14.9132 0.672838 16.6994 0 18.6476 0C23.2656 0 27 3.75871 27 8.34968Z" fill="#F79E1B"/>
</svg>
