<svg width="20" height="20" viewBox="0 0 20 20" fill="none" xmlns="http://www.w3.org/2000/svg">
<path d="M6.66667 3.33329H17.5V4.99996H6.66667V3.33329ZM3.75 5.41663C3.41848 5.41663 3.10054 5.28493 2.86612 5.05051C2.6317 4.81609 2.5 4.49815 2.5 4.16663C2.5 3.83511 2.6317 3.51716 2.86612 3.28274C3.10054 3.04832 3.41848 2.91663 3.75 2.91663C4.08152 2.91663 4.39946 3.04832 4.63388 3.28274C4.8683 3.51716 5 3.83511 5 4.16663C5 4.49815 4.8683 4.81609 4.63388 5.05051C4.39946 5.28493 4.08152 5.41663 3.75 5.41663ZM3.75 11.25C3.41848 11.25 3.10054 11.1183 2.86612 10.8838C2.6317 10.6494 2.5 10.3315 2.5 9.99996C2.5 9.66844 2.6317 9.3505 2.86612 9.11608C3.10054 8.88166 3.41848 8.74996 3.75 8.74996C4.08152 8.74996 4.39946 8.88166 4.63388 9.11608C4.8683 9.3505 5 9.66844 5 9.99996C5 10.3315 4.8683 10.6494 4.63388 10.8838C4.39946 11.1183 4.08152 11.25 3.75 11.25ZM3.75 17C3.41848 17 3.10054 16.8683 2.86612 16.6338C2.6317 16.3994 2.5 16.0815 2.5 15.75C2.5 15.4184 2.6317 15.1005 2.86612 14.8661C3.10054 14.6317 3.41848 14.5 3.75 14.5C4.08152 14.5 4.39946 14.6317 4.63388 14.8661C4.8683 15.1005 5 15.4184 5 15.75C5 16.0815 4.8683 16.3994 4.63388 16.6338C4.39946 16.8683 4.08152 17 3.75 17ZM6.66667 9.16663H17.5V10.8333H6.66667V9.16663ZM6.66667 15H17.5V16.6666H6.66667V15Z" fill="#8F95B2"/>
</svg>
