<svg width="42" height="14" viewBox="0 0 42 14" fill="none" xmlns="http://www.w3.org/2000/svg">
<g clip-path="url(#clip0_71_1490)">
<path d="M18.2001 13.5879H14.7979L16.9259 0.429688H20.328L18.2001 13.5879Z" fill="#00579F"/>
<path d="M30.5331 0.751114C29.862 0.484877 28.7976 0.190918 27.4815 0.190918C24.1216 0.190918 21.7556 1.98258 21.7411 4.54411C21.7132 6.43401 23.4351 7.4837 24.7229 8.11385C26.0393 8.75777 26.4867 9.17806 26.4867 9.75202C26.4733 10.6335 25.4231 11.0399 24.4435 11.0399C23.0852 11.0399 22.3573 10.8304 21.2513 10.3399L20.8032 10.1297L20.3271 13.0834C21.1251 13.447 22.5953 13.7696 24.1216 13.7837C27.6916 13.7837 30.0157 12.0198 30.0432 9.29006C30.0568 7.79217 29.1476 6.64443 27.1874 5.70655C25.9974 5.1045 25.2686 4.69853 25.2686 4.08252C25.2826 3.52251 25.885 2.94892 27.2283 2.94892C28.3344 2.92083 29.147 3.18669 29.7627 3.45274L30.0704 3.59247L30.5331 0.751114Z" fill="#00579F"/>
<path d="M35.0559 8.9264C35.3361 8.17048 36.4143 5.24484 36.4143 5.24484C36.4001 5.27294 36.6939 4.47497 36.8619 3.9851L37.0997 5.11889C37.0997 5.11889 37.7439 8.26853 37.8839 8.9264C37.3521 8.9264 35.7279 8.9264 35.0559 8.9264ZM39.2556 0.429688H36.6239C35.8124 0.429688 35.1958 0.667459 34.8457 1.52143L29.792 13.5877H33.3619C33.3619 13.5877 33.9496 11.9637 34.076 11.6139C34.4676 11.6139 37.9404 11.6139 38.4442 11.6139C38.5419 12.0759 38.8502 13.5877 38.8502 13.5877H42.0004L39.2556 0.429688Z" fill="#00579F"/>
<path d="M11.9547 0.429688L8.62269 9.40231L8.25859 7.58256C7.64258 5.4828 5.71063 3.20146 3.55469 2.06711L6.60665 13.5739H10.2045L15.5523 0.429688H11.9547Z" fill="#00579F"/>
<path d="M5.52996 0.429688H0.0560008L0 0.695553C4.27003 1.78748 7.09799 4.41953 8.25987 7.58312L7.0699 1.53575C6.87398 0.695367 6.27193 0.457409 5.52996 0.429688Z" fill="#FAA61A"/>
</g>
<defs>
<clipPath id="clip0_71_1490">
<rect width="42" height="13.5928" fill="white" transform="translate(0 0.190918)"/>
</clipPath>
</defs>
</svg>
