<svg width="32" height="32" viewBox="0 0 32 32" fill="none" xmlns="http://www.w3.org/2000/svg">
<mask id="path-1-inside-1_497_27355" fill="white">
<path fill-rule="evenodd" clip-rule="evenodd" d="M22 7.88135C22 11.1951 19.3137 13.8813 16 13.8813C12.6863 13.8813 10 11.1951 10 7.88135C10 4.56764 12.6863 1.88135 16 1.88135C19.3137 1.88135 22 4.56764 22 7.88135ZM28 24.8812C28 31.8812 4 31.8812 4 24.8812C4 12.5062 28 12.6312 28 24.8812Z"/>
</mask>
<path d="M16 15.8813C20.4183 15.8813 24 12.2996 24 7.88135H20C20 10.0905 18.2091 11.8813 16 11.8813V15.8813ZM8 7.88135C8 12.2996 11.5817 15.8813 16 15.8813V11.8813C13.7909 11.8813 12 10.0905 12 7.88135H8ZM16 -0.118652C11.5817 -0.118652 8 3.46307 8 7.88135H12C12 5.67221 13.7909 3.88135 16 3.88135V-0.118652ZM24 7.88135C24 3.46307 20.4183 -0.118652 16 -0.118652V3.88135C18.2091 3.88135 20 5.67221 20 7.88135H24ZM26 24.8812C26 25.2916 25.6371 26.1333 23.5251 26.9547C21.5784 27.7117 18.8435 28.1312 16 28.1312C13.1565 28.1312 10.4216 27.7117 8.47489 26.9547C6.36294 26.1333 6 25.2916 6 24.8812H2C2 27.9707 4.63706 29.754 7.02511 30.6827C9.57839 31.6756 12.8435 32.1312 16 32.1312C19.1565 32.1312 22.4216 31.6756 24.9749 30.6827C27.3629 29.754 30 27.9707 30 24.8812H26ZM6 24.8812C6 22.5366 7.09631 20.8065 8.87819 19.5892C10.7215 18.33 13.3009 17.6398 15.9948 17.6468C18.6883 17.6538 21.2718 18.3573 23.1199 19.623C24.9096 20.8488 26 22.5743 26 24.8812H30C30 21.063 28.0904 18.1791 25.3801 16.3229C22.7282 14.5065 19.3117 13.6554 16.0052 13.6468C12.6991 13.6382 9.27852 14.4714 6.62181 16.2864C3.90369 18.1433 2 21.0382 2 24.8812H6Z" fill="#8F95B2" mask="url(#path-1-inside-1_497_27355)"/>
</svg>
