<svg width="48" height="45" viewBox="0 0 48 45" fill="#F7F7F7" xmlns="http://www.w3.org/2000/svg">
<rect y="0.432861" width="48" height="44" rx="6" />
<mask id="path-2-inside-1_417_24283" fill="white">
<path fill-rule="evenodd" clip-rule="evenodd" d="M30 14.3142C30 17.6279 27.3137 20.3142 24 20.3142C20.6863 20.3142 18 17.6279 18 14.3142C18 11.0005 20.6863 8.31421 24 8.31421C27.3137 8.31421 30 11.0005 30 14.3142ZM36 31.314C36 38.314 12 38.314 12 31.314C12 18.939 36 19.064 36 31.314Z"/>
</mask>
<path d="M24 22.3142C28.4183 22.3142 32 18.7325 32 14.3142H28C28 16.5233 26.2091 18.3142 24 18.3142V22.3142ZM16 14.3142C16 18.7325 19.5817 22.3142 24 22.3142V18.3142C21.7909 18.3142 20 16.5233 20 14.3142H16ZM24 6.31421C19.5817 6.31421 16 9.89593 16 14.3142H20C20 12.1051 21.7909 10.3142 24 10.3142V6.31421ZM32 14.3142C32 9.89593 28.4183 6.31421 24 6.31421V10.3142C26.2091 10.3142 28 12.1051 28 14.3142H32ZM34 31.314C34 31.7244 33.6371 32.5662 31.5251 33.3875C29.5784 34.1446 26.8435 34.564 24 34.564C21.1565 34.564 18.4216 34.1446 16.4749 33.3875C14.3629 32.5662 14 31.7244 14 31.314H10C10 34.4036 12.6371 36.1868 15.0251 37.1155C17.5784 38.1085 20.8435 38.564 24 38.564C27.1565 38.564 30.4216 38.1085 32.9749 37.1155C35.3629 36.1868 38 34.4036 38 31.314H34ZM14 31.314C14 28.9695 15.0963 27.2394 16.8782 26.0221C18.7215 24.7628 21.3009 24.0726 23.9948 24.0796C26.6883 24.0867 29.2718 24.7902 31.1199 26.0559C32.9096 27.2817 34 29.0072 34 31.314H38C38 27.4958 36.0904 24.612 33.3801 22.7557C30.7282 20.9394 27.3117 20.0883 24.0052 20.0797C20.6991 20.071 17.2785 20.9043 14.6218 22.7192C11.9037 24.5762 10 27.4711 10 31.314H14Z" fill="#8F95B2" mask="url(#path-2-inside-1_417_24283)"/>
</svg>
