<svg width="78" height="35" viewBox="0 0 78 35" fill="none" xmlns="http://www.w3.org/2000/svg">
<path d="M0 12.9832C0 8.46431 0 6.20486 1.36372 4.71454C2.72744 3.22423 4.97802 3.02418 9.47919 2.62407L38.0792 0.0818503C38.5393 0.0409519 38.7693 0.0205028 39 0.0205028C39.2307 0.0205028 39.4607 0.0409519 39.9208 0.0818501L68.5208 2.62407C73.022 3.02418 75.2726 3.22423 76.6363 4.71454C78 6.20486 78 8.46431 78 12.9832V21.6834C78 26.2024 78 28.4618 76.6363 29.9521C75.2726 31.4424 73.022 31.6425 68.5208 32.0426L39.9208 34.5848C39.4607 34.6257 39.2307 34.6462 39 34.6462C38.7693 34.6462 38.5393 34.6257 38.0792 34.5848L9.47918 32.0426C4.97802 31.6425 2.72744 31.4424 1.36372 29.9521C0 28.4618 0 26.2024 0 21.6834V12.9832Z" fill="#508BBF"/>
</svg>
