<svg width="44" height="45" viewBox="0 0 44 45" fill="none" xmlns="http://www.w3.org/2000/svg">
<path d="M15.0934 26.082L15.0454 25.962L17.5894 20.658L17.7334 21.558C17.6134 21.814 17.4654 22.042 17.2894 22.242C17.1214 22.442 16.9254 22.618 16.7014 22.77C16.4854 22.914 16.2614 23.026 16.0294 23.106C15.7974 23.178 15.5654 23.214 15.3334 23.214C14.8774 23.214 14.4574 23.094 14.0734 22.854C13.6894 22.606 13.3814 22.282 13.1494 21.882C12.9174 21.474 12.8014 21.03 12.8014 20.55C12.8014 19.982 12.9334 19.47 13.1974 19.014C13.4614 18.55 13.8174 18.186 14.2654 17.922C14.7214 17.65 15.2334 17.514 15.8014 17.514C16.2094 17.514 16.5934 17.59 16.9534 17.742C17.3214 17.886 17.6374 18.09 17.9014 18.354C18.1734 18.618 18.3854 18.922 18.5374 19.266C18.6974 19.61 18.7774 19.974 18.7774 20.358C18.7774 20.59 18.7534 20.83 18.7054 21.078C18.6654 21.318 18.5974 21.582 18.5014 21.87C18.4054 22.158 18.2814 22.474 18.1294 22.818C17.9854 23.162 17.8094 23.554 17.6014 23.994L16.5814 26.082H15.0934ZM15.6814 21.87C15.9694 21.87 16.2294 21.806 16.4614 21.678C16.6934 21.542 16.8734 21.366 17.0014 21.15C17.1294 20.934 17.1934 20.686 17.1934 20.406C17.1934 20.118 17.1294 19.858 17.0014 19.626C16.8734 19.394 16.6974 19.214 16.4734 19.086C16.2494 18.95 15.9934 18.882 15.7054 18.882C15.4334 18.882 15.1934 18.946 14.9854 19.074C14.7774 19.202 14.6094 19.382 14.4814 19.614C14.3614 19.838 14.3014 20.102 14.3014 20.406C14.3014 20.662 14.3614 20.902 14.4814 21.126C14.6094 21.35 14.7774 21.53 14.9854 21.666C15.2014 21.802 15.4334 21.87 15.6814 21.87ZM22.6003 26.082C22.1763 26.082 21.7803 26.006 21.4123 25.854C21.0523 25.702 20.7363 25.494 20.4643 25.23C20.2003 24.958 19.9923 24.642 19.8403 24.282C19.6883 23.922 19.6123 23.526 19.6123 23.094C19.6123 22.854 19.6403 22.598 19.6963 22.326C19.7603 22.054 19.8523 21.766 19.9723 21.462C20.1003 21.15 20.2483 20.826 20.4163 20.49C20.5843 20.154 20.7803 19.802 21.0043 19.434L22.1203 17.538H23.6083L23.6563 17.658L22.2283 20.01C21.9963 20.394 21.7923 20.758 21.6163 21.102C21.4403 21.438 21.2883 21.762 21.1603 22.074C21.0403 22.378 20.9403 22.674 20.8603 22.962L20.5363 21.87C20.6563 21.614 20.8043 21.382 20.9803 21.174C21.1563 20.966 21.3523 20.79 21.5683 20.646C21.7843 20.502 22.0083 20.394 22.2402 20.322C22.4803 20.25 22.7243 20.214 22.9723 20.214C23.4363 20.214 23.8643 20.342 24.2563 20.598C24.6483 20.846 24.9603 21.178 25.1923 21.594C25.4323 22.01 25.5523 22.466 25.5523 22.962C25.5523 23.562 25.4243 24.098 25.1683 24.57C24.9203 25.034 24.5723 25.402 24.1243 25.674C23.6763 25.946 23.1683 26.082 22.6003 26.082ZM22.6123 24.714C22.9003 24.714 23.1563 24.646 23.3803 24.51C23.6123 24.374 23.7923 24.186 23.9203 23.946C24.0483 23.698 24.1123 23.414 24.1123 23.094C24.1123 22.822 24.0443 22.57 23.9083 22.338C23.7803 22.098 23.6043 21.906 23.3803 21.762C23.1563 21.61 22.9043 21.534 22.6243 21.534C22.3203 21.534 22.0483 21.606 21.8083 21.75C21.5763 21.886 21.3923 22.074 21.2563 22.314C21.1283 22.546 21.0643 22.806 21.0643 23.094C21.0643 23.398 21.1283 23.674 21.2563 23.922C21.3923 24.162 21.5763 24.354 21.8083 24.498C22.0403 24.642 22.3083 24.714 22.6123 24.714ZM27.6694 26.082L33.2254 17.682H34.6534L29.0374 26.082H27.6694ZM28.3534 22.134C27.9774 22.134 27.6414 22.034 27.3454 21.834C27.0574 21.634 26.8294 21.362 26.6614 21.018C26.5014 20.674 26.4214 20.282 26.4214 19.842C26.4214 19.394 26.5014 18.998 26.6614 18.654C26.8294 18.302 27.0574 18.026 27.3454 17.826C27.6414 17.626 27.9814 17.526 28.3654 17.526C28.7414 17.526 29.0734 17.626 29.3614 17.826C29.6574 18.026 29.8854 18.302 30.0454 18.654C30.2134 18.998 30.2974 19.394 30.2974 19.842C30.2974 20.274 30.2134 20.666 30.0454 21.018C29.8774 21.362 29.6454 21.634 29.3494 21.834C29.0534 22.034 28.7214 22.134 28.3534 22.134ZM28.3654 21.114C28.5174 21.114 28.6494 21.062 28.7614 20.958C28.8734 20.854 28.9614 20.71 29.0254 20.526C29.0894 20.334 29.1214 20.106 29.1214 19.842C29.1214 19.578 29.0894 19.35 29.0254 19.158C28.9614 18.966 28.8734 18.818 28.7614 18.714C28.6494 18.61 28.5134 18.558 28.3534 18.558C28.2014 18.558 28.0654 18.614 27.9454 18.726C27.8334 18.83 27.7454 18.978 27.6814 19.17C27.6174 19.354 27.5854 19.578 27.5854 19.842C27.5854 20.106 27.6134 20.334 27.6694 20.526C27.7334 20.71 27.8254 20.854 27.9454 20.958C28.0654 21.062 28.2054 21.114 28.3654 21.114ZM34.0534 26.19C33.6774 26.19 33.3414 26.09 33.0454 25.89C32.7574 25.69 32.5294 25.418 32.3614 25.074C32.1934 24.73 32.1094 24.338 32.1094 23.898C32.1094 23.45 32.1894 23.054 32.3494 22.71C32.5174 22.358 32.7494 22.082 33.0454 21.882C33.3414 21.682 33.6774 21.582 34.0534 21.582C34.4374 21.582 34.7734 21.682 35.0614 21.882C35.3494 22.082 35.5734 22.358 35.7334 22.71C35.9014 23.054 35.9854 23.45 35.9854 23.898C35.9854 24.33 35.9014 24.722 35.7334 25.074C35.5654 25.418 35.3334 25.69 35.0374 25.89C34.7494 26.09 34.4214 26.19 34.0534 26.19ZM34.0534 25.182C34.2054 25.182 34.3374 25.13 34.4494 25.026C34.5694 24.914 34.6614 24.766 34.7254 24.582C34.7894 24.39 34.8214 24.162 34.8214 23.898C34.8214 23.642 34.7894 23.418 34.7254 23.226C34.6614 23.034 34.5694 22.886 34.4494 22.782C34.3374 22.67 34.2054 22.614 34.0534 22.614C33.8934 22.614 33.7534 22.666 33.6334 22.77C33.5214 22.874 33.4334 23.026 33.3694 23.226C33.3054 23.418 33.2734 23.642 33.2734 23.898C33.2734 24.162 33.3054 24.39 33.3694 24.582C33.4334 24.766 33.5214 24.914 33.6334 25.026C33.7534 25.13 33.8934 25.182 34.0534 25.182Z" fill="#3D8798"/>
<path d="M22 0.0820312C25.4718 0.0820313 28.8944 0.90371 31.9878 2.47989C35.0812 4.05606 37.7577 6.34199 39.7984 9.15075C41.8391 11.9595 43.186 15.2114 43.7291 18.6405C44.2723 22.0696 43.9961 25.5785 42.9232 28.8804C41.8504 32.1823 40.0113 35.1834 37.5564 37.6384C35.1014 40.0933 32.1003 41.9324 28.7984 43.0053C25.4965 44.0781 21.9875 44.3543 18.5584 43.8112C15.1294 43.2681 11.8775 41.9211 9.06873 39.8804L11.655 36.3207C13.902 37.9533 16.5035 39.0309 19.2468 39.4653C21.99 39.8998 24.7972 39.6789 27.4387 38.8206C30.0802 37.9623 32.4811 36.4911 34.4451 34.5271C36.409 32.5631 37.8803 30.1623 38.7386 27.5207C39.5969 24.8792 39.8178 22.0721 39.3833 19.3288C38.9488 16.5855 37.8713 13.984 36.2387 11.737C34.6061 9.49 32.465 7.66126 29.9902 6.40032C27.5155 5.13937 24.7775 4.48203 22 4.48203V0.0820312Z" fill="#E9ECF1"/>
<path d="M42.986 15.4799C44.6521 20.776 44.2542 26.5061 41.8722 31.5211C39.4901 36.5361 35.3001 40.465 30.1424 42.5198C24.9847 44.5746 19.2408 44.6034 14.0628 42.6003C8.88476 40.5973 4.65554 36.7106 2.22337 31.7197C-0.208807 26.7289 -0.664062 21.003 0.948912 15.6905C2.56189 10.378 6.1238 5.87184 10.9202 3.07574C15.7167 0.279642 21.393 -0.599582 26.8105 0.614413C32.2281 1.82841 36.9864 5.04584 40.131 9.6214L36.5048 12.1135C33.9891 8.45308 30.1825 5.87913 25.8484 4.90794C21.5144 3.93674 16.9734 4.64012 13.1362 6.877C9.29904 9.11387 6.44951 12.7188 5.15913 16.9688C3.86875 21.2188 4.23295 25.7995 6.17869 29.7922C8.12443 33.7849 11.5078 36.8942 15.6502 38.4967C19.7926 40.0991 24.3877 40.0761 28.5139 38.4322C32.64 36.7884 35.9921 33.6453 37.8978 29.6333C39.8034 25.6213 40.1217 21.0372 38.7888 16.8004L42.986 15.4799Z" fill="#2D9F69"/>
</svg>
