<svg width="120" height="16" viewBox="0 0 120 16" fill="none" xmlns="http://www.w3.org/2000/svg">
<path fill-rule="evenodd" clip-rule="evenodd" d="M8 0L10.5 5.3L16 6.1L12 10.2L12.9 16L8 13.3L3.1 16L4 10.2L0 6.1L5.5 5.3L8 0Z" fill="#3D8798"/>
<path fill-rule="evenodd" clip-rule="evenodd" d="M34 0L36.5 5.3L42 6.1L38 10.2L38.9 16L34 13.3L29.1 16L30 10.2L26 6.1L31.5 5.3L34 0Z" fill="#3D8798"/>
<path fill-rule="evenodd" clip-rule="evenodd" d="M60 0L62.5 5.3L68 6.1L64 10.2L64.9 16L60 13.3L55.1 16L56 10.2L52 6.1L57.5 5.3L60 0Z" fill="#3D8798"/>
<path fill-rule="evenodd" clip-rule="evenodd" d="M86 0L88.5 5.3L94 6.1L90 10.2L90.9 16L86 13.3L81.1 16L82 10.2L78 6.1L83.5 5.3L86 0Z" fill="#3D8798"/>
<path fill-rule="evenodd" clip-rule="evenodd" d="M112 0L114.5 5.3L120 6.1L116 10.2L116.9 16L112 13.3L107.1 16L108 10.2L104 6.1L109.5 5.3L112 0Z" fill="#E9ECF1"/>
</svg>
