<svg width="252" height="65" viewBox="0 0 252 65" fill="none" xmlns="http://www.w3.org/2000/svg">
<path d="M0 6C0 2.68629 2.68629 0 6 0H246C249.314 0 252 2.68629 252 6V59C252 62.3137 249.314 65 246 65H6.00001C2.6863 65 0 62.3137 0 59V6Z" fill="white"/>
<path d="M22.5497 15V12.208L22.6057 12.6L20.3417 9.4H21.3817L23.1097 11.88L22.9097 11.856L24.4697 9.4H25.4617L23.2937 12.688L23.4137 12.144V15H22.5497ZM27.3663 15.08C26.9557 15.08 26.5877 14.9867 26.2623 14.8C25.9423 14.608 25.689 14.3493 25.5023 14.024C25.3157 13.6933 25.2223 13.3173 25.2223 12.896C25.2223 12.4747 25.3157 12.1013 25.5023 11.776C25.689 11.4453 25.9423 11.1867 26.2623 11C26.5877 10.808 26.9557 10.712 27.3663 10.712C27.7717 10.712 28.1343 10.808 28.4543 11C28.7797 11.1867 29.0357 11.4453 29.2223 11.776C29.409 12.1013 29.5023 12.4747 29.5023 12.896C29.5023 13.3173 29.409 13.6933 29.2223 14.024C29.0357 14.3493 28.7797 14.608 28.4543 14.8C28.1343 14.9867 27.7717 15.08 27.3663 15.08ZM27.3663 14.328C27.617 14.328 27.841 14.2667 28.0383 14.144C28.2357 14.016 28.3903 13.8453 28.5023 13.632C28.6143 13.4133 28.6677 13.168 28.6623 12.896C28.6677 12.6187 28.6143 12.3733 28.5023 12.16C28.3903 11.9413 28.2357 11.7707 28.0383 11.648C27.841 11.5253 27.617 11.464 27.3663 11.464C27.1157 11.464 26.889 11.528 26.6863 11.656C26.489 11.7787 26.3343 11.9493 26.2223 12.168C26.1103 12.3813 26.057 12.624 26.0623 12.896C26.057 13.168 26.1103 13.4133 26.2223 13.632C26.3343 13.8453 26.489 14.016 26.6863 14.144C26.889 14.2667 27.1157 14.328 27.3663 14.328ZM31.8722 15.08C31.5736 15.08 31.3122 15.0107 31.0882 14.872C30.8696 14.7333 30.6989 14.5387 30.5762 14.288C30.4589 14.0373 30.4002 13.7387 30.4002 13.392V10.8H31.2242V13.168C31.2242 13.4133 31.2616 13.6267 31.3362 13.808C31.4162 13.984 31.5282 14.12 31.6722 14.216C31.8216 14.312 32.0002 14.36 32.2082 14.36C32.3629 14.36 32.5042 14.336 32.6322 14.288C32.7602 14.2347 32.8696 14.1627 32.9602 14.072C33.0562 13.9813 33.1309 13.872 33.1842 13.744C33.2376 13.616 33.2642 13.4773 33.2642 13.328V10.8H34.0882V15H33.2642V14.12L33.4082 14.024C33.3442 14.2213 33.2349 14.4 33.0802 14.56C32.9309 14.72 32.7522 14.848 32.5442 14.944C32.3362 15.0347 32.1122 15.08 31.8722 15.08ZM35.244 15V10.8H36.076V12.12L35.996 11.8C36.0546 11.5973 36.1533 11.4133 36.292 11.248C36.436 11.0827 36.5986 10.952 36.78 10.856C36.9666 10.76 37.1586 10.712 37.356 10.712C37.4466 10.712 37.532 10.72 37.612 10.736C37.6973 10.752 37.764 10.7707 37.812 10.792L37.596 11.688C37.532 11.6613 37.46 11.64 37.38 11.624C37.3053 11.6027 37.2306 11.592 37.156 11.592C37.012 11.592 36.8733 11.6213 36.74 11.68C36.612 11.7333 36.4973 11.8107 36.396 11.912C36.3 12.008 36.2226 12.1227 36.164 12.256C36.1053 12.384 36.076 12.5253 36.076 12.68V15H35.244ZM40.7127 16.76V10.8H41.5447V11.76L41.4167 11.688C41.4487 11.528 41.5394 11.376 41.6887 11.232C41.8381 11.0827 42.0194 10.9627 42.2327 10.872C42.4514 10.776 42.6754 10.728 42.9047 10.728C43.2834 10.728 43.6194 10.8213 43.9127 11.008C44.2061 11.1947 44.4381 11.4507 44.6087 11.776C44.7794 12.1013 44.8647 12.4747 44.8647 12.896C44.8647 13.312 44.7794 13.6853 44.6087 14.016C44.4434 14.3413 44.2141 14.6 43.9207 14.792C43.6274 14.9787 43.2967 15.072 42.9287 15.072C42.6834 15.072 42.4461 15.024 42.2167 14.928C41.9874 14.8267 41.7927 14.6987 41.6327 14.544C41.4727 14.3893 41.3741 14.2293 41.3367 14.064L41.5447 13.952V16.76H40.7127ZM42.7927 14.312C43.0381 14.312 43.2567 14.2507 43.4487 14.128C43.6407 14.0053 43.7927 13.8373 43.9047 13.624C44.0167 13.4107 44.0727 13.168 44.0727 12.896C44.0727 12.624 44.0167 12.384 43.9047 12.176C43.7981 11.9627 43.6487 11.7947 43.4567 11.672C43.2647 11.5493 43.0434 11.488 42.7927 11.488C42.5421 11.488 42.3207 11.5493 42.1287 11.672C41.9367 11.7893 41.7847 11.9547 41.6727 12.168C41.5607 12.3813 41.5047 12.624 41.5047 12.896C41.5047 13.168 41.5607 13.4107 41.6727 13.624C41.7847 13.8373 41.9367 14.0053 42.1287 14.128C42.3207 14.2507 42.5421 14.312 42.7927 14.312ZM45.7596 15V10.8H46.5916V12.12L46.5116 11.8C46.5703 11.5973 46.6689 11.4133 46.8076 11.248C46.9516 11.0827 47.1143 10.952 47.2956 10.856C47.4823 10.76 47.6743 10.712 47.8716 10.712C47.9623 10.712 48.0476 10.72 48.1276 10.736C48.2129 10.752 48.2796 10.7707 48.3276 10.792L48.1116 11.688C48.0476 11.6613 47.9756 11.64 47.8956 11.624C47.8209 11.6027 47.7463 11.592 47.6716 11.592C47.5276 11.592 47.3889 11.6213 47.2556 11.68C47.1276 11.7333 47.0129 11.8107 46.9116 11.912C46.8156 12.008 46.7383 12.1227 46.6796 12.256C46.6209 12.384 46.5916 12.5253 46.5916 12.68V15H45.7596ZM50.6945 15.08C50.2838 15.08 49.9158 14.9867 49.5905 14.8C49.2705 14.608 49.0171 14.3493 48.8305 14.024C48.6438 13.6933 48.5505 13.3173 48.5505 12.896C48.5505 12.4747 48.6438 12.1013 48.8305 11.776C49.0171 11.4453 49.2705 11.1867 49.5905 11C49.9158 10.808 50.2838 10.712 50.6945 10.712C51.0998 10.712 51.4625 10.808 51.7825 11C52.1078 11.1867 52.3638 11.4453 52.5505 11.776C52.7371 12.1013 52.8305 12.4747 52.8305 12.896C52.8305 13.3173 52.7371 13.6933 52.5505 14.024C52.3638 14.3493 52.1078 14.608 51.7825 14.8C51.4625 14.9867 51.0998 15.08 50.6945 15.08ZM50.6945 14.328C50.9451 14.328 51.1691 14.2667 51.3665 14.144C51.5638 14.016 51.7185 13.8453 51.8305 13.632C51.9425 13.4133 51.9958 13.168 51.9905 12.896C51.9958 12.6187 51.9425 12.3733 51.8305 12.16C51.7185 11.9413 51.5638 11.7707 51.3665 11.648C51.1691 11.5253 50.9451 11.464 50.6945 11.464C50.4438 11.464 50.2171 11.528 50.0145 11.656C49.8171 11.7787 49.6625 11.9493 49.5505 12.168C49.4385 12.3813 49.3851 12.624 49.3905 12.896C49.3851 13.168 49.4385 13.4133 49.5505 13.632C49.6625 13.8453 49.8171 14.016 50.0145 14.144C50.2171 14.2667 50.4438 14.328 50.6945 14.328ZM55.6083 16.84C55.3097 16.84 55.011 16.792 54.7123 16.696C54.419 16.6053 54.1817 16.4853 54.0003 16.336L54.3043 15.696C54.411 15.776 54.5363 15.8453 54.6803 15.904C54.8243 15.968 54.9763 16.016 55.1363 16.048C55.2963 16.0853 55.4537 16.104 55.6083 16.104C55.9017 16.104 56.147 16.056 56.3443 15.96C56.5417 15.864 56.691 15.7227 56.7923 15.536C56.8937 15.3493 56.9443 15.1173 56.9443 14.84V14.032L57.0323 14.088C57.0057 14.2533 56.9177 14.4133 56.7683 14.568C56.6243 14.7173 56.443 14.84 56.2243 14.936C56.0057 15.032 55.7817 15.08 55.5523 15.08C55.1523 15.08 54.795 14.9867 54.4803 14.8C54.171 14.608 53.9257 14.3493 53.7443 14.024C53.563 13.6933 53.4723 13.3173 53.4723 12.896C53.4723 12.4747 53.5603 12.1013 53.7363 11.776C53.9177 11.4453 54.163 11.1867 54.4723 11C54.787 10.808 55.139 10.712 55.5283 10.712C55.6883 10.712 55.843 10.7333 55.9923 10.776C56.1417 10.8133 56.2803 10.8693 56.4083 10.944C56.5363 11.0133 56.651 11.0907 56.7523 11.176C56.8537 11.2613 56.9363 11.352 57.0003 11.448C57.0643 11.544 57.1043 11.6347 57.1203 11.72L56.9443 11.784V10.8H57.7683V14.744C57.7683 15.08 57.7177 15.376 57.6163 15.632C57.5203 15.8933 57.379 16.112 57.1923 16.288C57.0057 16.4693 56.779 16.6053 56.5123 16.696C56.2457 16.792 55.9443 16.84 55.6083 16.84ZM55.6403 14.32C55.9017 14.32 56.1337 14.2587 56.3363 14.136C56.539 14.0133 56.6963 13.8453 56.8083 13.632C56.9203 13.4187 56.9763 13.1733 56.9763 12.896C56.9763 12.6187 56.9177 12.3733 56.8003 12.16C56.6883 11.9413 56.531 11.7707 56.3283 11.648C56.131 11.5253 55.9017 11.464 55.6403 11.464C55.3843 11.464 55.155 11.528 54.9523 11.656C54.755 11.7787 54.5977 11.9493 54.4803 12.168C54.3683 12.3813 54.3123 12.624 54.3123 12.896C54.3123 13.168 54.3683 13.4133 54.4803 13.632C54.5977 13.8453 54.755 14.0133 54.9523 14.136C55.155 14.2587 55.3843 14.32 55.6403 14.32ZM58.9237 15V10.8H59.7557V12.12L59.6757 11.8C59.7343 11.5973 59.833 11.4133 59.9717 11.248C60.1157 11.0827 60.2783 10.952 60.4597 10.856C60.6463 10.76 60.8383 10.712 61.0357 10.712C61.1263 10.712 61.2117 10.72 61.2917 10.736C61.377 10.752 61.4437 10.7707 61.4917 10.792L61.2757 11.688C61.2117 11.6613 61.1397 11.64 61.0597 11.624C60.985 11.6027 60.9103 11.592 60.8357 11.592C60.6917 11.592 60.553 11.6213 60.4197 11.68C60.2917 11.7333 60.177 11.8107 60.0757 11.912C59.9797 12.008 59.9023 12.1227 59.8437 12.256C59.785 12.384 59.7557 12.5253 59.7557 12.68V15H58.9237ZM63.9305 15.08C63.4985 15.08 63.1145 14.9893 62.7785 14.808C62.4479 14.6213 62.1865 14.368 61.9945 14.048C61.8079 13.728 61.7145 13.36 61.7145 12.944C61.7145 12.6133 61.7679 12.312 61.8745 12.04C61.9812 11.768 62.1279 11.5333 62.3145 11.336C62.5065 11.1333 62.7332 10.9787 62.9945 10.872C63.2612 10.76 63.5492 10.704 63.8585 10.704C64.1305 10.704 64.3839 10.7573 64.6185 10.864C64.8532 10.9653 65.0559 11.1067 65.2265 11.288C65.4025 11.4693 65.5359 11.6853 65.6265 11.936C65.7225 12.1813 65.7679 12.4507 65.7625 12.744L65.7545 13.096H62.3225L62.1385 12.44H65.0425L64.9225 12.576V12.384C64.9065 12.208 64.8479 12.0507 64.7465 11.912C64.6452 11.7733 64.5172 11.664 64.3625 11.584C64.2079 11.504 64.0399 11.464 63.8585 11.464C63.5705 11.464 63.3279 11.52 63.1305 11.632C62.9332 11.7387 62.7839 11.8987 62.6825 12.112C62.5812 12.32 62.5305 12.5787 62.5305 12.888C62.5305 13.1813 62.5919 13.4373 62.7145 13.656C62.8372 13.8693 63.0105 14.0347 63.2345 14.152C63.4585 14.2693 63.7172 14.328 64.0105 14.328C64.2185 14.328 64.4105 14.2933 64.5865 14.224C64.7679 14.1547 64.9625 14.0293 65.1705 13.848L65.5865 14.432C65.4585 14.56 65.3012 14.672 65.1145 14.768C64.9332 14.864 64.7385 14.9413 64.5305 15C64.3279 15.0533 64.1279 15.08 63.9305 15.08ZM68.058 15.08C67.706 15.08 67.3887 15.0187 67.106 14.896C66.8234 14.7733 66.5887 14.592 66.402 14.352L66.962 13.872C67.122 14.0587 67.2954 14.1947 67.482 14.28C67.674 14.36 67.89 14.4 68.13 14.4C68.226 14.4 68.314 14.3893 68.394 14.368C68.4794 14.3413 68.5514 14.304 68.61 14.256C68.674 14.208 68.722 14.152 68.754 14.088C68.786 14.0187 68.802 13.944 68.802 13.864C68.802 13.7253 68.7514 13.6133 68.65 13.528C68.5967 13.4907 68.5114 13.4507 68.394 13.408C68.282 13.36 68.1354 13.312 67.954 13.264C67.6447 13.184 67.3914 13.0933 67.194 12.992C66.9967 12.8907 66.8447 12.776 66.738 12.648C66.658 12.5467 66.5994 12.4373 66.562 12.32C66.5247 12.1973 66.506 12.064 66.506 11.92C66.506 11.744 66.5434 11.584 66.618 11.44C66.698 11.2907 66.8047 11.1627 66.938 11.056C67.0767 10.944 67.2367 10.8587 67.418 10.8C67.6047 10.7413 67.802 10.712 68.01 10.712C68.2074 10.712 68.402 10.7387 68.594 10.792C68.7914 10.8453 68.9727 10.9227 69.138 11.024C69.3034 11.1253 69.442 11.2453 69.554 11.384L69.082 11.904C68.9807 11.8027 68.8687 11.7147 68.746 11.64C68.6287 11.56 68.5087 11.4987 68.386 11.456C68.2634 11.4133 68.1514 11.392 68.05 11.392C67.938 11.392 67.8367 11.4027 67.746 11.424C67.6554 11.4453 67.578 11.4773 67.514 11.52C67.4554 11.5627 67.41 11.616 67.378 11.68C67.346 11.744 67.33 11.816 67.33 11.896C67.3354 11.9653 67.3514 12.032 67.378 12.096C67.41 12.1547 67.4527 12.2053 67.506 12.248C67.5647 12.2907 67.6527 12.336 67.77 12.384C67.8874 12.432 68.0367 12.4773 68.218 12.52C68.4847 12.5893 68.7034 12.6667 68.874 12.752C69.05 12.832 69.1887 12.9253 69.29 13.032C69.3967 13.1333 69.4714 13.2507 69.514 13.384C69.5567 13.5173 69.578 13.6667 69.578 13.832C69.578 14.072 69.5087 14.288 69.37 14.48C69.2367 14.6667 69.0554 14.8133 68.826 14.92C68.5967 15.0267 68.3407 15.08 68.058 15.08ZM71.8862 15.08C71.5342 15.08 71.2168 15.0187 70.9342 14.896C70.6515 14.7733 70.4168 14.592 70.2302 14.352L70.7902 13.872C70.9502 14.0587 71.1235 14.1947 71.3102 14.28C71.5022 14.36 71.7182 14.4 71.9582 14.4C72.0542 14.4 72.1422 14.3893 72.2222 14.368C72.3075 14.3413 72.3795 14.304 72.4382 14.256C72.5022 14.208 72.5502 14.152 72.5822 14.088C72.6142 14.0187 72.6302 13.944 72.6302 13.864C72.6302 13.7253 72.5795 13.6133 72.4782 13.528C72.4248 13.4907 72.3395 13.4507 72.2222 13.408C72.1102 13.36 71.9635 13.312 71.7822 13.264C71.4728 13.184 71.2195 13.0933 71.0222 12.992C70.8248 12.8907 70.6728 12.776 70.5662 12.648C70.4862 12.5467 70.4275 12.4373 70.3902 12.32C70.3528 12.1973 70.3342 12.064 70.3342 11.92C70.3342 11.744 70.3715 11.584 70.4462 11.44C70.5262 11.2907 70.6328 11.1627 70.7662 11.056C70.9048 10.944 71.0648 10.8587 71.2462 10.8C71.4328 10.7413 71.6302 10.712 71.8382 10.712C72.0355 10.712 72.2302 10.7387 72.4222 10.792C72.6195 10.8453 72.8008 10.9227 72.9662 11.024C73.1315 11.1253 73.2702 11.2453 73.3822 11.384L72.9102 11.904C72.8088 11.8027 72.6968 11.7147 72.5742 11.64C72.4568 11.56 72.3368 11.4987 72.2142 11.456C72.0915 11.4133 71.9795 11.392 71.8782 11.392C71.7662 11.392 71.6648 11.4027 71.5742 11.424C71.4835 11.4453 71.4062 11.4773 71.3422 11.52C71.2835 11.5627 71.2382 11.616 71.2062 11.68C71.1742 11.744 71.1582 11.816 71.1582 11.896C71.1635 11.9653 71.1795 12.032 71.2062 12.096C71.2382 12.1547 71.2808 12.2053 71.3342 12.248C71.3928 12.2907 71.4808 12.336 71.5982 12.384C71.7155 12.432 71.8648 12.4773 72.0462 12.52C72.3128 12.5893 72.5315 12.6667 72.7022 12.752C72.8782 12.832 73.0168 12.9253 73.1182 13.032C73.2248 13.1333 73.2995 13.2507 73.3422 13.384C73.3848 13.5173 73.4062 13.6667 73.4062 13.832C73.4062 14.072 73.3368 14.288 73.1982 14.48C73.0648 14.6667 72.8835 14.8133 72.6542 14.92C72.4248 15.0267 72.1688 15.08 71.8862 15.08Z" fill="#515F7D"/>
<path d="M24.7479 33.14C23.9546 33.14 23.2732 32.9393 22.7039 32.538C22.1439 32.1273 21.7099 31.5487 21.4019 30.802C21.1032 30.046 20.9539 29.1453 20.9539 28.1C20.9539 27.0547 21.1032 26.1587 21.4019 25.412C21.7099 24.656 22.1439 24.0773 22.7039 23.676C23.2732 23.2653 23.9546 23.06 24.7479 23.06C25.5412 23.06 26.2226 23.2653 26.7919 23.676C27.3612 24.0773 27.7952 24.656 28.0939 25.412C28.4019 26.1587 28.5559 27.0547 28.5559 28.1C28.5559 29.1453 28.4019 30.046 28.0939 30.802C27.7952 31.5487 27.3612 32.1273 26.7919 32.538C26.2226 32.9393 25.5412 33.14 24.7479 33.14ZM24.7479 31.544C25.4012 31.544 25.9052 31.2453 26.2599 30.648C26.6239 30.0413 26.8059 29.192 26.8059 28.1C26.8059 26.9987 26.6239 26.1447 26.2599 25.538C25.9052 24.9313 25.4012 24.628 24.7479 24.628C24.0946 24.628 23.5859 24.9313 23.2219 25.538C22.8672 26.1447 22.6899 26.9987 22.6899 28.1C22.6899 29.192 22.8672 30.0413 23.2219 30.648C23.5859 31.2453 24.0946 31.544 24.7479 31.544ZM31.1859 33L37.6679 23.2H39.3339L32.7819 33H31.1859ZM31.9839 28.394C31.5453 28.394 31.1533 28.2773 30.8079 28.044C30.4719 27.8107 30.2059 27.4933 30.0099 27.092C29.8233 26.6907 29.7299 26.2333 29.7299 25.72C29.7299 25.1973 29.8233 24.7353 30.0099 24.334C30.2059 23.9233 30.4719 23.6013 30.8079 23.368C31.1533 23.1347 31.5499 23.018 31.9979 23.018C32.4366 23.018 32.8239 23.1347 33.1599 23.368C33.5053 23.6013 33.7713 23.9233 33.9579 24.334C34.1539 24.7353 34.2519 25.1973 34.2519 25.72C34.2519 26.224 34.1539 26.6813 33.9579 27.092C33.7619 27.4933 33.4913 27.8107 33.1459 28.044C32.8006 28.2773 32.4133 28.394 31.9839 28.394ZM31.9979 27.204C32.1753 27.204 32.3293 27.1433 32.4599 27.022C32.5906 26.9007 32.6933 26.7327 32.7679 26.518C32.8426 26.294 32.8799 26.028 32.8799 25.72C32.8799 25.412 32.8426 25.146 32.7679 24.922C32.6933 24.698 32.5906 24.5253 32.4599 24.404C32.3293 24.2827 32.1706 24.222 31.9839 24.222C31.8066 24.222 31.6479 24.2873 31.5079 24.418C31.3773 24.5393 31.2746 24.712 31.1999 24.936C31.1253 25.1507 31.0879 25.412 31.0879 25.72C31.0879 26.028 31.1206 26.294 31.1859 26.518C31.2606 26.7327 31.3679 26.9007 31.5079 27.022C31.6479 27.1433 31.8113 27.204 31.9979 27.204ZM38.6339 33.126C38.1953 33.126 37.8033 33.0093 37.4579 32.776C37.1219 32.5427 36.8559 32.2253 36.6599 31.824C36.4639 31.4227 36.3659 30.9653 36.3659 30.452C36.3659 29.9293 36.4593 29.4673 36.6459 29.066C36.8419 28.6553 37.1126 28.3333 37.4579 28.1C37.8033 27.8667 38.1953 27.75 38.6339 27.75C39.0819 27.75 39.4739 27.8667 39.8099 28.1C40.1459 28.3333 40.4073 28.6553 40.5939 29.066C40.7899 29.4673 40.8879 29.9293 40.8879 30.452C40.8879 30.956 40.7899 31.4133 40.5939 31.824C40.3979 32.2253 40.1273 32.5427 39.7819 32.776C39.4459 33.0093 39.0633 33.126 38.6339 33.126ZM38.6339 31.95C38.8113 31.95 38.9653 31.8893 39.0959 31.768C39.2359 31.6373 39.3433 31.4647 39.4179 31.25C39.4926 31.026 39.5299 30.76 39.5299 30.452C39.5299 30.1533 39.4926 29.892 39.4179 29.668C39.3433 29.444 39.2359 29.2713 39.0959 29.15C38.9653 29.0193 38.8113 28.954 38.6339 28.954C38.4473 28.954 38.2839 29.0147 38.1439 29.136C38.0133 29.2573 37.9106 29.4347 37.8359 29.668C37.7613 29.892 37.7239 30.1533 37.7239 30.452C37.7239 30.76 37.7613 31.026 37.8359 31.25C37.9106 31.4647 38.0133 31.6373 38.1439 31.768C38.2839 31.8893 38.4473 31.95 38.6339 31.95ZM47.4779 33V23.746H49.1999V33H47.4779ZM46.0219 27.218V25.622H50.8099V27.218H46.0219ZM55.4269 33.14C54.6896 33.14 54.0316 32.9767 53.4529 32.65C52.8743 32.314 52.4169 31.8567 52.0809 31.278C51.7449 30.6993 51.5769 30.0413 51.5769 29.304C51.5769 28.5667 51.7449 27.9087 52.0809 27.33C52.4169 26.7513 52.8743 26.2987 53.4529 25.972C54.0316 25.636 54.6896 25.468 55.4269 25.468C56.1549 25.468 56.8083 25.636 57.3869 25.972C57.9656 26.2987 58.4183 26.7513 58.7449 27.33C59.0809 27.9087 59.2489 28.5667 59.2489 29.304C59.2489 30.0413 59.0809 30.6993 58.7449 31.278C58.4183 31.8567 57.9656 32.314 57.3869 32.65C56.8083 32.9767 56.1549 33.14 55.4269 33.14ZM55.4269 31.614C55.8283 31.614 56.1829 31.5113 56.4909 31.306C56.8083 31.1007 57.0556 30.8253 57.2329 30.48C57.4196 30.1347 57.5083 29.7427 57.4989 29.304C57.5083 28.856 57.4196 28.4593 57.2329 28.114C57.0556 27.7687 56.8083 27.498 56.4909 27.302C56.1829 27.0967 55.8283 26.994 55.4269 26.994C55.0256 26.994 54.6616 27.0967 54.3349 27.302C54.0176 27.498 53.7703 27.7733 53.5929 28.128C53.4156 28.4733 53.3269 28.8653 53.3269 29.304C53.3269 29.7427 53.4156 30.1347 53.5929 30.48C53.7703 30.8253 54.0176 31.1007 54.3349 31.306C54.6616 31.5113 55.0256 31.614 55.4269 31.614ZM68.0685 33.14C67.3778 33.14 66.7572 32.972 66.2065 32.636C65.6558 32.3 65.2218 31.8427 64.9045 31.264C64.5872 30.6853 64.4285 30.032 64.4285 29.304C64.4285 28.576 64.5872 27.9227 64.9045 27.344C65.2218 26.7653 65.6558 26.308 66.2065 25.972C66.7572 25.636 67.3778 25.468 68.0685 25.468C68.7312 25.468 69.3332 25.594 69.8745 25.846C70.4158 26.098 70.8358 26.448 71.1345 26.896L70.1825 28.044C70.0425 27.848 69.8652 27.6707 69.6505 27.512C69.4358 27.3533 69.2072 27.2273 68.9645 27.134C68.7218 27.0407 68.4792 26.994 68.2365 26.994C67.8258 26.994 67.4572 27.0967 67.1305 27.302C66.8132 27.498 66.5612 27.7733 66.3745 28.128C66.1878 28.4733 66.0945 28.8653 66.0945 29.304C66.0945 29.7427 66.1878 30.1347 66.3745 30.48C66.5705 30.8253 66.8318 31.1007 67.1585 31.306C67.4852 31.5113 67.8492 31.614 68.2505 31.614C68.4932 31.614 68.7265 31.5767 68.9505 31.502C69.1838 31.418 69.4032 31.3013 69.6085 31.152C69.8138 31.0027 70.0052 30.816 70.1825 30.592L71.1345 31.754C70.8172 32.1647 70.3785 32.5007 69.8185 32.762C69.2678 33.014 68.6845 33.14 68.0685 33.14ZM75.8254 33.14C75.088 33.14 74.43 32.9767 73.8514 32.65C73.2727 32.314 72.8154 31.8567 72.4794 31.278C72.1434 30.6993 71.9754 30.0413 71.9754 29.304C71.9754 28.5667 72.1434 27.9087 72.4794 27.33C72.8154 26.7513 73.2727 26.2987 73.8514 25.972C74.43 25.636 75.088 25.468 75.8254 25.468C76.5534 25.468 77.2067 25.636 77.7854 25.972C78.364 26.2987 78.8167 26.7513 79.1434 27.33C79.4794 27.9087 79.6474 28.5667 79.6474 29.304C79.6474 30.0413 79.4794 30.6993 79.1434 31.278C78.8167 31.8567 78.364 32.314 77.7854 32.65C77.2067 32.9767 76.5534 33.14 75.8254 33.14ZM75.8254 31.614C76.2267 31.614 76.5814 31.5113 76.8894 31.306C77.2067 31.1007 77.454 30.8253 77.6314 30.48C77.818 30.1347 77.9067 29.7427 77.8974 29.304C77.9067 28.856 77.818 28.4593 77.6314 28.114C77.454 27.7687 77.2067 27.498 76.8894 27.302C76.5814 27.0967 76.2267 26.994 75.8254 26.994C75.424 26.994 75.06 27.0967 74.7334 27.302C74.416 27.498 74.1687 27.7733 73.9914 28.128C73.814 28.4733 73.7254 28.8653 73.7254 29.304C73.7254 29.7427 73.814 30.1347 73.9914 30.48C74.1687 30.8253 74.416 31.1007 74.7334 31.306C75.06 31.5113 75.424 31.614 75.8254 31.614ZM81.1597 33V25.622H82.8537L82.8817 27.106L82.6017 27.218C82.6857 26.9753 82.8117 26.7513 82.9797 26.546C83.1477 26.3313 83.3484 26.1493 83.5817 26C83.815 25.8413 84.0624 25.72 84.3237 25.636C84.585 25.5427 84.851 25.496 85.1217 25.496C85.523 25.496 85.8777 25.5613 86.1857 25.692C86.503 25.8133 86.7644 26.0093 86.9697 26.28C87.1844 26.5507 87.343 26.896 87.4457 27.316L87.1797 27.26L87.2917 27.036C87.3944 26.812 87.539 26.6113 87.7257 26.434C87.9124 26.2473 88.1224 26.084 88.3557 25.944C88.589 25.7947 88.8317 25.6827 89.0837 25.608C89.345 25.5333 89.6017 25.496 89.8537 25.496C90.4137 25.496 90.8804 25.608 91.2537 25.832C91.627 26.056 91.907 26.3967 92.0937 26.854C92.2804 27.3113 92.3737 27.876 92.3737 28.548V33H90.6377V28.66C90.6377 28.2867 90.5864 27.9787 90.4837 27.736C90.3904 27.4933 90.241 27.316 90.0357 27.204C89.8397 27.0827 89.5924 27.022 89.2937 27.022C89.0604 27.022 88.8364 27.064 88.6217 27.148C88.4164 27.2227 88.239 27.3347 88.0897 27.484C87.9404 27.624 87.8237 27.7873 87.7397 27.974C87.6557 28.1607 87.6137 28.366 87.6137 28.59V33H85.8777V28.646C85.8777 28.2913 85.8264 27.9973 85.7237 27.764C85.621 27.5213 85.4717 27.3393 85.2757 27.218C85.0797 27.0873 84.8417 27.022 84.5617 27.022C84.3284 27.022 84.109 27.064 83.9037 27.148C83.6984 27.2227 83.521 27.33 83.3717 27.47C83.2224 27.61 83.1057 27.7733 83.0217 27.96C82.9377 28.1467 82.8957 28.352 82.8957 28.576V33H81.1597ZM94.2853 36.08V25.622H95.9793L96.0073 27.302L95.7133 27.176C95.7693 26.8867 95.928 26.616 96.1893 26.364C96.4507 26.1027 96.768 25.8927 97.1413 25.734C97.524 25.5753 97.9207 25.496 98.3313 25.496C98.9847 25.496 99.5633 25.6593 100.067 25.986C100.581 26.3127 100.982 26.7607 101.271 27.33C101.57 27.8993 101.719 28.5573 101.719 29.304C101.719 30.0413 101.57 30.6993 101.271 31.278C100.982 31.8473 100.581 32.3 100.067 32.636C99.5633 32.9627 98.994 33.126 98.3593 33.126C97.93 33.126 97.5147 33.042 97.1133 32.874C96.7213 32.706 96.3853 32.4867 96.1053 32.216C95.8347 31.9453 95.6667 31.6607 95.6013 31.362L96.0213 31.166V36.08H94.2853ZM98.0093 31.6C98.4013 31.6 98.7513 31.502 99.0593 31.306C99.3673 31.11 99.6053 30.8393 99.7733 30.494C99.9507 30.1487 100.039 29.752 100.039 29.304C100.039 28.856 99.9553 28.464 99.7873 28.128C99.6193 27.7827 99.3813 27.512 99.0733 27.316C98.7653 27.12 98.4107 27.022 98.0093 27.022C97.5987 27.022 97.2393 27.12 96.9313 27.316C96.6327 27.5027 96.3947 27.7687 96.2173 28.114C96.04 28.4593 95.9513 28.856 95.9513 29.304C95.9513 29.752 96.04 30.1487 96.2173 30.494C96.3947 30.8393 96.6327 31.11 96.9313 31.306C97.2393 31.502 97.5987 31.6 98.0093 31.6ZM103.268 33V22.64H105.004V33H103.268ZM110.349 33.14C109.574 33.14 108.888 32.9767 108.291 32.65C107.703 32.3233 107.241 31.88 106.905 31.32C106.578 30.7507 106.415 30.102 106.415 29.374C106.415 28.7953 106.508 28.268 106.695 27.792C106.881 27.316 107.138 26.9053 107.465 26.56C107.801 26.2053 108.197 25.9347 108.655 25.748C109.121 25.552 109.63 25.454 110.181 25.454C110.666 25.454 111.119 25.5473 111.539 25.734C111.959 25.9207 112.323 26.1773 112.631 26.504C112.939 26.8213 113.172 27.204 113.331 27.652C113.499 28.0907 113.578 28.5713 113.569 29.094L113.555 29.696H107.577L107.255 28.52H112.113L111.889 28.758V28.45C111.861 28.1607 111.767 27.9087 111.609 27.694C111.45 27.47 111.245 27.2973 110.993 27.176C110.75 27.0453 110.479 26.98 110.181 26.98C109.723 26.98 109.336 27.0687 109.019 27.246C108.711 27.4233 108.477 27.68 108.319 28.016C108.16 28.3427 108.081 28.7533 108.081 29.248C108.081 29.724 108.179 30.1393 108.375 30.494C108.58 30.8487 108.865 31.124 109.229 31.32C109.602 31.5067 110.036 31.6 110.531 31.6C110.876 31.6 111.193 31.544 111.483 31.432C111.772 31.32 112.085 31.1193 112.421 30.83L113.275 32.02C113.023 32.2533 112.733 32.454 112.407 32.622C112.089 32.7807 111.753 32.9067 111.399 33C111.044 33.0933 110.694 33.14 110.349 33.14ZM115.892 33V23.746H117.614V33H115.892ZM114.436 27.218V25.622H119.224V27.218H114.436ZM123.925 33.14C123.15 33.14 122.464 32.9767 121.867 32.65C121.279 32.3233 120.817 31.88 120.481 31.32C120.154 30.7507 119.991 30.102 119.991 29.374C119.991 28.7953 120.084 28.268 120.271 27.792C120.458 27.316 120.714 26.9053 121.041 26.56C121.377 26.2053 121.774 25.9347 122.231 25.748C122.698 25.552 123.206 25.454 123.757 25.454C124.242 25.454 124.695 25.5473 125.115 25.734C125.535 25.9207 125.899 26.1773 126.207 26.504C126.515 26.8213 126.748 27.204 126.907 27.652C127.075 28.0907 127.154 28.5713 127.145 29.094L127.131 29.696H121.153L120.831 28.52H125.689L125.465 28.758V28.45C125.437 28.1607 125.344 27.9087 125.185 27.694C125.026 27.47 124.821 27.2973 124.569 27.176C124.326 27.0453 124.056 26.98 123.757 26.98C123.3 26.98 122.912 27.0687 122.595 27.246C122.287 27.4233 122.054 27.68 121.895 28.016C121.736 28.3427 121.657 28.7533 121.657 29.248C121.657 29.724 121.755 30.1393 121.951 30.494C122.156 30.8487 122.441 31.124 122.805 31.32C123.178 31.5067 123.612 31.6 124.107 31.6C124.452 31.6 124.77 31.544 125.059 31.432C125.348 31.32 125.661 31.1193 125.997 30.83L126.851 32.02C126.599 32.2533 126.31 32.454 125.983 32.622C125.666 32.7807 125.33 32.9067 124.975 33C124.62 33.0933 124.27 33.14 123.925 33.14Z" fill="#3D8798"/>
<rect x="20" y="42" width="212" height="8" rx="4" fill="#E9ECF1"/>
<path opacity="0.9" d="M20 46C20 43.7909 21.7909 42 24 42V50C21.7909 50 20 48.2091 20 46Z" fill="#3D8798"/>
</svg>
