<svg width="32" height="32" viewBox="0 0 32 32" fill="none" xmlns="http://www.w3.org/2000/svg">
<path fill-rule="evenodd" clip-rule="evenodd" d="M4 22V26H8V22H4ZM2 18H10C11.1 18 12 18.9 12 20V28C12 29.1 11.1 30 10 30H2C0.9 30 0 29.1 0 28V20C0 18.9 0.9 18 2 18ZM20 6H30C31.1 6 32 6.9 32 8C32 9.1 31.1 10 30 10H20C18.9 10 18 9.1 18 8C18 6.9 18.9 6 20 6ZM12 2C13.1 2 14 2.9 14 4C14 4.56 13.78 5.06 13.42 5.42L7.42 13.42C7.06 13.78 6.56 14 6 14C5.44 14 4.94 13.78 4.58 13.42L0.58 9.42C0.22 9.06 0 8.56 0 8C0 6.9 0.9 6 2 6C2.56 6 3.06 6.22 3.42 6.58L6 9.18L10.58 2.58C10.94 2.22 11.44 2 12 2ZM20 22H30C31.1 22 32 22.9 32 24C32 25.1 31.1 26 30 26H20C18.9 26 18 25.1 18 24C18 22.9 18.9 22 20 22Z" fill="#3D8798"/>
</svg>
