<svg width="48" height="45" viewBox="0 0 48 45" fill="none" xmlns="http://www.w3.org/2000/svg">
<rect y="0.432861" width="48" height="44" rx="6" fill="#F7F7F7"/>
<path d="M31.8477 20.9619C33.7077 20.7006 35.1397 19.1059 35.1437 17.1739C35.1437 15.2699 33.7557 13.6912 31.9357 13.3926" stroke="#8F95B2" stroke-width="2.02705" stroke-linecap="round" stroke-linejoin="round"/>
<path d="M34.3027 25.4336C36.1041 25.7029 37.3614 26.3336 37.3614 27.6336C37.3614 28.5283 36.7694 29.1096 35.8121 29.4749" stroke="#8F95B2" stroke-width="2.02705" stroke-linecap="round" stroke-linejoin="round"/>
<path fill-rule="evenodd" clip-rule="evenodd" d="M23.8496 25.9849C19.5643 25.9849 15.9043 26.6342 15.9043 29.2275C15.9043 31.8195 19.5416 32.4875 23.8496 32.4875C28.135 32.4875 31.7936 31.8449 31.7936 29.2502C31.7936 26.6555 28.1576 25.9849 23.8496 25.9849Z" stroke="#8F95B2" stroke-width="2.02705" stroke-linecap="round" stroke-linejoin="round"/>
<path fill-rule="evenodd" clip-rule="evenodd" d="M23.8498 22.2836C26.6618 22.2836 28.9418 20.0049 28.9418 17.1916C28.9418 14.3796 26.6618 12.0996 23.8498 12.0996C21.0378 12.0996 18.7579 14.3796 18.7579 17.1916C18.7472 19.9943 21.0099 22.2743 23.8125 22.2836H23.8498Z" stroke="#8F95B2" stroke-width="2.02705" stroke-linecap="round" stroke-linejoin="round"/>
<path d="M15.8448 20.9619C13.9835 20.7006 12.5528 19.1059 12.5488 17.1739C12.5488 15.2699 13.9368 13.6912 15.7568 13.3926" stroke="#8F95B2" stroke-width="2.02705" stroke-linecap="round" stroke-linejoin="round"/>
<path d="M13.3907 25.4336C11.5894 25.7029 10.332 26.3336 10.332 27.6336C10.332 28.5283 10.924 29.1096 11.8814 29.4749" stroke="#8F95B2" stroke-width="2.02705" stroke-linecap="round" stroke-linejoin="round"/>
</svg>
