<svg width="48" height="48" viewBox="0 0 48 48" fill="none" xmlns="http://www.w3.org/2000/svg">
<circle cx="24" cy="24" r="24" fill="#F8FAFB"/>
<path d="M20.6719 23.6998C21.4436 25.2935 22.7324 26.579 24.3281 27.3467C24.4458 27.4024 24.576 27.4265 24.7059 27.4167C24.8358 27.4068 24.9608 27.3633 25.0688 27.2904L27.4125 25.7248C27.5161 25.6546 27.6357 25.6117 27.7603 25.6002C27.8849 25.5887 28.0104 25.609 28.125 25.6592L32.5125 27.5435C32.6625 27.6059 32.7877 27.7159 32.869 27.8565C32.9504 27.9971 32.9832 28.1606 32.9625 28.3217C32.8234 29.407 32.2937 30.4046 31.4723 31.1276C30.6509 31.8506 29.5943 32.2495 28.5 32.2498C25.1185 32.2498 21.8755 30.9065 19.4844 28.5154C17.0933 26.1243 15.75 22.8813 15.75 19.4998C15.7502 18.4055 16.1492 17.3489 16.8722 16.5275C17.5952 15.7061 18.5927 15.1763 19.6781 15.0373C19.8392 15.0166 20.0027 15.0494 20.1433 15.1307C20.2839 15.2121 20.3938 15.3373 20.4563 15.4873L22.3406 19.8842C22.3896 19.997 22.4101 20.1201 22.4003 20.2427C22.3905 20.3654 22.3507 20.4837 22.2844 20.5873L20.7188 22.9685C20.649 23.0762 20.6081 23.2 20.5999 23.328C20.5917 23.4561 20.6165 23.5841 20.6719 23.6998V23.6998Z" stroke="#8F95B2" stroke-width="1.5" stroke-linecap="round" stroke-linejoin="round"/>
</svg>
