<svg width="218" height="76" viewBox="0 0 218 76" fill="none" xmlns="http://www.w3.org/2000/svg">
<g clip-path="url(#clip0_2932_11423)">
<path d="M0 70.5C27.8998 70.5 24.6002 18 52.5 18C80.3998 18 77.1002 32 105 32C132.9 32 128.6 55 156.5 55C184.4 55 189.127 66.8158 217.027 66.8158" stroke="url(#paint0_linear_2932_11423)" stroke-width="3" stroke-linecap="round"/>
<path d="M0 70.5C27.2601 70.5 30.7399 34 58 34C85.2601 34 80.7399 5 108 5C135.26 5 134.74 46 162 46C189.26 46 190.74 66.665 218 66.665" stroke="url(#paint1_linear_2932_11423)" stroke-width="3" stroke-linecap="round"/>
</g>
<defs>
<linearGradient id="paint0_linear_2932_11423" x1="217.027" y1="18" x2="7.91244" y2="18" gradientUnits="userSpaceOnUse">
<stop stop-color="#4DFFDF"/>
<stop offset="1" stop-color="#4DA1FF"/>
</linearGradient>
<linearGradient id="paint1_linear_2932_11423" x1="218" y1="21.3748" x2="5.4362" y2="21.9795" gradientUnits="userSpaceOnUse">
<stop stop-color="#E323FF"/>
<stop offset="1" stop-color="#7517F8"/>
</linearGradient>
<clipPath id="clip0_2932_11423">
<rect width="218" height="75.5" fill="white"/>
</clipPath>
</defs>
</svg>
