<svg width="218" height="126" viewBox="0 0 218 126" fill="none" xmlns="http://www.w3.org/2000/svg">
<rect x="-5" y="0.5" width="290" height="125" rx="10" fill="white"/>
<g clip-path="url(#clip0_2932_11427)">
<path d="M26.372 36V26.2H30.362C30.894 26.2 31.3747 26.3353 31.804 26.606C32.2427 26.8673 32.5927 27.2267 32.854 27.684C33.1153 28.1413 33.246 28.65 33.246 29.21C33.246 29.77 33.1153 30.2787 32.854 30.736C32.5927 31.1933 32.2427 31.562 31.804 31.842C31.3747 32.1127 30.894 32.248 30.362 32.248H27.884V36H26.372ZM27.884 30.792H30.334C30.586 30.792 30.8147 30.722 31.02 30.582C31.2253 30.4327 31.3887 30.2413 31.51 30.008C31.6407 29.7653 31.706 29.4993 31.706 29.21C31.706 28.9207 31.6407 28.6593 31.51 28.426C31.3887 28.1927 31.2253 28.006 31.02 27.866C30.8147 27.726 30.586 27.656 30.334 27.656H27.884V30.792ZM35.321 36V28.65H36.777V30.96L36.637 30.4C36.7397 30.0453 36.9124 29.7233 37.155 29.434C37.407 29.1447 37.6917 28.916 38.009 28.748C38.3357 28.58 38.6717 28.496 39.017 28.496C39.1757 28.496 39.325 28.51 39.465 28.538C39.6144 28.566 39.731 28.5987 39.815 28.636L39.437 30.204C39.325 30.1573 39.199 30.12 39.059 30.092C38.9284 30.0547 38.7977 30.036 38.667 30.036C38.415 30.036 38.1724 30.0873 37.939 30.19C37.715 30.2833 37.5144 30.4187 37.337 30.596C37.169 30.764 37.0337 30.9647 36.931 31.198C36.8284 31.422 36.777 31.6693 36.777 31.94V36H35.321ZM44.5231 36.14C43.7671 36.14 43.0951 35.9813 42.5071 35.664C41.9284 35.3373 41.4711 34.894 41.1351 34.334C40.8084 33.774 40.6451 33.13 40.6451 32.402C40.6451 31.8233 40.7384 31.296 40.9251 30.82C41.1117 30.344 41.3684 29.9333 41.6951 29.588C42.0311 29.2333 42.4277 28.9627 42.8851 28.776C43.3517 28.58 43.8557 28.482 44.3971 28.482C44.8731 28.482 45.3164 28.5753 45.7271 28.762C46.1377 28.9393 46.4924 29.1867 46.7911 29.504C47.0991 29.8213 47.3324 30.1993 47.4911 30.638C47.6591 31.0673 47.7384 31.5387 47.7291 32.052L47.7151 32.668H41.7091L41.3871 31.52H46.4691L46.2591 31.758V31.422C46.2311 31.114 46.1284 30.8387 45.9511 30.596C45.7737 30.3533 45.5497 30.162 45.2791 30.022C45.0084 29.882 44.7144 29.812 44.3971 29.812C43.8931 29.812 43.4684 29.91 43.1231 30.106C42.7777 30.2927 42.5164 30.5727 42.3391 30.946C42.1617 31.31 42.0731 31.7627 42.0731 32.304C42.0731 32.8173 42.1804 33.2653 42.3951 33.648C42.6097 34.0213 42.9131 34.3107 43.3051 34.516C43.6971 34.7213 44.1497 34.824 44.6631 34.824C45.0271 34.824 45.3631 34.7633 45.6711 34.642C45.9884 34.5207 46.3291 34.3013 46.6931 33.984L47.4211 35.006C47.1971 35.23 46.9217 35.426 46.5951 35.594C46.2777 35.762 45.9371 35.8973 45.5731 36C45.2184 36.0933 44.8684 36.14 44.5231 36.14ZM52.1862 36.14C51.5702 36.14 51.0149 36.0327 50.5202 35.818C50.0255 35.6033 49.6149 35.286 49.2882 34.866L50.2682 34.026C50.5482 34.3527 50.8515 34.5907 51.1782 34.74C51.5142 34.88 51.8922 34.95 52.3122 34.95C52.4802 34.95 52.6342 34.9313 52.7742 34.894C52.9235 34.8473 53.0495 34.782 53.1522 34.698C53.2642 34.614 53.3482 34.516 53.4042 34.404C53.4602 34.2827 53.4882 34.152 53.4882 34.012C53.4882 33.7693 53.3995 33.5733 53.2222 33.424C53.1289 33.3587 52.9795 33.2887 52.7742 33.214C52.5782 33.13 52.3215 33.046 52.0042 32.962C51.4629 32.822 51.0195 32.6633 50.6742 32.486C50.3289 32.3087 50.0629 32.108 49.8762 31.884C49.7362 31.7067 49.6335 31.5153 49.5682 31.31C49.5029 31.0953 49.4702 30.862 49.4702 30.61C49.4702 30.302 49.5355 30.022 49.6662 29.77C49.8062 29.5087 49.9929 29.2847 50.2262 29.098C50.4689 28.902 50.7489 28.7527 51.0662 28.65C51.3929 28.5473 51.7382 28.496 52.1022 28.496C52.4475 28.496 52.7882 28.5427 53.1242 28.636C53.4695 28.7293 53.7869 28.8647 54.0762 29.042C54.3655 29.2193 54.6082 29.4293 54.8042 29.672L53.9782 30.582C53.8009 30.4047 53.6049 30.2507 53.3902 30.12C53.1849 29.98 52.9749 29.8727 52.7602 29.798C52.5455 29.7233 52.3495 29.686 52.1722 29.686C51.9762 29.686 51.7989 29.7047 51.6402 29.742C51.4815 29.7793 51.3462 29.8353 51.2342 29.91C51.1315 29.9847 51.0522 30.078 50.9962 30.19C50.9402 30.302 50.9122 30.428 50.9122 30.568C50.9215 30.6893 50.9495 30.806 50.9962 30.918C51.0522 31.0207 51.1269 31.1093 51.2202 31.184C51.3229 31.2587 51.4769 31.338 51.6822 31.422C51.8875 31.506 52.1489 31.5853 52.4662 31.66C52.9329 31.7813 53.3155 31.9167 53.6142 32.066C53.9222 32.206 54.1649 32.3693 54.3422 32.556C54.5289 32.7333 54.6595 32.9387 54.7342 33.172C54.8089 33.4053 54.8462 33.6667 54.8462 33.956C54.8462 34.376 54.7249 34.754 54.4822 35.09C54.2489 35.4167 53.9315 35.6733 53.5302 35.86C53.1289 36.0467 52.6809 36.14 52.1862 36.14ZM60.3054 36.14C59.5494 36.14 58.8774 35.9813 58.2894 35.664C57.7108 35.3373 57.2534 34.894 56.9174 34.334C56.5908 33.774 56.4274 33.13 56.4274 32.402C56.4274 31.8233 56.5208 31.296 56.7074 30.82C56.8941 30.344 57.1508 29.9333 57.4774 29.588C57.8134 29.2333 58.2101 28.9627 58.6674 28.776C59.1341 28.58 59.6381 28.482 60.1794 28.482C60.6554 28.482 61.0988 28.5753 61.5094 28.762C61.9201 28.9393 62.2748 29.1867 62.5734 29.504C62.8814 29.8213 63.1148 30.1993 63.2734 30.638C63.4414 31.0673 63.5208 31.5387 63.5114 32.052L63.4974 32.668H57.4914L57.1694 31.52H62.2514L62.0414 31.758V31.422C62.0134 31.114 61.9108 30.8387 61.7334 30.596C61.5561 30.3533 61.3321 30.162 61.0614 30.022C60.7908 29.882 60.4968 29.812 60.1794 29.812C59.6754 29.812 59.2508 29.91 58.9054 30.106C58.5601 30.2927 58.2988 30.5727 58.1214 30.946C57.9441 31.31 57.8554 31.7627 57.8554 32.304C57.8554 32.8173 57.9628 33.2653 58.1774 33.648C58.3921 34.0213 58.6954 34.3107 59.0874 34.516C59.4794 34.7213 59.9321 34.824 60.4454 34.824C60.8094 34.824 61.1454 34.7633 61.4534 34.642C61.7708 34.5207 62.1114 34.3013 62.4754 33.984L63.2034 35.006C62.9794 35.23 62.7041 35.426 62.3774 35.594C62.0601 35.762 61.7194 35.8973 61.3554 36C61.0008 36.0933 60.6508 36.14 60.3054 36.14ZM65.5185 36V28.65H66.9605V30.162L66.7085 30.33C66.8019 30.0033 66.9839 29.7047 67.2545 29.434C67.5252 29.154 67.8472 28.93 68.2205 28.762C68.5939 28.5847 68.9765 28.496 69.3685 28.496C69.9285 28.496 70.3952 28.608 70.7685 28.832C71.1419 29.0467 71.4219 29.378 71.6085 29.826C71.7952 30.274 71.8885 30.8387 71.8885 31.52V36H70.4465V31.618C70.4465 31.198 70.3905 30.8527 70.2785 30.582C70.1665 30.302 69.9939 30.1013 69.7605 29.98C69.5272 29.8493 69.2379 29.7933 68.8925 29.812C68.6125 29.812 68.3559 29.8587 68.1225 29.952C67.8892 30.036 67.6839 30.1573 67.5065 30.316C67.3385 30.4747 67.2032 30.6613 67.1005 30.876C67.0072 31.0813 66.9605 31.3053 66.9605 31.548V36H66.2465C66.1252 36 66.0039 36 65.8825 36C65.7612 36 65.6399 36 65.5185 36ZM75.1947 36V26.774H76.6367V36H75.1947ZM73.6687 30.05V28.65H78.3447V30.05H73.6687ZM82.8574 36.14C82.2507 36.14 81.6954 35.972 81.1914 35.636C80.6967 35.3 80.3001 34.8427 80.0014 34.264C79.7027 33.6853 79.5534 33.032 79.5534 32.304C79.5534 31.5667 79.7027 30.9133 80.0014 30.344C80.3094 29.7653 80.7201 29.3127 81.2334 28.986C81.7561 28.6593 82.3394 28.496 82.9834 28.496C83.3661 28.496 83.7161 28.552 84.0334 28.664C84.3507 28.776 84.6261 28.9347 84.8594 29.14C85.1021 29.336 85.2981 29.5647 85.4474 29.826C85.6061 30.0873 85.7041 30.3673 85.7414 30.666L85.4194 30.554V28.65H86.8754V36H85.4194V34.25L85.7554 34.152C85.6994 34.404 85.5827 34.6513 85.4054 34.894C85.2374 35.1273 85.0181 35.3373 84.7474 35.524C84.4861 35.7107 84.1921 35.86 83.8654 35.972C83.5481 36.084 83.2121 36.14 82.8574 36.14ZM83.2354 34.81C83.6741 34.81 84.0614 34.7027 84.3974 34.488C84.7334 34.2733 84.9947 33.9793 85.1814 33.606C85.3774 33.2233 85.4754 32.7893 85.4754 32.304C85.4754 31.828 85.3774 31.4033 85.1814 31.03C84.9947 30.6567 84.7334 30.3627 84.3974 30.148C84.0614 29.9333 83.6741 29.826 83.2354 29.826C82.8061 29.826 82.4234 29.9333 82.0874 30.148C81.7607 30.3627 81.4994 30.6567 81.3034 31.03C81.1167 31.4033 81.0234 31.828 81.0234 32.304C81.0234 32.7893 81.1167 33.2233 81.3034 33.606C81.4994 33.9793 81.7607 34.2733 82.0874 34.488C82.4234 34.7027 82.8061 34.81 83.2354 34.81ZM90.2388 36V26.774H91.6808V36H90.2388ZM88.7128 30.05V28.65H93.3888V30.05H88.7128ZM95.3798 36V28.65H96.8218V36H95.3798ZM96.0798 27.026C95.7718 27.026 95.5338 26.9467 95.3658 26.788C95.1978 26.6293 95.1138 26.4053 95.1138 26.116C95.1138 25.8453 95.1978 25.626 95.3658 25.458C95.5432 25.29 95.7812 25.206 96.0798 25.206C96.3878 25.206 96.6258 25.2853 96.7938 25.444C96.9618 25.6027 97.0458 25.8267 97.0458 26.116C97.0458 26.3867 96.9572 26.606 96.7798 26.774C96.6118 26.942 96.3785 27.026 96.0798 27.026ZM102.782 36.14C102.064 36.14 101.42 35.9767 100.85 35.65C100.29 35.314 99.847 34.8613 99.5203 34.292C99.1936 33.7133 99.0303 33.0553 99.0303 32.318C99.0303 31.5807 99.1936 30.9273 99.5203 30.358C99.847 29.7793 100.29 29.3267 100.85 29C101.42 28.664 102.064 28.496 102.782 28.496C103.492 28.496 104.126 28.664 104.686 29C105.256 29.3267 105.704 29.7793 106.03 30.358C106.357 30.9273 106.52 31.5807 106.52 32.318C106.52 33.0553 106.357 33.7133 106.03 34.292C105.704 34.8613 105.256 35.314 104.686 35.65C104.126 35.9767 103.492 36.14 102.782 36.14ZM102.782 34.824C103.221 34.824 103.613 34.7167 103.958 34.502C104.304 34.278 104.574 33.9793 104.77 33.606C104.966 33.2233 105.06 32.794 105.05 32.318C105.06 31.8327 104.966 31.4033 104.77 31.03C104.574 30.6473 104.304 30.3487 103.958 30.134C103.613 29.9193 103.221 29.812 102.782 29.812C102.344 29.812 101.947 29.924 101.592 30.148C101.247 30.3627 100.976 30.6613 100.78 31.044C100.584 31.4173 100.491 31.842 100.5 32.318C100.491 32.794 100.584 33.2233 100.78 33.606C100.976 33.9793 101.247 34.278 101.592 34.502C101.947 34.7167 102.344 34.824 102.782 34.824ZM108.532 36V28.65H109.974V30.162L109.722 30.33C109.815 30.0033 109.997 29.7047 110.268 29.434C110.538 29.154 110.86 28.93 111.234 28.762C111.607 28.5847 111.99 28.496 112.382 28.496C112.942 28.496 113.408 28.608 113.782 28.832C114.155 29.0467 114.435 29.378 114.622 29.826C114.808 30.274 114.902 30.8387 114.902 31.52V36H113.46V31.618C113.46 31.198 113.404 30.8527 113.292 30.582C113.18 30.302 113.007 30.1013 112.774 29.98C112.54 29.8493 112.251 29.7933 111.906 29.812C111.626 29.812 111.369 29.8587 111.136 29.952C110.902 30.036 110.697 30.1573 110.52 30.316C110.352 30.4747 110.216 30.6613 110.114 30.876C110.02 31.0813 109.974 31.3053 109.974 31.548V36H109.26C109.138 36 109.017 36 108.896 36C108.774 36 108.653 36 108.532 36Z" fill="#5F7096"/>
<path d="M143.046 35.542C142.439 35.542 141.884 35.416 141.38 35.164C140.885 34.9027 140.489 34.5573 140.19 34.128C139.891 33.6987 139.742 33.2227 139.742 32.7C139.742 32.4107 139.779 32.14 139.854 31.888C139.938 31.6267 140.059 31.3887 140.218 31.174C140.386 30.9593 140.587 30.7633 140.82 30.586C141.053 30.4087 141.324 30.25 141.632 30.11L141.548 30.404C141.305 30.3107 141.086 30.1987 140.89 30.068C140.703 29.928 140.54 29.7693 140.4 29.592C140.26 29.4147 140.153 29.2233 140.078 29.018C140.013 28.8127 139.98 28.598 139.98 28.374C139.98 27.8793 140.115 27.4313 140.386 27.03C140.666 26.6287 141.035 26.3067 141.492 26.064C141.959 25.8213 142.477 25.7 143.046 25.7C143.615 25.7 144.129 25.8213 144.586 26.064C145.053 26.3067 145.421 26.6287 145.692 27.03C145.972 27.4313 146.112 27.8793 146.112 28.374C146.112 28.598 146.075 28.8127 146 29.018C145.935 29.2233 145.837 29.41 145.706 29.578C145.575 29.746 145.407 29.9 145.202 30.04C145.006 30.18 144.782 30.3013 144.53 30.404L144.488 30.166C144.768 30.278 145.02 30.4227 145.244 30.6C145.477 30.7773 145.678 30.978 145.846 31.202C146.014 31.426 146.14 31.664 146.224 31.916C146.317 32.168 146.364 32.4293 146.364 32.7C146.364 33.232 146.215 33.7127 145.916 34.142C145.617 34.5713 145.216 34.912 144.712 35.164C144.217 35.416 143.662 35.542 143.046 35.542ZM143.046 34.142C143.391 34.142 143.699 34.0767 143.97 33.946C144.25 33.8153 144.469 33.638 144.628 33.414C144.787 33.19 144.866 32.9333 144.866 32.644C144.866 32.336 144.787 32.0653 144.628 31.832C144.469 31.5893 144.25 31.398 143.97 31.258C143.699 31.118 143.391 31.048 143.046 31.048C142.701 31.048 142.393 31.118 142.122 31.258C141.851 31.398 141.637 31.5893 141.478 31.832C141.319 32.0653 141.24 32.336 141.24 32.644C141.24 32.924 141.319 33.176 141.478 33.4C141.637 33.624 141.851 33.806 142.122 33.946C142.393 34.0767 142.701 34.142 143.046 34.142ZM143.046 29.704C143.345 29.704 143.611 29.648 143.844 29.536C144.087 29.424 144.273 29.2747 144.404 29.088C144.544 28.892 144.614 28.668 144.614 28.416C144.614 28.164 144.544 27.94 144.404 27.744C144.273 27.548 144.087 27.394 143.844 27.282C143.611 27.1607 143.345 27.1 143.046 27.1C142.747 27.1 142.477 27.1607 142.234 27.282C142.001 27.394 141.814 27.548 141.674 27.744C141.543 27.94 141.478 28.164 141.478 28.416C141.478 28.668 141.543 28.892 141.674 29.088C141.814 29.2747 142.001 29.424 142.234 29.536C142.477 29.648 142.747 29.704 143.046 29.704ZM151.509 35.5C151.024 35.5 150.571 35.416 150.151 35.248C149.741 35.0707 149.381 34.828 149.073 34.52C148.775 34.212 148.537 33.848 148.359 33.428C148.191 33.008 148.107 32.546 148.107 32.042C148.107 31.79 148.14 31.51 148.205 31.202C148.28 30.8847 148.387 30.5393 148.527 30.166C148.677 29.7927 148.854 29.4007 149.059 28.99C149.265 28.57 149.503 28.136 149.773 27.688L151.047 25.532H152.517L152.573 25.672L151.033 28.262C150.753 28.738 150.501 29.1907 150.277 29.62C150.063 30.0493 149.881 30.4553 149.731 30.838C149.582 31.2113 149.47 31.552 149.395 31.86L149.059 30.418C149.237 30.1287 149.428 29.8767 149.633 29.662C149.839 29.438 150.058 29.2513 150.291 29.102C150.534 28.9527 150.786 28.8407 151.047 28.766C151.309 28.6913 151.579 28.654 151.859 28.654C152.401 28.654 152.895 28.8033 153.343 29.102C153.801 29.3913 154.165 29.7787 154.435 30.264C154.715 30.7493 154.855 31.2813 154.855 31.86C154.855 32.56 154.711 33.1853 154.421 33.736C154.141 34.2773 153.749 34.7067 153.245 35.024C152.741 35.3413 152.163 35.5 151.509 35.5ZM151.509 34.1C151.873 34.1 152.195 34.016 152.475 33.848C152.765 33.6707 152.989 33.428 153.147 33.12C153.315 32.8027 153.399 32.4433 153.399 32.042C153.399 31.6967 153.315 31.3747 153.147 31.076C152.979 30.768 152.755 30.5207 152.475 30.334C152.195 30.1473 151.883 30.054 151.537 30.054C151.155 30.054 150.814 30.1427 150.515 30.32C150.217 30.4973 149.983 30.7353 149.815 31.034C149.647 31.3327 149.563 31.664 149.563 32.028C149.563 32.42 149.647 32.7747 149.815 33.092C149.983 33.4 150.212 33.6473 150.501 33.834C150.791 34.0113 151.127 34.1 151.509 34.1ZM157.082 35.5L156.62 34.352L159.616 30.978C159.775 30.81 159.938 30.6187 160.106 30.404C160.284 30.18 160.452 29.9513 160.61 29.718C160.769 29.4847 160.895 29.256 160.988 29.032C161.091 28.7987 161.142 28.5793 161.142 28.374C161.142 28.0753 161.082 27.8233 160.96 27.618C160.848 27.4033 160.68 27.24 160.456 27.128C160.242 27.016 159.98 26.96 159.672 26.96C159.402 26.96 159.136 27.0393 158.874 27.198C158.613 27.3567 158.375 27.5807 158.16 27.87C157.946 28.1593 157.778 28.4953 157.656 28.878L156.494 28.15C156.653 27.6087 156.891 27.1467 157.208 26.764C157.535 26.372 157.922 26.0733 158.37 25.868C158.828 25.6627 159.322 25.56 159.854 25.56C160.405 25.56 160.895 25.6767 161.324 25.91C161.754 26.134 162.09 26.4513 162.332 26.862C162.575 27.2633 162.696 27.73 162.696 28.262C162.696 28.4767 162.673 28.696 162.626 28.92C162.58 29.144 162.505 29.3773 162.402 29.62C162.3 29.8533 162.169 30.1007 162.01 30.362C161.852 30.614 161.66 30.88 161.436 31.16C161.222 31.44 160.974 31.734 160.694 32.042L158.468 34.464L158.188 34.044H163.004V35.5H157.082Z" fill="#9292C1"/>
<rect opacity="0.7" x="187" y="20.5" width="17" height="21" rx="1" fill="white"/>
<rect opacity="0.7" x="206" y="20.5" width="14" height="21" rx="1" fill="white"/>
<rect opacity="0.7" x="222" y="20.5" width="14" height="21" rx="1" fill="white"/>
<rect opacity="0.7" x="238" y="20.5" width="17" height="21" rx="1" fill="white"/>
<path d="M187 27.5C195.627 27.5 194.612 36.5 204.761 36.5C214.91 36.5 212.373 29.5 221 29.5C229.627 29.5 231.516 25.5 238.254 25.5C244.794 25.5 246.373 35 255 35" stroke="url(#paint0_linear_2932_11427)" stroke-width="2" stroke-linejoin="round"/>
</g>
<g clip-path="url(#clip1_2932_11427)">
<path d="M26.372 68V58.2H30.208C30.908 58.2 31.538 58.3167 32.098 58.55C32.6673 58.7833 33.1527 59.1193 33.554 59.558C33.9553 59.9967 34.2633 60.5147 34.478 61.112C34.6927 61.7093 34.8 62.372 34.8 63.1C34.8 63.828 34.6927 64.4953 34.478 65.102C34.2633 65.6993 33.9553 66.2173 33.554 66.656C33.162 67.0853 32.6813 67.4167 32.112 67.65C31.5427 67.8833 30.908 68 30.208 68H26.372ZM27.884 66.698L27.842 66.544H30.138C30.6327 66.544 31.0713 66.4647 31.454 66.306C31.846 66.1473 32.1727 65.9233 32.434 65.634C32.7047 65.3353 32.91 64.9713 33.05 64.542C33.19 64.1127 33.26 63.632 33.26 63.1C33.26 62.568 33.19 62.092 33.05 61.672C32.91 61.2427 32.7047 60.8787 32.434 60.58C32.1633 60.2813 31.8367 60.0527 31.454 59.894C31.0713 59.7353 30.6327 59.656 30.138 59.656H27.8L27.884 59.53V66.698ZM40.3507 68.14C39.5947 68.14 38.9227 67.9813 38.3347 67.664C37.756 67.3373 37.2987 66.894 36.9627 66.334C36.636 65.774 36.4727 65.13 36.4727 64.402C36.4727 63.8233 36.566 63.296 36.7527 62.82C36.9393 62.344 37.196 61.9333 37.5227 61.588C37.8587 61.2333 38.2553 60.9627 38.7127 60.776C39.1793 60.58 39.6833 60.482 40.2247 60.482C40.7007 60.482 41.144 60.5753 41.5547 60.762C41.9653 60.9393 42.32 61.1867 42.6187 61.504C42.9267 61.8213 43.16 62.1993 43.3187 62.638C43.4867 63.0673 43.566 63.5387 43.5567 64.052L43.5427 64.668H37.5367L37.2147 63.52H42.2967L42.0867 63.758V63.422C42.0587 63.114 41.956 62.8387 41.7787 62.596C41.6013 62.3533 41.3773 62.162 41.1067 62.022C40.836 61.882 40.542 61.812 40.2247 61.812C39.7207 61.812 39.296 61.91 38.9507 62.106C38.6053 62.2927 38.344 62.5727 38.1667 62.946C37.9893 63.31 37.9007 63.7627 37.9007 64.304C37.9007 64.8173 38.008 65.2653 38.2227 65.648C38.4373 66.0213 38.7407 66.3107 39.1327 66.516C39.5247 66.7213 39.9773 66.824 40.4907 66.824C40.8547 66.824 41.1907 66.7633 41.4987 66.642C41.816 66.5207 42.1567 66.3013 42.5207 65.984L43.2487 67.006C43.0247 67.23 42.7493 67.426 42.4227 67.594C42.1053 67.762 41.7647 67.8973 41.4007 68C41.046 68.0933 40.696 68.14 40.3507 68.14ZM47.8351 68L44.7271 60.65H46.2811L48.5211 66.152L48.2551 66.278L50.6491 60.65H52.1331L48.8711 68H47.8351ZM57.1174 68.14C56.3614 68.14 55.6894 67.9813 55.1014 67.664C54.5227 67.3373 54.0654 66.894 53.7294 66.334C53.4027 65.774 53.2394 65.13 53.2394 64.402C53.2394 63.8233 53.3327 63.296 53.5194 62.82C53.706 62.344 53.9627 61.9333 54.2894 61.588C54.6254 61.2333 55.022 60.9627 55.4794 60.776C55.946 60.58 56.45 60.482 56.9914 60.482C57.4674 60.482 57.9107 60.5753 58.3214 60.762C58.732 60.9393 59.0867 61.1867 59.3854 61.504C59.6934 61.8213 59.9267 62.1993 60.0854 62.638C60.2534 63.0673 60.3327 63.5387 60.3234 64.052L60.3094 64.668H54.3034L53.9814 63.52H59.0634L58.8534 63.758V63.422C58.8254 63.114 58.7227 62.8387 58.5454 62.596C58.368 62.3533 58.144 62.162 57.8734 62.022C57.6027 61.882 57.3087 61.812 56.9914 61.812C56.4874 61.812 56.0627 61.91 55.7174 62.106C55.372 62.2927 55.1107 62.5727 54.9334 62.946C54.756 63.31 54.6674 63.7627 54.6674 64.304C54.6674 64.8173 54.7747 65.2653 54.9894 65.648C55.204 66.0213 55.5074 66.3107 55.8994 66.516C56.2914 66.7213 56.744 66.824 57.2574 66.824C57.6214 66.824 57.9574 66.7633 58.2654 66.642C58.5827 66.5207 58.9234 66.3013 59.2874 65.984L60.0154 67.006C59.7914 67.23 59.516 67.426 59.1894 67.594C58.872 67.762 58.5314 67.8973 58.1674 68C57.8127 68.0933 57.4627 68.14 57.1174 68.14ZM62.3585 68V57.64H63.8005V68H62.3585ZM69.4515 68.14C68.7328 68.14 68.0888 67.9767 67.5195 67.65C66.9595 67.314 66.5161 66.8613 66.1895 66.292C65.8628 65.7133 65.6995 65.0553 65.6995 64.318C65.6995 63.5807 65.8628 62.9273 66.1895 62.358C66.5161 61.7793 66.9595 61.3267 67.5195 61C68.0888 60.664 68.7328 60.496 69.4515 60.496C70.1608 60.496 70.7955 60.664 71.3555 61C71.9248 61.3267 72.3728 61.7793 72.6995 62.358C73.0261 62.9273 73.1895 63.5807 73.1895 64.318C73.1895 65.0553 73.0261 65.7133 72.6995 66.292C72.3728 66.8613 71.9248 67.314 71.3555 67.65C70.7955 67.9767 70.1608 68.14 69.4515 68.14ZM69.4515 66.824C69.8901 66.824 70.2821 66.7167 70.6275 66.502C70.9728 66.278 71.2435 65.9793 71.4395 65.606C71.6355 65.2233 71.7288 64.794 71.7195 64.318C71.7288 63.8327 71.6355 63.4033 71.4395 63.03C71.2435 62.6473 70.9728 62.3487 70.6275 62.134C70.2821 61.9193 69.8901 61.812 69.4515 61.812C69.0128 61.812 68.6161 61.924 68.2615 62.148C67.9161 62.3627 67.6455 62.6613 67.4495 63.044C67.2535 63.4173 67.1601 63.842 67.1695 64.318C67.1601 64.794 67.2535 65.2233 67.4495 65.606C67.6455 65.9793 67.9161 66.278 68.2615 66.502C68.6161 66.7167 69.0128 66.824 69.4515 66.824ZM75.2007 71.08V60.65H76.6567V62.33L76.4327 62.204C76.4887 61.924 76.6474 61.658 76.9087 61.406C77.1701 61.1447 77.4874 60.9347 77.8607 60.776C78.2434 60.608 78.6354 60.524 79.0367 60.524C79.6994 60.524 80.2874 60.6873 80.8007 61.014C81.3141 61.3407 81.7201 61.7887 82.0187 62.358C82.3174 62.9273 82.4667 63.5807 82.4667 64.318C82.4667 65.046 82.3174 65.6993 82.0187 66.278C81.7294 66.8473 81.3281 67.3 80.8147 67.636C80.3014 67.9627 79.7227 68.126 79.0787 68.126C78.6494 68.126 78.2341 68.042 77.8327 67.874C77.4314 67.6967 77.0907 67.4727 76.8107 67.202C76.5307 66.9313 76.3581 66.6513 76.2927 66.362L76.6567 66.166V71.08H75.2007ZM78.8407 66.796C79.2701 66.796 79.6527 66.6887 79.9887 66.474C80.3247 66.2593 80.5907 65.9653 80.7867 65.592C80.9827 65.2187 81.0807 64.794 81.0807 64.318C81.0807 63.842 80.9827 63.422 80.7867 63.058C80.6001 62.6847 80.3387 62.3907 80.0027 62.176C79.6667 61.9613 79.2794 61.854 78.8407 61.854C78.4021 61.854 78.0147 61.9613 77.6787 62.176C77.3427 62.3813 77.0767 62.6707 76.8807 63.044C76.6847 63.4173 76.5867 63.842 76.5867 64.318C76.5867 64.794 76.6847 65.2187 76.8807 65.592C77.0767 65.9653 77.3427 66.2593 77.6787 66.474C78.0147 66.6887 78.4021 66.796 78.8407 66.796ZM84.4448 68V60.65H85.9008V62.218L85.6348 62.386C85.7094 62.1433 85.8261 61.91 85.9848 61.686C86.1528 61.462 86.3534 61.266 86.5868 61.098C86.8294 60.9207 87.0861 60.7807 87.3568 60.678C87.6368 60.5753 87.9214 60.524 88.2108 60.524C88.6308 60.524 88.9994 60.594 89.3168 60.734C89.6341 60.874 89.8954 61.084 90.1008 61.364C90.3061 61.644 90.4554 61.994 90.5488 62.414L90.3248 62.358L90.4228 62.12C90.5254 61.9053 90.6654 61.7047 90.8428 61.518C91.0294 61.322 91.2394 61.1493 91.4728 61C91.7061 60.8507 91.9534 60.734 92.2148 60.65C92.4761 60.566 92.7328 60.524 92.9848 60.524C93.5354 60.524 93.9881 60.636 94.3428 60.86C94.7068 61.084 94.9774 61.4247 95.1548 61.882C95.3414 62.3393 95.4348 62.9087 95.4348 63.59V68H93.9788V63.674C93.9788 63.254 93.9228 62.9133 93.8108 62.652C93.7081 62.3813 93.5494 62.1807 93.3348 62.05C93.1201 61.9193 92.8448 61.854 92.5088 61.854C92.2474 61.854 92.0001 61.9007 91.7668 61.994C91.5428 62.078 91.3468 62.1993 91.1788 62.358C91.0108 62.5167 90.8801 62.7033 90.7868 62.918C90.6934 63.1233 90.6468 63.352 90.6468 63.604V68H89.1908V63.646C89.1908 63.2633 89.1348 62.9413 89.0228 62.68C88.9108 62.4093 88.7474 62.204 88.5328 62.064C88.3181 61.924 88.0568 61.854 87.7488 61.854C87.4874 61.854 87.2448 61.9007 87.0208 61.994C86.7968 62.078 86.6008 62.1993 86.4328 62.358C86.2648 62.5073 86.1341 62.6893 86.0408 62.904C85.9474 63.1093 85.9008 63.3333 85.9008 63.576V68H84.4448ZM101.235 68.14C100.479 68.14 99.8073 67.9813 99.2193 67.664C98.6407 67.3373 98.1833 66.894 97.8473 66.334C97.5207 65.774 97.3573 65.13 97.3573 64.402C97.3573 63.8233 97.4507 63.296 97.6373 62.82C97.824 62.344 98.0807 61.9333 98.4073 61.588C98.7433 61.2333 99.14 60.9627 99.5973 60.776C100.064 60.58 100.568 60.482 101.109 60.482C101.585 60.482 102.029 60.5753 102.439 60.762C102.85 60.9393 103.205 61.1867 103.503 61.504C103.811 61.8213 104.045 62.1993 104.203 62.638C104.371 63.0673 104.451 63.5387 104.441 64.052L104.427 64.668H98.4213L98.0993 63.52H103.181L102.971 63.758V63.422C102.943 63.114 102.841 62.8387 102.663 62.596C102.486 62.3533 102.262 62.162 101.991 62.022C101.721 61.882 101.427 61.812 101.109 61.812C100.605 61.812 100.181 61.91 99.8353 62.106C99.49 62.2927 99.2287 62.5727 99.0513 62.946C98.874 63.31 98.7853 63.7627 98.7853 64.304C98.7853 64.8173 98.8927 65.2653 99.1073 65.648C99.322 66.0213 99.6253 66.3107 100.017 66.516C100.409 66.7213 100.862 66.824 101.375 66.824C101.739 66.824 102.075 66.7633 102.383 66.642C102.701 66.5207 103.041 66.3013 103.405 65.984L104.133 67.006C103.909 67.23 103.634 67.426 103.307 67.594C102.99 67.762 102.649 67.8973 102.285 68C101.931 68.0933 101.581 68.14 101.235 68.14ZM106.448 68V60.65H107.89V62.162L107.638 62.33C107.732 62.0033 107.914 61.7047 108.184 61.434C108.455 61.154 108.777 60.93 109.15 60.762C109.524 60.5847 109.906 60.496 110.298 60.496C110.858 60.496 111.325 60.608 111.698 60.832C112.072 61.0467 112.352 61.378 112.538 61.826C112.725 62.274 112.818 62.8387 112.818 63.52V68H111.376V63.618C111.376 63.198 111.32 62.8527 111.208 62.582C111.096 62.302 110.924 62.1013 110.69 61.98C110.457 61.8493 110.168 61.7933 109.822 61.812C109.542 61.812 109.286 61.8587 109.052 61.952C108.819 62.036 108.614 62.1573 108.436 62.316C108.268 62.4747 108.133 62.6613 108.03 62.876C107.937 63.0813 107.89 63.3053 107.89 63.548V68H107.176C107.055 68 106.934 68 106.812 68C106.691 68 106.57 68 106.448 68ZM116.125 68V58.774H117.567V68H116.125ZM114.599 62.05V60.65H119.275V62.05H114.599Z" fill="#5F7096"/>
<path d="M140.568 67.5L144.628 58.652L144.796 59.1H139.84V57.7H145.902L146.098 58.666L142.192 67.5H140.568ZM150.626 67.598C149.982 67.598 149.399 67.4533 148.876 67.164C148.353 66.8653 147.919 66.4407 147.574 65.89L148.414 64.952C148.853 65.4373 149.235 65.7687 149.562 65.946C149.889 66.1233 150.243 66.212 150.626 66.212C151.009 66.212 151.354 66.128 151.662 65.96C151.97 65.792 152.213 65.5633 152.39 65.274C152.577 64.9847 152.67 64.6627 152.67 64.308C152.67 63.9347 152.581 63.6033 152.404 63.314C152.236 63.0153 152.007 62.782 151.718 62.614C151.429 62.4367 151.102 62.348 150.738 62.348C150.561 62.348 150.393 62.362 150.234 62.39C150.075 62.4087 149.884 62.46 149.66 62.544C149.436 62.628 149.142 62.7587 148.778 62.936L147.98 61.858L148.554 57.7H153.846V59.1H149.506L149.8 58.834L149.338 61.942L148.988 61.536C149.081 61.4427 149.24 61.354 149.464 61.27C149.688 61.1767 149.935 61.102 150.206 61.046C150.486 60.9807 150.752 60.948 151.004 60.948C151.601 60.948 152.133 61.088 152.6 61.368C153.076 61.6387 153.449 62.0167 153.72 62.502C154 62.9873 154.14 63.5427 154.14 64.168C154.14 64.812 153.986 65.3953 153.678 65.918C153.37 66.4313 152.95 66.842 152.418 67.15C151.886 67.4487 151.289 67.598 150.626 67.598ZM158.939 67.64C158.248 67.64 157.646 67.4813 157.133 67.164C156.629 66.8467 156.153 66.3147 155.705 65.568L156.881 64.826C157.114 65.1713 157.343 65.456 157.567 65.68C157.8 65.8947 158.038 66.0533 158.281 66.156C158.524 66.2587 158.78 66.31 159.051 66.31C159.378 66.31 159.681 66.2307 159.961 66.072C160.241 65.904 160.465 65.6753 160.633 65.386C160.801 65.0967 160.885 64.77 160.885 64.406C160.885 64.042 160.82 63.734 160.689 63.482C160.558 63.2207 160.367 63.0247 160.115 62.894C159.863 62.754 159.564 62.684 159.219 62.684C159.06 62.684 158.892 62.7027 158.715 62.74C158.547 62.768 158.365 62.8147 158.169 62.88C157.973 62.936 157.758 63.0107 157.525 63.104L157.105 61.998L160.129 58.666L160.423 59.1H156.251V57.7H161.865L162.145 58.26L158.939 61.816L158.589 61.452C158.664 61.4147 158.785 61.382 158.953 61.354C159.13 61.3167 159.275 61.298 159.387 61.298C159.798 61.298 160.18 61.3773 160.535 61.536C160.899 61.6853 161.212 61.9 161.473 62.18C161.744 62.4507 161.954 62.7727 162.103 63.146C162.262 63.51 162.341 63.902 162.341 64.322C162.341 64.9567 162.187 65.526 161.879 66.03C161.58 66.5247 161.174 66.9167 160.661 67.206C160.148 67.4953 159.574 67.64 158.939 67.64Z" fill="#9292C1"/>
<rect opacity="0.7" x="187" y="52.5" width="17" height="21" rx="1" fill="white"/>
<rect opacity="0.7" x="206" y="52.5" width="14" height="21" rx="1" fill="white"/>
<rect opacity="0.7" x="222" y="52.5" width="14" height="21" rx="1" fill="white"/>
<rect opacity="0.7" x="238" y="52.5" width="17" height="21" rx="1" fill="white"/>
<path d="M187 65.429C195.691 65.429 194.668 61.9758 204.893 61.9758C215.117 61.9758 212.561 68.4524 221.252 68.4524C229.943 68.4524 231.845 63.429 238.633 63.429C245.222 63.429 246.309 57.5 255 57.5" stroke="url(#paint1_linear_2932_11427)" stroke-width="2" stroke-linejoin="round"/>
</g>
<g clip-path="url(#clip2_2932_11427)">
<path d="M26.372 100V90.2H30.544C31.104 90.2 31.6173 90.34 32.084 90.62C32.56 90.8907 32.938 91.264 33.218 91.74C33.498 92.2067 33.638 92.734 33.638 93.322C33.638 93.854 33.498 94.3487 33.218 94.806C32.938 95.2633 32.5647 95.632 32.098 95.912C31.6313 96.1827 31.1133 96.318 30.544 96.318H27.884V100H26.372ZM32.196 100L29.704 95.576L31.258 95.226L34.03 100.014L32.196 100ZM27.884 94.862H30.684C30.9547 94.862 31.1973 94.7967 31.412 94.666C31.6267 94.526 31.7947 94.3393 31.916 94.106C32.0373 93.8633 32.098 93.5973 32.098 93.308C32.098 92.9813 32.0187 92.6967 31.86 92.454C31.7107 92.202 31.496 92.006 31.216 91.866C30.9453 91.726 30.6373 91.656 30.292 91.656H27.884V94.862ZM39.3389 100.14C38.5829 100.14 37.9109 99.9813 37.3229 99.664C36.7443 99.3373 36.2869 98.894 35.9509 98.334C35.6243 97.774 35.4609 97.13 35.4609 96.402C35.4609 95.8233 35.5543 95.296 35.7409 94.82C35.9276 94.344 36.1843 93.9333 36.5109 93.588C36.8469 93.2333 37.2436 92.9627 37.7009 92.776C38.1676 92.58 38.6716 92.482 39.2129 92.482C39.6889 92.482 40.1323 92.5753 40.5429 92.762C40.9536 92.9393 41.3083 93.1867 41.6069 93.504C41.9149 93.8213 42.1483 94.1993 42.3069 94.638C42.4749 95.0673 42.5543 95.5387 42.5449 96.052L42.5309 96.668H36.5249L36.2029 95.52H41.2849L41.0749 95.758V95.422C41.0469 95.114 40.9443 94.8387 40.7669 94.596C40.5896 94.3533 40.3656 94.162 40.0949 94.022C39.8243 93.882 39.5303 93.812 39.2129 93.812C38.7089 93.812 38.2843 93.91 37.9389 94.106C37.5936 94.2927 37.3323 94.5727 37.1549 94.946C36.9776 95.31 36.8889 95.7627 36.8889 96.304C36.8889 96.8173 36.9963 97.2653 37.2109 97.648C37.4256 98.0213 37.7289 98.3107 38.1209 98.516C38.5129 98.7213 38.9656 98.824 39.4789 98.824C39.8429 98.824 40.1789 98.7633 40.4869 98.642C40.8043 98.5207 41.1449 98.3013 41.5089 97.984L42.2369 99.006C42.0129 99.23 41.7376 99.426 41.4109 99.594C41.0936 99.762 40.7529 99.8973 40.3889 100C40.0343 100.093 39.6843 100.14 39.3389 100.14ZM47.0021 100.14C46.3861 100.14 45.8307 100.033 45.3361 99.818C44.8414 99.6033 44.4307 99.286 44.1041 98.866L45.0841 98.026C45.3641 98.3527 45.6674 98.5907 45.9941 98.74C46.3301 98.88 46.7081 98.95 47.1281 98.95C47.2961 98.95 47.4501 98.9313 47.5901 98.894C47.7394 98.8473 47.8654 98.782 47.9681 98.698C48.0801 98.614 48.1641 98.516 48.2201 98.404C48.2761 98.2827 48.3041 98.152 48.3041 98.012C48.3041 97.7693 48.2154 97.5733 48.0381 97.424C47.9447 97.3587 47.7954 97.2887 47.5901 97.214C47.3941 97.13 47.1374 97.046 46.8201 96.962C46.2787 96.822 45.8354 96.6633 45.4901 96.486C45.1447 96.3087 44.8787 96.108 44.6921 95.884C44.5521 95.7067 44.4494 95.5153 44.3841 95.31C44.3187 95.0953 44.2861 94.862 44.2861 94.61C44.2861 94.302 44.3514 94.022 44.4821 93.77C44.6221 93.5087 44.8087 93.2847 45.0421 93.098C45.2847 92.902 45.5647 92.7527 45.8821 92.65C46.2087 92.5473 46.5541 92.496 46.9181 92.496C47.2634 92.496 47.6041 92.5427 47.9401 92.636C48.2854 92.7293 48.6027 92.8647 48.8921 93.042C49.1814 93.2193 49.4241 93.4293 49.6201 93.672L48.7941 94.582C48.6167 94.4047 48.4207 94.2507 48.2061 94.12C48.0007 93.98 47.7907 93.8727 47.5761 93.798C47.3614 93.7233 47.1654 93.686 46.9881 93.686C46.7921 93.686 46.6147 93.7047 46.4561 93.742C46.2974 93.7793 46.1621 93.8353 46.0501 93.91C45.9474 93.9847 45.8681 94.078 45.8121 94.19C45.7561 94.302 45.7281 94.428 45.7281 94.568C45.7374 94.6893 45.7654 94.806 45.8121 94.918C45.8681 95.0207 45.9427 95.1093 46.0361 95.184C46.1387 95.2587 46.2927 95.338 46.4981 95.422C46.7034 95.506 46.9647 95.5853 47.2821 95.66C47.7487 95.7813 48.1314 95.9167 48.4301 96.066C48.7381 96.206 48.9807 96.3693 49.1581 96.556C49.3447 96.7333 49.4754 96.9387 49.5501 97.172C49.6247 97.4053 49.6621 97.6667 49.6621 97.956C49.6621 98.376 49.5407 98.754 49.2981 99.09C49.0647 99.4167 48.7474 99.6733 48.3461 99.86C47.9447 100.047 47.4967 100.14 47.0021 100.14ZM55.1213 100.14C54.3653 100.14 53.6933 99.9813 53.1053 99.664C52.5266 99.3373 52.0693 98.894 51.7333 98.334C51.4066 97.774 51.2433 97.13 51.2433 96.402C51.2433 95.8233 51.3366 95.296 51.5233 94.82C51.7099 94.344 51.9666 93.9333 52.2933 93.588C52.6293 93.2333 53.0259 92.9627 53.4833 92.776C53.9499 92.58 54.4539 92.482 54.9953 92.482C55.4713 92.482 55.9146 92.5753 56.3253 92.762C56.7359 92.9393 57.0906 93.1867 57.3893 93.504C57.6973 93.8213 57.9306 94.1993 58.0893 94.638C58.2573 95.0673 58.3366 95.5387 58.3273 96.052L58.3133 96.668H52.3073L51.9853 95.52H57.0673L56.8573 95.758V95.422C56.8293 95.114 56.7266 94.8387 56.5493 94.596C56.3719 94.3533 56.1479 94.162 55.8773 94.022C55.6066 93.882 55.3126 93.812 54.9953 93.812C54.4913 93.812 54.0666 93.91 53.7213 94.106C53.3759 94.2927 53.1146 94.5727 52.9373 94.946C52.7599 95.31 52.6713 95.7627 52.6713 96.304C52.6713 96.8173 52.7786 97.2653 52.9933 97.648C53.2079 98.0213 53.5113 98.3107 53.9033 98.516C54.2953 98.7213 54.7479 98.824 55.2613 98.824C55.6253 98.824 55.9613 98.7633 56.2693 98.642C56.5866 98.5207 56.9273 98.3013 57.2913 97.984L58.0193 99.006C57.7953 99.23 57.5199 99.426 57.1933 99.594C56.8759 99.762 56.5353 99.8973 56.1713 100C55.8166 100.093 55.4666 100.14 55.1213 100.14ZM63.1624 100.14C62.5557 100.14 62.0004 99.972 61.4964 99.636C61.0017 99.3 60.6051 98.8427 60.3064 98.264C60.0077 97.6853 59.8584 97.032 59.8584 96.304C59.8584 95.5667 60.0077 94.9133 60.3064 94.344C60.6144 93.7653 61.0251 93.3127 61.5384 92.986C62.0611 92.6593 62.6444 92.496 63.2884 92.496C63.6711 92.496 64.0211 92.552 64.3384 92.664C64.6557 92.776 64.9311 92.9347 65.1644 93.14C65.4071 93.336 65.6031 93.5647 65.7524 93.826C65.9111 94.0873 66.0091 94.3673 66.0464 94.666L65.7244 94.554V92.65H67.1804V100H65.7244V98.25L66.0604 98.152C66.0044 98.404 65.8877 98.6513 65.7104 98.894C65.5424 99.1273 65.3231 99.3373 65.0524 99.524C64.7911 99.7107 64.4971 99.86 64.1704 99.972C63.8531 100.084 63.5171 100.14 63.1624 100.14ZM63.5404 98.81C63.9791 98.81 64.3664 98.7027 64.7024 98.488C65.0384 98.2733 65.2997 97.9793 65.4864 97.606C65.6824 97.2233 65.7804 96.7893 65.7804 96.304C65.7804 95.828 65.6824 95.4033 65.4864 95.03C65.2997 94.6567 65.0384 94.3627 64.7024 94.148C64.3664 93.9333 63.9791 93.826 63.5404 93.826C63.1111 93.826 62.7284 93.9333 62.3924 94.148C62.0657 94.3627 61.8044 94.6567 61.6084 95.03C61.4217 95.4033 61.3284 95.828 61.3284 96.304C61.3284 96.7893 61.4217 97.2233 61.6084 97.606C61.8044 97.9793 62.0657 98.2733 62.3924 98.488C62.7284 98.7027 63.1111 98.81 63.5404 98.81ZM69.6338 100V92.65H71.0898V94.96L70.9498 94.4C71.0524 94.0453 71.2251 93.7233 71.4678 93.434C71.7198 93.1447 72.0044 92.916 72.3218 92.748C72.6484 92.58 72.9844 92.496 73.3298 92.496C73.4884 92.496 73.6378 92.51 73.7778 92.538C73.9271 92.566 74.0438 92.5987 74.1278 92.636L73.7498 94.204C73.6378 94.1573 73.5118 94.12 73.3718 94.092C73.2411 94.0547 73.1104 94.036 72.9798 94.036C72.7278 94.036 72.4851 94.0873 72.2518 94.19C72.0278 94.2833 71.8271 94.4187 71.6498 94.596C71.4818 94.764 71.3464 94.9647 71.2438 95.198C71.1411 95.422 71.0898 95.6693 71.0898 95.94V100H69.6338ZM78.5278 100.14C77.8465 100.14 77.2351 99.972 76.6938 99.636C76.1618 99.3 75.7371 98.8427 75.4198 98.264C75.1118 97.6853 74.9578 97.0367 74.9578 96.318C74.9578 95.5993 75.1118 94.9507 75.4198 94.372C75.7371 93.7933 76.1618 93.336 76.6938 93C77.2351 92.664 77.8465 92.496 78.5278 92.496C79.1811 92.496 79.7738 92.6313 80.3058 92.902C80.8471 93.1633 81.2578 93.5227 81.5378 93.98L80.7398 94.96C80.5905 94.7453 80.3991 94.5493 80.1658 94.372C79.9325 94.1947 79.6851 94.0547 79.4238 93.952C79.1625 93.8493 78.9105 93.798 78.6678 93.798C78.2198 93.798 77.8185 93.91 77.4638 94.134C77.1185 94.3487 76.8431 94.6473 76.6378 95.03C76.4325 95.4127 76.3298 95.842 76.3298 96.318C76.3298 96.794 76.4371 97.2233 76.6518 97.606C76.8665 97.9793 77.1511 98.278 77.5058 98.502C77.8605 98.726 78.2525 98.838 78.6818 98.838C78.9338 98.838 79.1765 98.796 79.4098 98.712C79.6525 98.628 79.8858 98.502 80.1098 98.334C80.3338 98.166 80.5438 97.9607 80.7398 97.718L81.5378 98.698C81.2391 99.118 80.8098 99.4633 80.2498 99.734C79.6991 100.005 79.1251 100.14 78.5278 100.14ZM83.338 100V89.64H84.78V94.162L84.528 94.33C84.6213 94.0033 84.8033 93.7047 85.074 93.434C85.3447 93.154 85.6667 92.93 86.04 92.762C86.4133 92.5847 86.796 92.496 87.188 92.496C87.748 92.496 88.2147 92.608 88.588 92.832C88.9613 93.0467 89.2413 93.378 89.428 93.826C89.6147 94.274 89.708 94.8387 89.708 95.52V100H88.266V95.618C88.266 95.198 88.21 94.8527 88.098 94.582C87.986 94.302 87.8133 94.1013 87.58 93.98C87.3467 93.8493 87.0573 93.7933 86.712 93.812C86.432 93.812 86.1753 93.8587 85.942 93.952C85.7087 94.036 85.5033 94.1573 85.326 94.316C85.158 94.4747 85.0227 94.6613 84.92 94.876C84.8267 95.0813 84.78 95.3053 84.78 95.548V100H84.066C83.9447 100 83.8233 100 83.702 100C83.5807 100 83.4593 100 83.338 100Z" fill="#5F7096"/>
<path d="M142.598 99.598C141.954 99.598 141.371 99.4533 140.848 99.164C140.325 98.8653 139.891 98.4407 139.546 97.89L140.386 96.952C140.825 97.4373 141.207 97.7687 141.534 97.946C141.861 98.1233 142.215 98.212 142.598 98.212C142.981 98.212 143.326 98.128 143.634 97.96C143.942 97.792 144.185 97.5633 144.362 97.274C144.549 96.9847 144.642 96.6627 144.642 96.308C144.642 95.9347 144.553 95.6033 144.376 95.314C144.208 95.0153 143.979 94.782 143.69 94.614C143.401 94.4367 143.074 94.348 142.71 94.348C142.533 94.348 142.365 94.362 142.206 94.39C142.047 94.4087 141.856 94.46 141.632 94.544C141.408 94.628 141.114 94.7587 140.75 94.936L139.952 93.858L140.526 89.7H145.818V91.1H141.478L141.772 90.834L141.31 93.942L140.96 93.536C141.053 93.4427 141.212 93.354 141.436 93.27C141.66 93.1767 141.907 93.102 142.178 93.046C142.458 92.9807 142.724 92.948 142.976 92.948C143.573 92.948 144.105 93.088 144.572 93.368C145.048 93.6387 145.421 94.0167 145.692 94.502C145.972 94.9873 146.112 95.5427 146.112 96.168C146.112 96.812 145.958 97.3953 145.65 97.918C145.342 98.4313 144.922 98.842 144.39 99.15C143.858 99.4487 143.261 99.598 142.598 99.598ZM150.995 99.598C150.351 99.598 149.768 99.4533 149.245 99.164C148.722 98.8653 148.288 98.4407 147.943 97.89L148.783 96.952C149.222 97.4373 149.604 97.7687 149.931 97.946C150.258 98.1233 150.612 98.212 150.995 98.212C151.378 98.212 151.723 98.128 152.031 97.96C152.339 97.792 152.582 97.5633 152.759 97.274C152.946 96.9847 153.039 96.6627 153.039 96.308C153.039 95.9347 152.95 95.6033 152.773 95.314C152.605 95.0153 152.376 94.782 152.087 94.614C151.798 94.4367 151.471 94.348 151.107 94.348C150.93 94.348 150.762 94.362 150.603 94.39C150.444 94.4087 150.253 94.46 150.029 94.544C149.805 94.628 149.511 94.7587 149.147 94.936L148.349 93.858L148.923 89.7H154.215V91.1H149.875L150.169 90.834L149.707 93.942L149.357 93.536C149.45 93.4427 149.609 93.354 149.833 93.27C150.057 93.1767 150.304 93.102 150.575 93.046C150.855 92.9807 151.121 92.948 151.373 92.948C151.97 92.948 152.502 93.088 152.969 93.368C153.445 93.6387 153.818 94.0167 154.089 94.502C154.369 94.9873 154.509 95.5427 154.509 96.168C154.509 96.812 154.355 97.3953 154.047 97.918C153.739 98.4313 153.319 98.842 152.787 99.15C152.255 99.4487 151.658 99.598 150.995 99.598ZM159.308 99.64C158.617 99.64 158.015 99.4813 157.502 99.164C156.998 98.8467 156.522 98.3147 156.074 97.568L157.25 96.826C157.483 97.1713 157.712 97.456 157.936 97.68C158.169 97.8947 158.407 98.0533 158.65 98.156C158.893 98.2587 159.149 98.31 159.42 98.31C159.747 98.31 160.05 98.2307 160.33 98.072C160.61 97.904 160.834 97.6753 161.002 97.386C161.17 97.0967 161.254 96.77 161.254 96.406C161.254 96.042 161.189 95.734 161.058 95.482C160.927 95.2207 160.736 95.0247 160.484 94.894C160.232 94.754 159.933 94.684 159.588 94.684C159.429 94.684 159.261 94.7027 159.084 94.74C158.916 94.768 158.734 94.8147 158.538 94.88C158.342 94.936 158.127 95.0107 157.894 95.104L157.474 93.998L160.498 90.666L160.792 91.1H156.62V89.7H162.234L162.514 90.26L159.308 93.816L158.958 93.452C159.033 93.4147 159.154 93.382 159.322 93.354C159.499 93.3167 159.644 93.298 159.756 93.298C160.167 93.298 160.549 93.3773 160.904 93.536C161.268 93.6853 161.581 93.9 161.842 94.18C162.113 94.4507 162.323 94.7727 162.472 95.146C162.631 95.51 162.71 95.902 162.71 96.322C162.71 96.9567 162.556 97.526 162.248 98.03C161.949 98.5247 161.543 98.9167 161.03 99.206C160.517 99.4953 159.943 99.64 159.308 99.64Z" fill="#9292C1"/>
<rect opacity="0.7" x="187" y="84.5" width="17" height="21" rx="1" fill="white"/>
<rect opacity="0.7" x="206" y="84.5" width="14" height="21" rx="1" fill="white"/>
<rect opacity="0.7" x="222" y="84.5" width="14" height="21" rx="1" fill="white"/>
<rect opacity="0.7" x="238" y="84.5" width="17" height="21" rx="1" fill="white"/>
<path d="M187 90.5C195.627 90.5 193.851 97.25 204 97.25C214.149 97.25 212.373 93.5 221 93.5C229.627 93.5 229.262 98.375 236 98.375C242.54 98.375 245.373 90.5 254 90.5" stroke="url(#paint2_linear_2932_11427)" stroke-width="2" stroke-linejoin="round"/>
</g>
<defs>
<linearGradient id="paint0_linear_2932_11427" x1="255" y1="28.25" x2="188.697" y2="28.6003" gradientUnits="userSpaceOnUse">
<stop stop-color="#E323FF"/>
<stop offset="1" stop-color="#7517F8"/>
</linearGradient>
<linearGradient id="paint1_linear_2932_11427" x1="221" y1="57.5" x2="221" y2="68.4524" gradientUnits="userSpaceOnUse">
<stop stop-color="#8AFF6C"/>
<stop offset="1" stop-color="#02C751"/>
</linearGradient>
<linearGradient id="paint2_linear_2932_11427" x1="254" y1="92.4687" x2="188.674" y2="92.9438" gradientUnits="userSpaceOnUse">
<stop stop-color="#FFD422"/>
<stop offset="1" stop-color="#FF7D05"/>
</linearGradient>
<clipPath id="clip0_2932_11427">
<rect width="230" height="21" fill="white" transform="translate(25 20.5)"/>
</clipPath>
<clipPath id="clip1_2932_11427">
<rect width="230" height="21" fill="white" transform="translate(25 52.5)"/>
</clipPath>
<clipPath id="clip2_2932_11427">
<rect width="230" height="21" fill="white" transform="translate(25 84.5)"/>
</clipPath>
</defs>
</svg>
