<svg width="24" height="24" viewBox="0 0 24 24" fill="none" xmlns="http://www.w3.org/2000/svg">
<g clip-path="url(#clip0_497_27394)">
<path d="M13.586 12.9998H1C0.734784 12.9998 0.48043 12.8944 0.292893 12.7069C0.105357 12.5193 0 12.265 0 11.9998C0 11.7345 0.105357 11.4802 0.292893 11.2927C0.48043 11.1051 0.734784 10.9998 1 10.9998H13.586L11.293 8.70676C11.1975 8.61451 11.1213 8.50417 11.0689 8.38217C11.0165 8.26016 10.9889 8.12894 10.9877 7.99616C10.9866 7.86338 11.0119 7.7317 11.0622 7.60881C11.1125 7.48591 11.1867 7.37426 11.2806 7.28037C11.3745 7.18647 11.4861 7.11222 11.609 7.06194C11.7319 7.01166 11.8636 6.98636 11.9964 6.98751C12.1292 6.98867 12.2604 7.01625 12.3824 7.06866C12.5044 7.12107 12.6148 7.19725 12.707 7.29276L16.707 11.2928C16.8002 11.3854 16.8741 11.4956 16.9246 11.6169C16.9751 11.7382 17.001 11.8684 17.001 11.9998C17.001 12.1312 16.9751 12.2613 16.9246 12.3826C16.8741 12.5039 16.8002 12.6141 16.707 12.7068L12.707 16.7068C12.5184 16.8889 12.2658 16.9897 12.0036 16.9874C11.7414 16.9852 11.4906 16.88 11.3052 16.6946C11.1198 16.5092 11.0146 16.2584 11.0123 15.9962C11.01 15.734 11.1108 15.4814 11.293 15.2928L13.586 12.9998ZM4.929 4.92876C4.7404 5.11092 4.4878 5.21171 4.2256 5.20944C3.9634 5.20716 3.71259 5.10199 3.52718 4.91658C3.34177 4.73117 3.2366 4.48036 3.23433 4.21816C3.23205 3.95597 3.33284 3.70336 3.515 3.51476C8.201 -1.17224 15.799 -1.17224 20.485 3.51476C25.172 8.20076 25.172 15.7988 20.485 20.4848C15.799 25.1718 8.201 25.1718 3.515 20.4848C3.33284 20.2962 3.23205 20.0436 3.23433 19.7814C3.2366 19.5192 3.34177 19.2684 3.52718 19.0829C3.71259 18.8975 3.9634 18.7924 4.2256 18.7901C4.4878 18.7878 4.7404 18.8886 4.929 19.0708C8.834 22.9758 15.166 22.9758 19.071 19.0708C22.976 15.1658 22.976 8.83376 19.071 4.92876C15.166 1.02376 8.834 1.02376 4.929 4.92876Z" fill="#C4CAD9"/>
</g>
<defs>
<clipPath id="clip0_497_27394">
<rect width="24" height="24" fill="white"/>
</clipPath>
</defs>
</svg>
