<svg width="181" height="188" viewBox="0 0 181 188" fill="none" xmlns="http://www.w3.org/2000/svg">
<g filter="url(#filter0_d_1125_33581)">
<rect x="5" y="5" width="171" height="178" rx="6" fill="#F5F7F9"/>
<rect x="5.5" y="5.5" width="170" height="177" rx="5.5" stroke="#3D8798" stroke-linecap="round" stroke-linejoin="round" stroke-dasharray="4 4"/>
</g>
<path d="M52.9738 118.818H54.515V125.515C54.515 126.228 54.3476 126.859 54.0129 127.409C53.6781 127.956 53.2075 128.387 52.6009 128.702C51.9944 129.013 51.2835 129.169 50.4681 129.169C49.6561 129.169 48.9468 129.013 48.3403 128.702C47.7338 128.387 47.2631 127.956 46.9284 127.409C46.5936 126.859 46.4262 126.228 46.4262 125.515V118.818H47.9624V125.391C47.9624 125.851 48.0635 126.261 48.2657 126.619C48.4712 126.977 48.7612 127.258 49.1357 127.464C49.5103 127.666 49.9544 127.767 50.4681 127.767C50.9852 127.767 51.431 127.666 51.8055 127.464C52.1833 127.258 52.4717 126.977 52.6705 126.619C52.8727 126.261 52.9738 125.851 52.9738 125.391V118.818ZM56.6292 131.864V121.364H58.0809V122.602H58.2052C58.2913 122.442 58.4156 122.259 58.578 122.05C58.7404 121.841 58.9658 121.659 59.2542 121.503C59.5425 121.344 59.9237 121.264 60.3976 121.264C61.0141 121.264 61.5643 121.42 62.0482 121.732C62.5321 122.043 62.9116 122.492 63.1867 123.079C63.4651 123.665 63.6043 124.371 63.6043 125.197C63.6043 126.022 63.4668 126.73 63.1917 127.32C62.9166 127.906 62.5387 128.359 62.0581 128.677C61.5776 128.992 61.029 129.149 60.4126 129.149C59.9485 129.149 59.569 129.071 59.2741 128.915C58.9824 128.76 58.7537 128.577 58.588 128.369C58.4223 128.16 58.2947 127.974 58.2052 127.812H58.1157V131.864H56.6292ZM58.0858 125.182C58.0858 125.719 58.1637 126.189 58.3195 126.594C58.4753 126.998 58.7007 127.315 58.9956 127.543C59.2906 127.769 59.6519 127.881 60.0795 127.881C60.5236 127.881 60.8948 127.764 61.1931 127.528C61.4914 127.29 61.7168 126.967 61.8692 126.559C62.025 126.151 62.1029 125.692 62.1029 125.182C62.1029 124.678 62.0267 124.226 61.8742 123.825C61.7251 123.424 61.4997 123.107 61.1981 122.875C60.8998 122.643 60.5269 122.527 60.0795 122.527C59.6486 122.527 59.284 122.638 58.9857 122.86C58.6907 123.082 58.467 123.392 58.3145 123.79C58.1621 124.187 58.0858 124.652 58.0858 125.182ZM66.7563 118.818V129H65.2698V118.818H66.7563ZM71.9727 129.154C71.2568 129.154 70.6321 128.99 70.0985 128.662C69.5648 128.334 69.1505 127.875 68.8556 127.285C68.5606 126.695 68.4131 126.005 68.4131 125.217C68.4131 124.424 68.5606 123.732 68.8556 123.138C69.1505 122.545 69.5648 122.085 70.0985 121.756C70.6321 121.428 71.2568 121.264 71.9727 121.264C72.6887 121.264 73.3134 121.428 73.847 121.756C74.3807 122.085 74.795 122.545 75.0899 123.138C75.3849 123.732 75.5324 124.424 75.5324 125.217C75.5324 126.005 75.3849 126.695 75.0899 127.285C74.795 127.875 74.3807 128.334 73.847 128.662C73.3134 128.99 72.6887 129.154 71.9727 129.154ZM71.9777 127.906C72.4417 127.906 72.8262 127.784 73.1311 127.538C73.4361 127.293 73.6614 126.967 73.8073 126.559C73.9564 126.151 74.031 125.702 74.031 125.212C74.031 124.724 73.9564 124.277 73.8073 123.869C73.6614 123.458 73.4361 123.129 73.1311 122.88C72.8262 122.631 72.4417 122.507 71.9777 122.507C71.5104 122.507 71.1226 122.631 70.8144 122.88C70.5094 123.129 70.2824 123.458 70.1333 123.869C69.9874 124.277 69.9145 124.724 69.9145 125.212C69.9145 125.702 69.9874 126.151 70.1333 126.559C70.2824 126.967 70.5094 127.293 70.8144 127.538C71.1226 127.784 71.5104 127.906 71.9777 127.906ZM79.414 129.169C78.9301 129.169 78.4926 129.08 78.1015 128.901C77.7104 128.718 77.4005 128.455 77.1718 128.11C76.9464 127.765 76.8337 127.343 76.8337 126.842C76.8337 126.411 76.9166 126.057 77.0823 125.778C77.248 125.5 77.4717 125.28 77.7535 125.117C78.0352 124.955 78.3501 124.832 78.6981 124.749C79.0461 124.666 79.4007 124.603 79.762 124.56C80.2194 124.507 80.5906 124.464 80.8756 124.431C81.1607 124.395 81.3678 124.337 81.4971 124.257C81.6263 124.178 81.691 124.048 81.691 123.869V123.835C81.691 123.4 81.5683 123.064 81.3231 122.825C81.0811 122.587 80.7198 122.467 80.2393 122.467C79.7388 122.467 79.3444 122.578 79.056 122.8C78.771 123.019 78.5738 123.263 78.4644 123.531L77.0674 123.213C77.2331 122.749 77.4751 122.375 77.7932 122.089C78.1147 121.801 78.4843 121.592 78.9019 121.463C79.3195 121.33 79.7587 121.264 80.2194 121.264C80.5243 121.264 80.8474 121.301 81.1888 121.374C81.5335 121.443 81.855 121.572 82.1533 121.761C82.4549 121.95 82.7019 122.22 82.8941 122.572C83.0863 122.92 83.1824 123.372 83.1824 123.929V129H81.7307V127.956H81.6711C81.575 128.148 81.4308 128.337 81.2385 128.523C81.0463 128.708 80.7994 128.862 80.4978 128.985C80.1962 129.108 79.8349 129.169 79.414 129.169ZM79.7371 127.976C80.1481 127.976 80.4994 127.895 80.7911 127.732C81.0861 127.57 81.3098 127.358 81.4623 127.096C81.618 126.831 81.6959 126.547 81.6959 126.246V125.261C81.6429 125.314 81.5402 125.364 81.3877 125.411C81.2385 125.454 81.0679 125.492 80.8756 125.525C80.6834 125.555 80.4961 125.583 80.3138 125.609C80.1315 125.633 79.9791 125.652 79.8564 125.669C79.5681 125.705 79.3046 125.767 79.066 125.853C78.8306 125.939 78.6417 126.063 78.4992 126.226C78.36 126.385 78.2904 126.597 78.2904 126.862C78.2904 127.23 78.4263 127.509 78.6981 127.697C78.9698 127.883 79.3162 127.976 79.7371 127.976ZM88.021 129.149C87.4046 129.149 86.8544 128.992 86.3705 128.677C85.8899 128.359 85.512 127.906 85.2369 127.32C84.9652 126.73 84.8293 126.022 84.8293 125.197C84.8293 124.371 84.9668 123.665 85.2419 123.079C85.5203 122.492 85.9015 122.043 86.3854 121.732C86.8693 121.42 87.4178 121.264 88.031 121.264C88.5049 121.264 88.8861 121.344 89.1744 121.503C89.4661 121.659 89.6915 121.841 89.8506 122.05C90.013 122.259 90.1389 122.442 90.2284 122.602H90.3179V118.818H91.8044V129H90.3527V127.812H90.2284C90.1389 127.974 90.0097 128.16 89.8406 128.369C89.6749 128.577 89.4462 128.76 89.1546 128.915C88.8629 129.071 88.4851 129.149 88.021 129.149ZM88.3492 127.881C88.7767 127.881 89.138 127.769 89.433 127.543C89.7313 127.315 89.9566 126.998 90.1091 126.594C90.2649 126.189 90.3428 125.719 90.3428 125.182C90.3428 124.652 90.2665 124.187 90.1141 123.79C89.9616 123.392 89.7379 123.082 89.4429 122.86C89.1479 122.638 88.7834 122.527 88.3492 122.527C87.9017 122.527 87.5289 122.643 87.2306 122.875C86.9323 123.107 86.7069 123.424 86.5544 123.825C86.4053 124.226 86.3307 124.678 86.3307 125.182C86.3307 125.692 86.4069 126.151 86.5594 126.559C86.7119 126.967 86.9372 127.29 87.2355 127.528C87.5371 127.764 87.9084 127.881 88.3492 127.881ZM97.6311 131.864V121.364H99.0828V122.602H99.2071C99.2933 122.442 99.4176 122.259 99.58 122.05C99.7424 121.841 99.9678 121.659 100.256 121.503C100.544 121.344 100.926 121.264 101.4 121.264C102.016 121.264 102.566 121.42 103.05 121.732C103.534 122.043 103.914 122.492 104.189 123.079C104.467 123.665 104.606 124.371 104.606 125.197C104.606 126.022 104.469 126.73 104.194 127.32C103.919 127.906 103.541 128.359 103.06 128.677C102.58 128.992 102.031 129.149 101.415 129.149C100.95 129.149 100.571 129.071 100.276 128.915C99.9843 128.76 99.7557 128.577 99.5899 128.369C99.4242 128.16 99.2966 127.974 99.2071 127.812H99.1176V131.864H97.6311ZM99.0878 125.182C99.0878 125.719 99.1657 126.189 99.3215 126.594C99.4772 126.998 99.7026 127.315 99.9976 127.543C100.293 127.769 100.654 127.881 101.081 127.881C101.526 127.881 101.897 127.764 102.195 127.528C102.493 127.29 102.719 126.967 102.871 126.559C103.027 126.151 103.105 125.692 103.105 125.182C103.105 124.678 103.029 124.226 102.876 123.825C102.727 123.424 102.502 123.107 102.2 122.875C101.902 122.643 101.529 122.527 101.081 122.527C100.651 122.527 100.286 122.638 99.9877 122.86C99.6927 123.082 99.469 123.392 99.3165 123.79C99.164 124.187 99.0878 124.652 99.0878 125.182ZM107.758 124.466V129H106.272V118.818H107.738V122.607H107.833C108.012 122.196 108.285 121.869 108.653 121.627C109.021 121.385 109.502 121.264 110.095 121.264C110.619 121.264 111.076 121.372 111.467 121.587C111.861 121.803 112.166 122.124 112.382 122.552C112.601 122.976 112.71 123.506 112.71 124.143V129H111.223V124.322C111.223 123.762 111.079 123.327 110.791 123.019C110.503 122.708 110.102 122.552 109.588 122.552C109.236 122.552 108.922 122.626 108.643 122.776C108.368 122.925 108.151 123.143 107.992 123.432C107.836 123.717 107.758 124.062 107.758 124.466ZM117.91 129.154C117.194 129.154 116.57 128.99 116.036 128.662C115.502 128.334 115.088 127.875 114.793 127.285C114.498 126.695 114.351 126.005 114.351 125.217C114.351 124.424 114.498 123.732 114.793 123.138C115.088 122.545 115.502 122.085 116.036 121.756C116.57 121.428 117.194 121.264 117.91 121.264C118.626 121.264 119.251 121.428 119.785 121.756C120.318 122.085 120.732 122.545 121.027 123.138C121.322 123.732 121.47 124.424 121.47 125.217C121.47 126.005 121.322 126.695 121.027 127.285C120.732 127.875 120.318 128.334 119.785 128.662C119.251 128.99 118.626 129.154 117.91 129.154ZM117.915 127.906C118.379 127.906 118.764 127.784 119.069 127.538C119.374 127.293 119.599 126.967 119.745 126.559C119.894 126.151 119.968 125.702 119.968 125.212C119.968 124.724 119.894 124.277 119.745 123.869C119.599 123.458 119.374 123.129 119.069 122.88C118.764 122.631 118.379 122.507 117.915 122.507C117.448 122.507 117.06 122.631 116.752 122.88C116.447 123.129 116.22 123.458 116.071 123.869C115.925 124.277 115.852 124.724 115.852 125.212C115.852 125.702 115.925 126.151 116.071 126.559C116.22 126.967 116.447 127.293 116.752 127.538C117.06 127.784 117.448 127.906 117.915 127.906ZM126.694 121.364V122.557H122.523V121.364H126.694ZM123.641 119.534H125.128V126.758C125.128 127.046 125.171 127.263 125.257 127.409C125.343 127.552 125.454 127.649 125.59 127.702C125.729 127.752 125.88 127.777 126.043 127.777C126.162 127.777 126.266 127.769 126.356 127.752C126.445 127.736 126.515 127.722 126.565 127.712L126.833 128.94C126.747 128.973 126.624 129.007 126.465 129.04C126.306 129.076 126.107 129.096 125.869 129.099C125.477 129.106 125.113 129.036 124.775 128.891C124.437 128.745 124.163 128.519 123.954 128.214C123.746 127.91 123.641 127.527 123.641 127.066V119.534ZM131.473 129.154C130.757 129.154 130.132 128.99 129.598 128.662C129.065 128.334 128.651 127.875 128.356 127.285C128.061 126.695 127.913 126.005 127.913 125.217C127.913 124.424 128.061 123.732 128.356 123.138C128.651 122.545 129.065 122.085 129.598 121.756C130.132 121.428 130.757 121.264 131.473 121.264C132.189 121.264 132.813 121.428 133.347 121.756C133.881 122.085 134.295 122.545 134.59 123.138C134.885 123.732 135.032 124.424 135.032 125.217C135.032 126.005 134.885 126.695 134.59 127.285C134.295 127.875 133.881 128.334 133.347 128.662C132.813 128.99 132.189 129.154 131.473 129.154ZM131.478 127.906C131.942 127.906 132.326 127.784 132.631 127.538C132.936 127.293 133.161 126.967 133.307 126.559C133.456 126.151 133.531 125.702 133.531 125.212C133.531 124.724 133.456 124.277 133.307 123.869C133.161 123.458 132.936 123.129 132.631 122.88C132.326 122.631 131.942 122.507 131.478 122.507C131.01 122.507 130.623 122.631 130.314 122.88C130.009 123.129 129.782 123.458 129.633 123.869C129.487 124.277 129.415 124.724 129.415 125.212C129.415 125.702 129.487 126.151 129.633 126.559C129.782 126.967 130.009 127.293 130.314 127.538C130.623 127.784 131.01 127.906 131.478 127.906Z" fill="#3D8798"/>
<path d="M92.667 60.166H82.0003C79.0548 60.166 76.667 62.5538 76.667 65.4993V81.4993C76.667 84.4449 79.0548 86.8327 82.0003 86.8327H98.0003C100.946 86.8327 103.334 84.4449 103.334 81.4993V70.8327M99.3337 60.166V68.166M103.334 64.166L95.3337 64.166M103.334 76.166L99.415 73.3446C97.3787 71.8785 94.5959 72.03 92.7309 73.7085L87.2698 78.6235C85.4047 80.302 82.6219 80.4536 80.5857 78.9875L76.667 76.166M88.667 68.8327C88.667 70.6736 87.1746 72.166 85.3337 72.166C83.4927 72.166 82.0003 70.6736 82.0003 68.8327C82.0003 66.9917 83.4927 65.4993 85.3337 65.4993C87.1746 65.4993 88.667 66.9917 88.667 68.8327Z" stroke="#3D8798" stroke-width="1.8125" stroke-linecap="round"/>
<defs>
<filter id="filter0_d_1125_33581" x="0" y="0" width="181" height="188" filterUnits="userSpaceOnUse" color-interpolation-filters="sRGB">
<feFlood flood-opacity="0" result="BackgroundImageFix"/>
<feColorMatrix in="SourceAlpha" type="matrix" values="0 0 0 0 0 0 0 0 0 0 0 0 0 0 0 0 0 0 127 0" result="hardAlpha"/>
<feMorphology radius="5" operator="dilate" in="SourceAlpha" result="effect1_dropShadow_1125_33581"/>
<feOffset/>
<feComposite in2="hardAlpha" operator="out"/>
<feColorMatrix type="matrix" values="0 0 0 0 0.960784 0 0 0 0 0.968627 0 0 0 0 0.976471 0 0 0 1 0"/>
<feBlend mode="normal" in2="BackgroundImageFix" result="effect1_dropShadow_1125_33581"/>
<feBlend mode="normal" in="SourceGraphic" in2="effect1_dropShadow_1125_33581" result="shape"/>
</filter>
</defs>
</svg>
