<svg width="32" height="32" viewBox="0 0 32 32" fill="none" xmlns="http://www.w3.org/2000/svg">
<path d="M28 6.43286H4C3.46957 6.43286 2.96086 6.64357 2.58579 7.01865C2.21071 7.39372 2 7.90243 2 8.43286V12.5454V24.4204C2 24.9508 2.21071 25.4595 2.58579 25.8346C2.96086 26.2096 3.46957 26.4204 4 26.4204H28C28.5304 26.4204 29.0391 26.2096 29.4142 25.8346C29.7893 25.4595 30 24.9508 30 24.4204V8.43286C30 7.90243 29.7893 7.39372 29.4142 7.01865C29.0391 6.64357 28.5304 6.43286 28 6.43286ZM17 22.4329H15C14.7348 22.4329 14.4804 22.3275 14.2929 22.14C14.1054 21.9524 14 21.6981 14 21.4329C14 21.1676 14.1054 20.9133 14.2929 20.7258C14.4804 20.5382 14.7348 20.4329 15 20.4329H17C17.2652 20.4329 17.5196 20.5382 17.7071 20.7258C17.8946 20.9133 18 21.1676 18 21.4329C18 21.6981 17.8946 21.9524 17.7071 22.14C17.5196 22.3275 17.2652 22.4329 17 22.4329ZM25 22.4329H21C20.7348 22.4329 20.4804 22.3275 20.2929 22.14C20.1054 21.9524 20 21.6981 20 21.4329C20 21.1676 20.1054 20.9133 20.2929 20.7258C20.4804 20.5382 20.7348 20.4329 21 20.4329H25C25.2652 20.4329 25.5196 20.5382 25.7071 20.7258C25.8946 20.9133 26 21.1676 26 21.4329C26 21.6981 25.8946 21.9524 25.7071 22.14C25.5196 22.3275 25.2652 22.4329 25 22.4329ZM4 11.5454V8.43286H28V11.5454H4Z" fill="#3D8798"/>
</svg>
