<svg width="32" height="32" viewBox="0 0 32 32" fill="none" xmlns="http://www.w3.org/2000/svg">
<path d="M28 26.6665C28 27.0202 27.8595 27.3593 27.6095 27.6094C27.3594 27.8594 27.0203 27.9999 26.6667 27.9999H5.33333C4.97971 27.9999 4.64057 27.8594 4.39052 27.6094C4.14048 27.3593 4 27.0202 4 26.6665V12.6532C3.99986 12.45 4.04616 12.2495 4.13535 12.0669C4.22455 11.8844 4.35429 11.7246 4.51467 11.5999L15.1813 3.30387C15.4154 3.1218 15.7035 3.02295 16 3.02295C16.2965 3.02295 16.5846 3.1218 16.8187 3.30387L27.4853 11.5999C27.6457 11.7246 27.7754 11.8844 27.8646 12.0669C27.9538 12.2495 28.0001 12.45 28 12.6532V26.6665ZM14.6667 17.3332V25.3332H17.3333V17.3332H14.6667Z" fill="#5BA6B8"/>
</svg>
