<svg width="49" height="48" viewBox="0 0 49 48" fill="none" xmlns="http://www.w3.org/2000/svg">
<rect x="0.5" width="48" height="48" rx="10" fill="#C9D0FF"/>
<path d="M24.5 11C21.9288 11 19.4154 11.7624 17.2776 13.1909C15.1398 14.6194 13.4735 16.6497 12.4896 19.0251C11.5056 21.4006 11.2482 24.0144 11.7498 26.5362C12.2514 29.0579 13.4895 31.3743 15.3076 33.1924C17.1257 35.0105 19.4421 36.2486 21.9638 36.7502C24.4856 37.2518 27.0995 36.9944 29.4749 36.0104C31.8503 35.0265 33.8807 33.3603 35.3091 31.2224C36.7376 29.0846 37.5 26.5712 37.5 24C37.4934 20.5542 36.1216 17.2515 33.6851 14.8149C31.2486 12.3784 27.9458 11.0066 24.5 11ZM31.5 25H24.5C24.2348 25 23.9804 24.8946 23.7929 24.7071C23.6054 24.5196 23.5 24.2652 23.5 24V17C23.5 16.7348 23.6054 16.4804 23.7929 16.2929C23.9804 16.1054 24.2348 16 24.5 16C24.7652 16 25.0196 16.1054 25.2071 16.2929C25.3946 16.4804 25.5 16.7348 25.5 17V23H31.5C31.7652 23 32.0196 23.1054 32.2071 23.2929C32.3946 23.4804 32.5 23.7348 32.5 24C32.5 24.2652 32.3946 24.5196 32.2071 24.7071C32.0196 24.8946 31.7652 25 31.5 25Z" fill="#3750EB"/>
</svg>
