<svg width="117" height="40" viewBox="0 0 117 40" fill="none" xmlns="http://www.w3.org/2000/svg">
<rect y="0.841064" width="117" height="38.7417" rx="19.3709" fill="#2D9F69" fill-opacity="0.2"/>
<path d="M35.9955 25.0132V16.335H37.6939L40.8552 21.4799L39.7395 21.4675L42.938 16.335H44.562V25.0132H42.7396V22.0378C42.7396 21.2939 42.7562 20.6245 42.7892 20.0294C42.8305 19.4343 42.8967 18.8434 42.9876 18.2566L43.2107 18.8393L40.6693 22.7816H39.851L37.3592 18.8641L37.5699 18.2566C37.6608 18.8103 37.7228 19.3806 37.7559 19.9674C37.7972 20.546 37.8179 21.2361 37.8179 22.0378V25.0132H35.9955ZM49.0257 25.1371C48.4802 25.1371 47.9884 24.9884 47.5504 24.6908C47.1123 24.3933 46.7652 23.9883 46.509 23.4759C46.2528 22.9635 46.1247 22.3766 46.1247 21.7155C46.1247 21.0543 46.2528 20.4716 46.509 19.9674C46.7735 19.455 47.1289 19.0542 47.5752 18.7649C48.0215 18.4674 48.5298 18.3186 49.1 18.3186C49.4224 18.3186 49.7158 18.3682 49.9803 18.4674C50.253 18.5583 50.4886 18.6864 50.6869 18.8517C50.8935 19.017 51.0671 19.2071 51.2076 19.4219C51.3481 19.6368 51.4473 19.8683 51.5051 20.1162L51.1332 20.0542V18.455H52.8812V25.0132H51.1084V23.4387L51.5051 23.4015C51.439 23.6329 51.3316 23.8519 51.1828 24.0586C51.034 24.2652 50.8481 24.4511 50.6249 24.6164C50.41 24.7735 50.1662 24.9016 49.8935 25.0008C49.6207 25.0917 49.3315 25.1371 49.0257 25.1371ZM49.5092 23.6123C49.8398 23.6123 50.129 23.5337 50.377 23.3767C50.6249 23.2197 50.815 23.0006 50.9473 22.7196C51.0878 22.4304 51.158 22.0956 51.158 21.7155C51.158 21.3435 51.0878 21.0171 50.9473 20.7361C50.815 20.4551 50.6249 20.236 50.377 20.079C50.129 19.9137 49.8398 19.8311 49.5092 19.8311C49.1868 19.8311 48.9017 19.9137 48.6537 20.079C48.4141 20.236 48.224 20.4551 48.0835 20.7361C47.943 21.0171 47.8727 21.3435 47.8727 21.7155C47.8727 22.0956 47.943 22.4304 48.0835 22.7196C48.224 23.0006 48.4141 23.2197 48.6537 23.3767C48.9017 23.5337 49.1868 23.6123 49.5092 23.6123ZM54.795 25.0132V18.455H56.5554V25.0132H54.795ZM55.6628 17.1036C55.3239 17.1036 55.0595 17.021 54.8694 16.8557C54.6793 16.6904 54.5842 16.4548 54.5842 16.149C54.5842 15.868 54.6793 15.6408 54.8694 15.4672C55.0677 15.2854 55.3322 15.1945 55.6628 15.1945C56.0017 15.1945 56.2661 15.2812 56.4562 15.4548C56.6463 15.6201 56.7414 15.8515 56.7414 16.149C56.7414 16.4383 56.6422 16.6697 56.4438 16.8433C56.2537 17.0169 55.9934 17.1036 55.6628 17.1036ZM58.4356 25.0132V18.455H60.1217L60.1713 19.7939L59.8241 19.9426C59.9151 19.6451 60.0762 19.3765 60.3076 19.1368C60.5473 18.8889 60.8325 18.6905 61.1631 18.5417C61.4937 18.393 61.8408 18.3186 62.2044 18.3186C62.7003 18.3186 63.1136 18.4178 63.4442 18.6161C63.783 18.8145 64.0351 19.1161 64.2004 19.5211C64.374 19.9178 64.4608 20.4096 64.4608 20.9964V25.0132H62.7003V21.1328C62.7003 20.8352 62.659 20.5873 62.5764 20.3889C62.4937 20.1906 62.3656 20.0459 62.192 19.955C62.0267 19.8559 61.8201 19.8145 61.5722 19.8311C61.3738 19.8311 61.1879 19.8641 61.0143 19.9302C60.849 19.9881 60.7044 20.0749 60.5804 20.1906C60.4647 20.3063 60.3696 20.4385 60.2952 20.5873C60.2291 20.7361 60.1961 20.8972 60.1961 21.0708V25.0132H59.3283C59.1382 25.0132 58.9687 25.0132 58.82 25.0132C58.6712 25.0132 58.5431 25.0132 58.4356 25.0132ZM74.0403 25.1371C73.4039 25.1371 72.8171 25.0256 72.2799 24.8024C71.7427 24.5792 71.2716 24.2693 70.8666 23.8726C70.4699 23.4676 70.1641 22.9924 69.9492 22.4469C69.7343 21.8932 69.6269 21.2939 69.6269 20.6493C69.6269 19.9964 69.7343 19.4013 69.9492 18.8641C70.1641 18.3186 70.4699 17.8434 70.8666 17.4384C71.2716 17.0334 71.7427 16.7193 72.2799 16.4962C72.8171 16.273 73.4039 16.1614 74.0403 16.1614C74.685 16.1614 75.2718 16.273 75.8007 16.4962C76.338 16.7193 76.8049 17.0334 77.2016 17.4384C77.6066 17.8434 77.9166 18.3186 78.1314 18.8641C78.3463 19.4096 78.4538 20.0046 78.4538 20.6493C78.4538 21.2939 78.3463 21.889 78.1314 22.4345C77.9166 22.98 77.6066 23.4552 77.2016 23.8602C76.8049 24.2652 76.338 24.5792 75.8007 24.8024C75.2718 25.0256 74.685 25.1371 74.0403 25.1371ZM74.0403 23.3767C74.404 23.3767 74.7387 23.3106 75.0445 23.1783C75.3586 23.0461 75.6272 22.856 75.8503 22.6081C76.0735 22.3601 76.2471 22.0708 76.371 21.7403C76.5033 21.4097 76.5694 21.046 76.5694 20.6493C76.5694 20.2526 76.5033 19.8889 76.371 19.5583C76.2471 19.2277 76.0735 18.9426 75.8503 18.7029C75.6272 18.455 75.3586 18.2649 75.0445 18.1326C74.7387 17.9921 74.404 17.9219 74.0403 17.9219C73.6767 17.9219 73.3419 17.9921 73.0361 18.1326C72.7303 18.2649 72.4617 18.455 72.2303 18.7029C71.9989 18.9426 71.8212 19.2277 71.6972 19.5583C71.5815 19.8889 71.5237 20.2526 71.5237 20.6493C71.5237 21.046 71.5815 21.4097 71.6972 21.7403C71.8212 22.0708 71.9989 22.3601 72.2303 22.6081C72.4617 22.856 72.7303 23.0461 73.0361 23.1783C73.3419 23.3106 73.6767 23.3767 74.0403 23.3767ZM80.3972 25.0132V17.9963C80.3972 17.5913 80.4881 17.2235 80.6699 16.8929C80.8517 16.5623 81.0997 16.3019 81.4137 16.1119C81.7361 15.9218 82.1121 15.8267 82.5419 15.8267C82.8312 15.8267 83.1039 15.8763 83.3601 15.9755C83.6163 16.0664 83.8354 16.1945 84.0172 16.3598L83.4965 17.6491C83.3891 17.583 83.2775 17.5293 83.1618 17.488C83.0543 17.4384 82.9551 17.4136 82.8642 17.4136C82.7072 17.4136 82.575 17.4425 82.4675 17.5004C82.3683 17.5499 82.294 17.6285 82.2444 17.7359C82.1948 17.8351 82.17 17.9632 82.17 18.1202V25.0132H81.2898C81.0997 25.0132 80.9302 25.0132 80.7815 25.0132C80.6327 25.0132 80.5046 25.0132 80.3972 25.0132ZM79.4178 20.1038V18.6161H83.5833V20.1038H79.4178ZM85.2693 25.0132V17.9963C85.2693 17.5913 85.3602 17.2235 85.5421 16.8929C85.7239 16.5623 85.9718 16.3019 86.2859 16.1119C86.6082 15.9218 86.9843 15.8267 87.4141 15.8267C87.7033 15.8267 87.9761 15.8763 88.2323 15.9755C88.4885 16.0664 88.7075 16.1945 88.8893 16.3598L88.3687 17.6491C88.2612 17.583 88.1496 17.5293 88.0339 17.488C87.9265 17.4384 87.8273 17.4136 87.7364 17.4136C87.5794 17.4136 87.4471 17.4425 87.3397 17.5004C87.2405 17.5499 87.1661 17.6285 87.1165 17.7359C87.0669 17.8351 87.0421 17.9632 87.0421 18.1202V25.0132H86.1619C85.9718 25.0132 85.8024 25.0132 85.6536 25.0132C85.5049 25.0132 85.3768 25.0132 85.2693 25.0132ZM84.2899 20.1038V18.6161H88.4554V20.1038H84.2899ZM89.782 25.0132V18.455H91.5424V25.0132H89.782ZM90.6498 17.1036C90.3109 17.1036 90.0464 17.021 89.8563 16.8557C89.6662 16.6904 89.5712 16.4548 89.5712 16.149C89.5712 15.868 89.6662 15.6408 89.8563 15.4672C90.0547 15.2854 90.3192 15.1945 90.6498 15.1945C90.9886 15.1945 91.2531 15.2812 91.4432 15.4548C91.6333 15.6201 91.7283 15.8515 91.7283 16.149C91.7283 16.4383 91.6292 16.6697 91.4308 16.8433C91.2407 17.0169 90.9804 17.1036 90.6498 17.1036ZM96.2756 25.1371C95.6475 25.1371 95.0855 24.9884 94.5896 24.6908C94.0937 24.3933 93.7011 23.9883 93.4119 23.4759C93.1309 22.9635 92.9903 22.3808 92.9903 21.7279C92.9903 21.0832 93.1309 20.5046 93.4119 19.9922C93.7011 19.4715 94.0937 19.0624 94.5896 18.7649C95.0855 18.4674 95.6475 18.3186 96.2756 18.3186C96.8625 18.3186 97.3997 18.426 97.8873 18.6409C98.3749 18.8558 98.7551 19.1533 99.0279 19.5335L98.0609 20.6989C97.9452 20.5418 97.8005 20.4013 97.627 20.2774C97.4534 20.1451 97.2633 20.0418 97.0567 19.9674C96.8583 19.893 96.6517 19.8559 96.4368 19.8559C96.098 19.8559 95.7963 19.9385 95.5318 20.1038C95.2756 20.2608 95.0731 20.4799 94.9243 20.7609C94.7756 21.0419 94.7012 21.3642 94.7012 21.7279C94.7012 22.0832 94.7756 22.4014 94.9243 22.6825C95.0814 22.9552 95.2921 23.1783 95.5566 23.3519C95.8211 23.5172 96.1186 23.5999 96.4492 23.5999C96.6641 23.5999 96.8666 23.5709 97.0567 23.5131C97.2468 23.447 97.4245 23.3519 97.5898 23.2279C97.7633 23.104 97.9204 22.9552 98.0609 22.7816L99.0155 23.947C98.7345 24.3024 98.346 24.5916 97.8501 24.8148C97.3542 25.0297 96.8294 25.1371 96.2756 25.1371ZM103.255 25.1371C102.544 25.1371 101.925 24.9925 101.396 24.7032C100.867 24.4139 100.453 24.0172 100.156 23.5131C99.8584 23.0089 99.7096 22.4304 99.7096 21.7774C99.7096 21.2733 99.7923 20.8105 99.9576 20.3889C100.123 19.9674 100.354 19.6038 100.652 19.298C100.949 18.9839 101.301 18.7442 101.706 18.5789C102.119 18.4054 102.565 18.3186 103.045 18.3186C103.491 18.3186 103.904 18.4012 104.284 18.5665C104.664 18.7236 104.991 18.9508 105.264 19.2484C105.545 19.5377 105.76 19.8806 105.908 20.2774C106.057 20.6741 106.123 21.108 106.107 21.5791L106.094 22.1246H100.825L100.54 21.046H104.644L104.445 21.2692V20.9964C104.429 20.7733 104.354 20.5708 104.222 20.3889C104.098 20.2071 103.937 20.0666 103.739 19.9674C103.54 19.8683 103.317 19.8187 103.069 19.8187C102.706 19.8187 102.396 19.8889 102.139 20.0294C101.892 20.1699 101.701 20.3765 101.569 20.6493C101.437 20.922 101.371 21.2526 101.371 21.6411C101.371 22.0378 101.454 22.3808 101.619 22.6701C101.792 22.9593 102.032 23.1866 102.338 23.3519C102.652 23.5089 103.02 23.5875 103.441 23.5875C103.73 23.5875 103.995 23.542 104.235 23.4511C104.474 23.3602 104.731 23.2031 105.003 22.98L105.846 24.1577C105.607 24.3726 105.342 24.5545 105.053 24.7032C104.764 24.8437 104.466 24.9512 104.16 25.0256C103.854 25.0999 103.553 25.1371 103.255 25.1371Z" fill="#2D9F69"/>
<path d="M18.0251 10.8662C18.7436 10.0645 19.9991 10.0645 20.7177 10.8662L22.2718 12.6001C22.5906 12.9558 23.0372 13.1709 23.5141 13.1984L25.8387 13.3324C26.9134 13.3943 27.6962 14.3759 27.5175 15.4375L27.1309 17.7337C27.0515 18.2047 27.1618 18.6879 27.4377 19.0779L28.7823 20.9789C29.4039 21.8578 29.1246 23.0819 28.1831 23.604L26.1468 24.7333C25.7291 24.965 25.4201 25.3525 25.2872 25.8113L24.6393 28.0479C24.3397 29.0819 23.2085 29.6266 22.2133 29.2161L20.0608 28.3282C19.6192 28.1461 19.1235 28.1461 18.682 28.3282L16.5294 29.2161C15.5342 29.6266 14.403 29.0819 14.1035 28.0479L13.4555 25.8113C13.3226 25.3525 13.0136 24.965 12.5959 24.7333L10.5596 23.604C9.61817 23.0819 9.33879 21.8578 9.96045 20.9789L11.3051 19.0779C11.5809 18.6879 11.6912 18.2047 11.6119 17.7337L11.2252 15.4375C11.0465 14.3759 11.8293 13.3943 12.904 13.3324L15.2287 13.1984C15.7055 13.1709 16.1521 12.9558 16.4709 12.6001L18.0251 10.8662Z" fill="#2D9F69"/>
<path d="M15.8568 20.714L17.6278 22.1308C18.0433 22.4632 18.6459 22.4139 19.0018 22.0184L22.8877 17.7008" stroke="white" stroke-width="0.753311" stroke-linecap="round" stroke-linejoin="round"/>
</svg>
