<svg width="32" height="32" viewBox="0 0 32 32" fill="none" xmlns="http://www.w3.org/2000/svg">
<path d="M5 12.6532L5 12.6525C4.99996 12.6017 5.01154 12.5516 5.03384 12.5059C5.05612 12.4603 5.08853 12.4204 5.12859 12.3892C5.12862 12.3892 5.12864 12.3892 5.12867 12.3892L15.7953 4.09324L15.7953 4.09318C15.8538 4.04766 15.9259 4.02295 16 4.02295C16.0741 4.02295 16.1462 4.04766 16.2047 4.09318L16.2047 4.09324L26.8713 12.3892C26.8714 12.3892 26.8714 12.3892 26.8714 12.3892C26.9115 12.4204 26.9439 12.4603 26.9662 12.5059L27.8646 12.0669L26.9662 12.5059C26.9885 12.5516 27 12.6017 27 12.6525V12.6532V26.6665C27 26.755 26.9649 26.8397 26.9024 26.9022C26.8399 26.9648 26.7551 26.9999 26.6667 26.9999H5.33333C5.24493 26.9999 5.16014 26.9648 5.09763 26.9022C5.03512 26.8397 5 26.7549 5 26.6665L5 12.6532ZM14.6667 16.3332H13.6667V17.3332V25.3332V26.3332H14.6667H17.3333H18.3333V25.3332V17.3332V16.3332H17.3333H14.6667Z" stroke="#8F95B2" stroke-width="2"/>
</svg>
