<svg width="60" height="60" viewBox="0 0 60 60" fill="none" xmlns="http://www.w3.org/2000/svg">
<rect x="0.5" y="0.5" width="59" height="59" rx="29.5" fill="white"/>
<path d="M45 39.9992C45 40.2644 44.8946 40.5187 44.7071 40.7063C44.5196 40.8938 44.2652 40.9992 44 40.9992H16C15.7348 40.9992 15.4804 40.8938 15.2929 40.7063C15.1054 40.5187 15 40.2644 15 39.9992C15 39.7339 15.1054 39.4796 15.2929 39.2921C15.4804 39.1045 15.7348 38.9992 16 38.9992H44C44.2652 38.9992 44.5196 39.1045 44.7071 39.2921C44.8946 39.4796 45 39.7339 45 39.9992ZM16.0375 26.2742C15.9779 26.0646 15.9884 25.8413 16.0674 25.6382C16.1463 25.4351 16.2895 25.2634 16.475 25.1492L29.475 17.1492C29.6323 17.0504 29.8143 16.998 30 16.998C30.1857 16.998 30.3677 17.0504 30.525 17.1492L43.525 25.1492C43.7097 25.2636 43.8521 25.4352 43.9306 25.6378C44.0092 25.8404 44.0196 26.0631 43.9602 26.2722C43.9009 26.4812 43.7751 26.6653 43.6018 26.7964C43.4286 26.9276 43.2173 26.9988 43 26.9992H40V34.9992H42C42.2652 34.9992 42.5196 35.1045 42.7071 35.2921C42.8946 35.4796 43 35.7339 43 35.9992C43 36.2644 42.8946 36.5187 42.7071 36.7063C42.5196 36.8938 42.2652 36.9992 42 36.9992H18C17.7348 36.9992 17.4804 36.8938 17.2929 36.7063C17.1054 36.5187 17 36.2644 17 35.9992C17 35.7339 17.1054 35.4796 17.2929 35.2921C17.4804 35.1045 17.7348 34.9992 18 34.9992H20V26.9992H17C16.7826 26.9994 16.571 26.9287 16.3973 26.7979C16.2236 26.6671 16.0973 26.4832 16.0375 26.2742ZM32 33.9992C32 34.2644 32.1054 34.5187 32.2929 34.7063C32.4804 34.8938 32.7348 34.9992 33 34.9992C33.2652 34.9992 33.5196 34.8938 33.7071 34.7063C33.8946 34.5187 34 34.2644 34 33.9992V27.9992C34 27.7339 33.8946 27.4796 33.7071 27.2921C33.5196 27.1045 33.2652 26.9992 33 26.9992C32.7348 26.9992 32.4804 27.1045 32.2929 27.2921C32.1054 27.4796 32 27.7339 32 27.9992V33.9992ZM26 33.9992C26 34.2644 26.1054 34.5187 26.2929 34.7063C26.4804 34.8938 26.7348 34.9992 27 34.9992C27.2652 34.9992 27.5196 34.8938 27.7071 34.7063C27.8946 34.5187 28 34.2644 28 33.9992V27.9992C28 27.7339 27.8946 27.4796 27.7071 27.2921C27.5196 27.1045 27.2652 26.9992 27 26.9992C26.7348 26.9992 26.4804 27.1045 26.2929 27.2921C26.1054 27.4796 26 27.7339 26 27.9992V33.9992Z" fill="#3D8798"/>
<rect x="0.5" y="0.5" width="59" height="59" rx="29.5" stroke="#3D8798"/>
</svg>
