<svg width="48" height="48" viewBox="0 0 48 48" fill="none" xmlns="http://www.w3.org/2000/svg">
<rect width="48" height="48" rx="10" fill="#3D8798"/>
<path d="M37.5 12.75H10.5C9.90326 12.75 9.33097 12.9871 8.90901 13.409C8.48705 13.831 8.25 14.4033 8.25 15V19.6266V32.9859C8.25 33.5827 8.48705 34.155 8.90901 34.5769C9.33097 34.9989 9.90326 35.2359 10.5 35.2359H37.5C38.0967 35.2359 38.669 34.9989 39.091 34.5769C39.5129 34.155 39.75 33.5827 39.75 32.9859V15C39.75 14.4033 39.5129 13.831 39.091 13.409C38.669 12.9871 38.0967 12.75 37.5 12.75ZM25.125 30.75H22.875C22.5766 30.75 22.2905 30.6315 22.0795 30.4205C21.8685 30.2095 21.75 29.9234 21.75 29.625C21.75 29.3266 21.8685 29.0405 22.0795 28.8295C22.2905 28.6185 22.5766 28.5 22.875 28.5H25.125C25.4234 28.5 25.7095 28.6185 25.9205 28.8295C26.1315 29.0405 26.25 29.3266 26.25 29.625C26.25 29.9234 26.1315 30.2095 25.9205 30.4205C25.7095 30.6315 25.4234 30.75 25.125 30.75ZM34.125 30.75H29.625C29.3266 30.75 29.0405 30.6315 28.8295 30.4205C28.6185 30.2095 28.5 29.9234 28.5 29.625C28.5 29.3266 28.6185 29.0405 28.8295 28.8295C29.0405 28.6185 29.3266 28.5 29.625 28.5H34.125C34.4234 28.5 34.7095 28.6185 34.9205 28.8295C35.1315 29.0405 35.25 29.3266 35.25 29.625C35.25 29.9234 35.1315 30.2095 34.9205 30.4205C34.7095 30.6315 34.4234 30.75 34.125 30.75ZM10.5 18.5016V15H37.5V18.5016H10.5Z" fill="white"/>
</svg>
