<svg width="32" height="32" viewBox="0 0 32 32" fill="none" xmlns="http://www.w3.org/2000/svg">
<circle cx="16" cy="16" r="16" fill="#E8E8E8"/>
<path d="M15.9992 6.39844C14.1005 6.39844 12.2444 6.96147 10.6657 8.01633C9.08699 9.07119 7.85653 10.5705 7.12993 12.3247C6.40333 14.0788 6.21322 16.0091 6.58364 17.8713C6.95405 19.7335 7.86837 21.4441 9.21095 22.7867C10.5535 24.1292 12.2641 25.0436 14.1263 25.414C15.9885 25.7844 17.9188 25.5943 19.6729 24.8677C21.4271 24.1411 22.9264 22.9106 23.9813 21.3319C25.0361 19.7532 25.5992 17.8971 25.5992 15.9984C25.5943 13.4539 24.5813 11.0149 22.782 9.2156C20.9827 7.41631 18.5438 6.40332 15.9992 6.39844ZM15.2607 11.5677C15.2607 11.3718 15.3385 11.184 15.477 11.0455C15.6155 10.907 15.8033 10.8292 15.9992 10.8292C16.195 10.8292 16.3829 10.907 16.5213 11.0455C16.6598 11.184 16.7376 11.3718 16.7376 11.5677V16.7369C16.7376 16.9328 16.6598 17.1206 16.5213 17.2591C16.3829 17.3976 16.195 17.4754 15.9992 17.4754C15.8033 17.4754 15.6155 17.3976 15.477 17.2591C15.3385 17.1206 15.2607 16.9328 15.2607 16.7369V11.5677ZM15.9992 21.1677C15.7801 21.1677 15.5659 21.1027 15.3838 20.981C15.2016 20.8593 15.0596 20.6863 14.9758 20.4839C14.892 20.2815 14.87 20.0587 14.9128 19.8439C14.9555 19.629 15.061 19.4316 15.2159 19.2767C15.3708 19.1218 15.5682 19.0163 15.7831 18.9736C15.9979 18.9308 16.2207 18.9528 16.4231 19.0366C16.6255 19.1204 16.7985 19.2624 16.9202 19.4446C17.0419 19.6267 17.1069 19.8409 17.1069 20.06C17.1069 20.3538 16.9902 20.6355 16.7824 20.8432C16.5747 21.051 16.293 21.1677 15.9992 21.1677Z" fill="#8F95B2"/>
</svg>
