<svg width="48" height="48" viewBox="0 0 48 48" fill="none" xmlns="http://www.w3.org/2000/svg">
<rect width="48" height="48" rx="10" fill="#3D8798"/>
<path d="M35.25 11.625H12.75C12.1533 11.625 11.581 11.8621 11.159 12.284C10.7371 12.706 10.5 13.2783 10.5 13.875V22.1297C10.5 34.7016 21.1594 38.8781 23.2969 39.5813C23.7536 39.7315 24.2464 39.7315 24.7031 39.5813C26.8406 38.8781 37.5 34.7016 37.5 22.1297V13.875C37.5 13.2783 37.2629 12.706 36.841 12.284C36.419 11.8621 35.8467 11.625 35.25 11.625ZM30.9609 21.4406L22.7203 29.3156C22.5073 29.516 22.2253 29.6268 21.9328 29.625C21.6446 29.6261 21.3673 29.5152 21.1594 29.3156L17.0391 25.3781C16.9248 25.2784 16.8318 25.1566 16.7658 25.0201C16.6998 24.8835 16.6621 24.7351 16.6549 24.5836C16.6477 24.4321 16.6713 24.2807 16.7241 24.1385C16.7769 23.9964 16.858 23.8664 16.9623 23.7563C17.0667 23.6463 17.1922 23.5584 17.3314 23.4981C17.4705 23.4378 17.6205 23.4063 17.7721 23.4054C17.9238 23.4045 18.0741 23.4343 18.2139 23.493C18.3538 23.5517 18.4803 23.638 18.5859 23.7469L21.9328 26.9391L29.4141 19.8094C29.6328 19.6185 29.9169 19.5196 30.2068 19.5333C30.4968 19.5471 30.7702 19.6723 30.97 19.883C31.1697 20.0936 31.2803 20.3733 31.2786 20.6636C31.277 20.9539 31.1631 21.2323 30.9609 21.4406Z" fill="white"/>
</svg>
