<svg width="48" height="48" viewBox="0 0 48 48" fill="none" xmlns="http://www.w3.org/2000/svg">
<rect width="48" height="48" rx="10" fill="#3D8798"/>
<path d="M9.78459 31.0038C10.4243 31.4735 11.1077 31.8803 11.8255 32.2188C12.2275 31.9851 12.6092 31.718 12.9662 31.42C13.8631 30.686 14.6207 29.7964 15.2027 28.7942C15.2622 28.6907 15.3602 28.615 15.4753 28.5838C15.5906 28.5525 15.7134 28.5684 15.817 28.6276C16.0326 28.7514 16.1071 29.0264 15.9834 29.2419C15.2009 30.595 14.1271 31.7569 12.8402 32.6438C13.525 32.8959 14.2306 33.0888 14.9484 33.22C14.991 33.1463 15.0544 33.0868 15.1308 33.0488C16.8968 32.0265 18.285 30.4607 19.0884 28.585C19.1342 28.4745 19.222 28.3867 19.3325 28.3411C19.4429 28.2955 19.5671 28.2957 19.6774 28.3417C19.7877 28.3879 19.8751 28.4759 19.9205 28.5866C19.9657 28.6971 19.9651 28.8212 19.9187 28.9313C19.1526 30.7347 17.8901 32.2836 16.2783 33.3976C16.7014 33.4335 17.113 33.4494 17.5068 33.4494C19.0581 33.4586 20.6009 33.2194 22.0765 32.7407C22.1827 32.7025 22.2703 32.6252 22.3217 32.5247C24.2792 28.7694 24.1533 26.3301 23.7573 23.2953C23.5142 21.43 22.6884 20.755 21.5252 20.5164V20.1676C21.5242 19.6867 21.2671 19.2426 20.8502 19.0023V8.69959C20.8502 8.21725 20.5929 7.77166 20.1752 7.53041C19.7576 7.28934 19.2429 7.28934 18.8252 7.53041C18.4076 7.77168 18.1502 8.21724 18.1502 8.69959V19.0023C17.7334 19.2425 17.4762 19.6867 17.4752 20.1676V20.4533C15.3309 20.694 14.9371 21.7627 14.8608 22.8136C14.4467 28.407 10.0751 30.1484 9.89047 30.2204V30.2206C9.73638 30.2792 9.62669 30.4172 9.60459 30.5806C9.5827 30.7439 9.6516 30.9062 9.78459 31.0037L9.78459 31.0038ZM18.3752 20.1678C18.376 19.9197 18.5769 19.7186 18.8252 19.7178H20.1752C20.4235 19.7186 20.6244 19.9197 20.6252 20.1678V20.4109C20.1865 20.3884 19.714 20.3928 19.2212 20.3996C18.9715 20.4018 18.7081 20.404 18.4359 20.404C18.4156 20.404 18.3953 20.4062 18.3752 20.4062L18.3752 20.1678ZM17.7002 22.1928H20.4002C20.6487 22.1928 20.8502 22.3943 20.8502 22.6428C20.8502 22.8915 20.6487 23.0928 20.4002 23.0928H17.7002C17.4517 23.0928 17.2502 22.8915 17.2502 22.6428C17.2502 22.3943 17.4517 22.1928 17.7002 22.1928Z" fill="white"/>
<path d="M35.9256 17.9245C36.2836 17.9245 36.6271 17.7823 36.8802 17.5292C37.1333 17.2761 37.2756 16.9325 37.2756 16.5746C37.2756 16.2166 37.1333 15.873 36.8802 15.62C36.6271 15.3669 36.2836 15.2246 35.9256 15.2246C35.5677 15.2246 35.2241 15.3668 34.971 15.62C34.718 15.8731 34.5757 16.2166 34.5757 16.5746C34.5761 16.9326 34.7185 17.2757 34.9714 17.5288C35.2246 17.7818 35.5677 17.9242 35.9257 17.9246L35.9256 17.9245ZM35.9256 16.1246C36.1076 16.1246 36.2718 16.2342 36.3413 16.4024C36.411 16.5705 36.3726 16.764 36.2438 16.8928C36.1151 17.0215 35.9216 17.0599 35.7535 16.9902C35.5853 16.9207 35.4756 16.7566 35.4756 16.5746C35.4758 16.326 35.6771 16.1248 35.9256 16.1246Z" fill="white"/>
<path d="M32.7748 16.1242C32.7748 17.1182 31.9688 17.9242 30.9748 17.9242C29.9808 17.9242 29.1748 17.1182 29.1748 16.1242C29.1748 15.1302 29.9808 14.3242 30.9748 14.3242C31.9688 14.3242 32.7748 15.1302 32.7748 16.1242Z" fill="white"/>
<path d="M24.0028 20.2212C24.0161 20.6177 24.2037 20.9882 24.5153 21.2339L25.075 22.2598C25.1248 22.351 25.1831 22.4388 25.2405 22.527L25.8655 30.3266V30.3264C25.9322 31.1145 26.2916 31.8488 26.8726 32.3852C27.4535 32.9215 28.2143 33.2211 29.005 33.2249H33.3958C34.1865 33.2211 34.9472 32.9216 35.5282 32.3852C36.1092 31.8488 36.4686 31.1145 36.5353 30.3264L37.132 22.8811C37.2706 22.7005 37.397 22.5107 37.5099 22.3128L38.3528 20.6301C38.3976 20.5399 38.4105 20.4372 38.3894 20.3388C38.439 19.9547 38.3203 19.568 38.0637 19.2779C37.8072 18.9876 37.4378 18.8225 37.0504 18.8247H34.8004C34.8004 18.3423 34.5431 17.8967 34.1254 17.6555C33.7078 17.4144 33.1931 17.4144 32.7755 17.6555C32.3578 17.8968 32.1005 18.3423 32.1005 18.8247H29.7912C29.658 18.306 29.3002 17.8737 28.8157 17.6456C28.3309 17.4176 27.77 17.4176 27.2853 17.6456C26.8007 17.8736 26.4429 18.306 26.3097 18.8247H25.3505C25.0003 18.8253 24.6642 18.9617 24.4127 19.2054C24.1614 19.4488 24.0144 19.7807 24.0027 20.1305L24.0023 20.1375C24.0021 20.1499 24.0005 20.1622 24.0005 20.1747C24.0005 20.1883 24.0021 20.2016 24.0025 20.2152L24.0028 20.2212ZM35.6385 30.2549V30.2551C35.5907 30.8178 35.334 31.3423 34.9189 31.7254C34.5039 32.1085 33.9605 32.3225 33.3958 32.3253H29.0051C28.4404 32.3225 27.8969 32.1085 27.4819 31.7254C27.0669 31.3423 26.8102 30.8178 26.7623 30.2551L26.2318 23.6321C27.7467 24.8419 29.615 25.5243 31.5531 25.5753C33.2293 25.5502 34.8479 24.9608 36.1475 23.9021L35.6385 30.2549ZM34.8004 19.7254H37.0504C37.2989 19.7254 37.5004 19.9269 37.5004 20.1754C37.5004 20.4239 37.2989 20.6254 37.0504 20.6254H34.8004V19.7254ZM33.4504 18.3754C33.6989 18.3756 33.9002 18.5769 33.9004 18.8254H33.0004C33.0006 18.5769 33.2019 18.3756 33.4504 18.3754ZM31.5526 23.7754C32.7226 23.7549 33.8574 23.3718 34.8004 22.6789V21.5254H36.3378L36.2561 22.5462C35.0577 23.8861 33.3502 24.6592 31.5526 24.6754C29.7114 24.6754 27.2237 23.7019 26.1181 22.2161L26.0629 21.5254H27.6003V22.4218C28.7563 23.2511 30.1308 23.722 31.5525 23.7754H31.5526ZM28.0504 18.3754C28.3704 18.3764 28.6657 18.548 28.8252 18.8254H27.2755C27.435 18.548 27.7304 18.3764 28.0503 18.3754H28.0504ZM25.3504 19.7254H27.6004V20.6254H25.3504C25.1019 20.6254 24.9004 20.4239 24.9004 20.1754C24.9004 19.9269 25.1019 19.7254 25.3504 19.7254Z" fill="white"/>
<path d="M31.5531 26.4742C30.1847 26.4453 28.8376 26.1272 27.6006 25.541V27.8242C27.6122 28.0886 27.8089 28.308 28.0703 28.3482C28.1633 28.3482 28.1876 28.3666 28.3021 28.4647C28.5207 28.6784 28.814 28.7982 29.1197 28.7982C29.4253 28.7982 29.7187 28.6784 29.9372 28.4647C30.0517 28.3666 30.076 28.3482 30.169 28.3482C30.262 28.3482 30.2863 28.3666 30.4008 28.4647C30.6192 28.6784 30.9127 28.7982 31.2184 28.7982C31.5242 28.7982 31.8177 28.6786 32.0362 28.4649C32.1508 28.3666 32.1753 28.3482 32.2685 28.3482C32.3619 28.3482 32.3864 28.3666 32.5011 28.4649C32.7199 28.6786 33.0134 28.7982 33.3191 28.7982C33.6249 28.7982 33.9186 28.6786 34.1373 28.4649C34.2523 28.3666 34.2766 28.3482 34.3702 28.3482C34.6189 28.3482 34.8202 28.1467 34.8202 27.8982C34.8196 27.8558 34.8129 27.8138 34.8005 27.7732V25.7713C33.7779 26.2263 32.6724 26.4656 31.553 26.4742L31.5531 26.4742Z" fill="white"/>
</svg>
