<svg width="32" height="33" viewBox="0 0 32 33" fill="none" xmlns="http://www.w3.org/2000/svg">
<path fill-rule="evenodd" clip-rule="evenodd" d="M21.5438 11.4102C21.5438 14.5431 19.0462 17.0552 15.9314 17.0552C12.8166 17.0552 10.319 14.5431 10.319 11.4102C10.319 8.27605 12.8166 5.76636 15.9314 5.76636C19.0462 5.76636 21.5438 8.27605 21.5438 11.4102ZM15.9305 27.0996C11.3556 27.0996 7.44922 26.3743 7.44922 23.4732C7.44922 20.5708 11.3305 19.8191 15.9305 19.8191C20.5054 19.8191 24.4117 20.5444 24.4117 23.4467C24.4117 26.3479 20.5305 27.0996 15.9305 27.0996ZM23.9424 11.5119C23.9424 13.109 23.466 14.5968 22.6303 15.8336C22.5444 15.9609 22.6208 16.1326 22.7724 16.159C22.9813 16.195 23.1974 16.2154 23.4171 16.2214C25.6078 16.2791 27.5741 14.8609 28.1173 12.7259C28.922 9.55456 26.5593 6.70744 23.5508 6.70744C23.2237 6.70744 22.9109 6.74226 22.6064 6.8047C22.5647 6.81431 22.5205 6.83352 22.4966 6.87075C22.4679 6.91638 22.4894 6.97762 22.5181 7.01725C23.4219 8.29131 23.9424 9.84515 23.9424 11.5119ZM27.5698 18.4497C29.0419 18.7391 30.0101 19.3299 30.4112 20.1884C30.7503 20.8933 30.7503 21.7111 30.4112 22.4147C29.7976 23.7464 27.8193 24.1739 27.0505 24.2844C26.8917 24.3084 26.764 24.1703 26.7807 24.0106C27.1735 20.3205 24.0491 18.5709 23.2409 18.1687C23.2062 18.1507 23.1991 18.123 23.2027 18.1062C23.205 18.0942 23.2194 18.075 23.2456 18.0714C24.9946 18.039 26.875 18.2791 27.5698 18.4497ZM8.58227 16.2214C8.80194 16.2154 9.01684 16.1962 9.22696 16.159C9.37858 16.1326 9.45499 15.9609 9.36903 15.8336C8.53332 14.5968 8.05697 13.109 8.05697 11.5119C8.05697 9.84515 8.57749 8.29131 9.48125 7.01725C9.5099 6.97762 9.5302 6.91638 9.50274 6.87075C9.47886 6.83472 9.4335 6.81431 9.39291 6.8047C9.08728 6.74226 8.77448 6.70744 8.44736 6.70744C5.43881 6.70744 3.07614 9.55456 3.882 12.7259C4.42521 14.8609 6.39152 16.2791 8.58227 16.2214ZM8.79462 18.1057C8.7982 18.1237 8.79103 18.1501 8.75761 18.1693C7.94816 18.5716 4.8238 20.3212 5.21659 24.0101C5.2333 24.171 5.10675 24.3079 4.94797 24.285C4.17911 24.1746 2.20087 23.7471 1.58722 22.4154C1.24697 21.7105 1.24697 20.894 1.58722 20.1891C1.98836 19.3305 2.9554 18.7397 4.42744 18.4491C5.12346 18.2798 7.00262 18.0396 8.75283 18.0721C8.7791 18.0757 8.79223 18.0949 8.79462 18.1057Z" fill="#3D8798"/>
</svg>
