<svg width="17" height="17" viewBox="0 0 17 17" fill="none" xmlns="http://www.w3.org/2000/svg">
<path d="M13.4692 14.8867H10.3755C10.8973 14.4237 11.3879 13.9268 11.8442 13.3992C13.563 11.4305 14.4692 9.34922 14.4692 7.38672C14.4692 5.92803 13.8898 4.52908 12.8583 3.49763C11.8269 2.46618 10.4279 1.88672 8.96924 1.88672C7.51055 1.88672 6.1116 2.46618 5.08015 3.49763C4.0487 4.52908 3.46924 5.92803 3.46924 7.38672C3.46924 9.34922 4.37549 11.4305 6.09424 13.3992C6.55056 13.9268 7.04121 14.4237 7.56299 14.8867H4.46924C4.33663 14.8867 4.20945 14.9394 4.11568 15.0332C4.02192 15.1269 3.96924 15.2541 3.96924 15.3867C3.96924 15.5193 4.02192 15.6465 4.11568 15.7403C4.20945 15.834 4.33663 15.8867 4.46924 15.8867H13.4692C13.6018 15.8867 13.729 15.834 13.8228 15.7403C13.9166 15.6465 13.9692 15.5193 13.9692 15.3867C13.9692 15.2541 13.9166 15.1269 13.8228 15.0332C13.729 14.9394 13.6018 14.8867 13.4692 14.8867ZM8.96924 5.38672C9.3648 5.38672 9.75148 5.50402 10.0804 5.72378C10.4093 5.94354 10.6656 6.2559 10.817 6.62135C10.9684 6.9868 11.008 7.38894 10.9308 7.7769C10.8536 8.16486 10.6632 8.52123 10.3835 8.80093C10.1037 9.08064 9.74738 9.27112 9.35942 9.34829C8.97146 9.42546 8.56932 9.38585 8.20387 9.23448C7.83842 9.0831 7.52606 8.82676 7.3063 8.49786C7.08654 8.16896 6.96924 7.78228 6.96924 7.38672C6.96924 6.85629 7.17995 6.34758 7.55502 5.97251C7.9301 5.59743 8.43881 5.38672 8.96924 5.38672Z" fill="black"/>
</svg>
