<svg width="17" height="17" viewBox="0 0 17 17" fill="none" xmlns="http://www.w3.org/2000/svg">
<path fill-rule="evenodd" clip-rule="evenodd" d="M13.854 14.1769C13.807 13.951 13.7223 13.7063 13.6187 13.4616C13.2799 12.6522 12.5646 12.2098 11.087 11.5792C10.9552 11.5228 10.5317 11.3439 10.5223 11.3439C10.3246 11.2592 10.1834 11.2028 10.0517 11.1369C10.0705 11.0428 10.0705 10.9486 10.0799 10.8451C10.0799 10.8075 10.0893 10.7698 10.0893 10.7228C10.0234 10.6663 9.96698 10.6098 9.9105 10.5439C10.1176 10.2428 10.287 9.91334 10.4187 9.5557C10.4376 9.49923 10.4376 9.49923 10.447 9.46158C10.7199 9.24511 10.8987 8.92511 11.0023 8.55805C11.1529 8.24746 11.2376 7.87099 11.1999 7.46628C11.1717 7.08981 11.0493 6.75099 10.8517 6.49687C10.8329 5.99805 10.7858 5.43334 10.7105 5.04746C10.7011 4.99099 10.6917 4.93452 10.6823 4.86864C10.8987 4.81217 11.134 4.78393 11.3599 4.78393C11.8211 4.78393 12.3482 4.93452 12.7152 5.21687C13.0729 5.48981 13.3458 5.8757 13.4682 6.31805C13.4964 6.41217 13.5152 6.5157 13.534 6.60981C13.5999 6.95805 13.6376 7.49452 13.6376 7.86158C13.6376 7.8804 13.6376 7.89923 13.6376 7.90864C13.7693 7.96511 13.8917 8.10628 13.9105 8.38864C13.9293 8.62393 13.8446 8.81217 13.7882 8.89687C13.7411 9.09452 13.6376 9.31099 13.4305 9.34864C13.4117 9.44276 13.3834 9.53687 13.3458 9.63099C13.3458 9.6404 13.3364 9.65923 13.3364 9.65923C13.1764 10.0733 12.9317 10.4404 12.6305 10.7039C12.6305 10.751 12.6305 10.798 12.6305 10.8357C12.6587 11.1651 12.5458 11.391 13.4117 11.7769C14.287 12.1628 15.5952 12.5675 15.8587 13.1886C16.1317 13.8098 16.0187 14.1675 16.0187 14.1675H13.854V14.1769ZM12.7528 13.8186C13.101 14.628 12.9598 15.0986 12.9598 15.0986H1.02571C1.02571 15.0986 0.893944 14.628 1.23277 13.8186C1.57159 13.0092 3.23747 12.4727 4.34806 11.9739C5.44924 11.4656 5.3363 11.1645 5.37394 10.7503C5.37394 10.7033 5.38336 10.6468 5.38336 10.5903C4.99747 10.2609 4.67747 9.78093 4.47041 9.22563V9.21622C4.47041 9.21622 4.461 9.20681 4.461 9.1974C4.42336 9.08446 4.3763 8.95269 4.34806 8.83034C4.08453 8.78328 3.93394 8.49152 3.87747 8.22799C3.821 8.11505 3.69865 7.86093 3.72689 7.55975C3.76453 7.17387 3.92453 6.99505 4.09394 6.91975C4.09394 6.90093 4.09394 6.8821 4.09394 6.86328C4.09394 6.38328 4.141 5.6774 4.22571 5.22563C4.24453 5.10328 4.27277 4.97152 4.31041 4.84916C4.47041 4.28446 4.81865 3.78563 5.27041 3.42799C5.741 3.06093 6.40924 2.86328 7.00218 2.86328C7.59512 2.86328 8.26336 3.06093 8.73394 3.42799C9.18571 3.78563 9.53394 4.28446 9.69394 4.85858C9.73159 4.98093 9.75983 5.11269 9.77865 5.23505C9.86336 5.68681 9.91041 6.38328 9.91041 6.86328C9.91041 6.8821 9.91041 6.91034 9.91041 6.92916C10.0798 7.00446 10.2304 7.18328 10.2586 7.55975C10.2869 7.86093 10.1739 8.11505 10.1081 8.22799C10.0516 8.49152 9.91041 8.77387 9.6563 8.82093C9.62806 8.94328 9.59042 9.06563 9.54336 9.18799C9.54336 9.1974 9.53394 9.22563 9.53394 9.22563C9.32689 9.77152 9.0163 10.2421 8.63983 10.5903C8.63983 10.6468 8.63983 10.7127 8.63983 10.7598C8.67747 11.1833 8.52689 11.4845 9.63747 11.9833C10.7481 12.4821 12.4139 13.0092 12.7528 13.8186Z" fill="black"/>
</svg>
